<svg width="1467" height="605" viewBox="0 0 1467 605" fill="none" xmlns="http://www.w3.org/2000/svg">
<mask id="mask0_1512_10128" style="mask-type:alpha" maskUnits="userSpaceOnUse" x="0" y="0" width="1467" height="605">
<rect width="1467" height="605" fill="#D9D9D9"/>
</mask>
<g mask="url(#mask0_1512_10128)">
<path d="M555.183 518.275L545.792 266.042C545.792 235.375 521.067 210.65 490.4 210.65C477.367 210.65 465.483 215.058 456.092 222.533C456.475 220.617 456.667 218.7 456.667 216.783C456.667 196.85 440.567 180.558 420.442 180.558C414.883 180.558 409.517 181.9 404.725 184.2C400.125 156.792 376.167 135.9 347.417 135.9C317.517 135.9 292.983 158.517 289.725 187.458C281.867 164.65 260.208 148.167 234.717 148.167C227.817 148.167 221.108 149.317 214.783 151.617C204.242 126.125 178.942 108.108 149.617 108.108C139.267 108.108 129.3 110.408 120.483 114.433C122.4 107.533 123.55 100.25 123.55 92.775C123.55 49.2667 88.2833 14 44.775 14C1.26666 14 -34 49.2667 -34 92.775C-34 112.517 -26.7167 130.533 -14.8333 144.333V518.083H555.183V518.275Z" fill="url(#paint0_linear_1512_10128)"/>
<path d="M923.008 504.275L932.4 252.042C932.4 221.375 957.125 196.65 987.792 196.65C1000.82 196.65 1012.71 201.058 1022.1 208.533C1021.72 206.617 1021.52 204.7 1021.52 202.783C1021.52 182.85 1037.62 166.558 1057.75 166.558C1063.31 166.558 1068.67 167.9 1073.47 170.2C1078.07 142.792 1102.02 121.9 1130.77 121.9C1160.67 121.9 1185.21 144.517 1188.47 173.458C1196.32 150.65 1217.98 134.167 1243.47 134.167C1250.37 134.167 1257.08 135.317 1263.41 137.617C1273.95 112.125 1299.25 94.1083 1328.57 94.1083C1338.92 94.1083 1348.89 96.4083 1357.71 100.433C1355.79 93.5333 1354.64 86.25 1354.64 78.775C1354.64 35.2667 1389.91 0 1433.42 0C1476.92 0 1512.19 35.2667 1512.19 78.775C1512.19 98.5167 1504.91 116.533 1493.02 130.333V504.083H923.008V504.275Z" fill="url(#paint1_linear_1512_10128)"/>
<path d="M301 400.324C301 400.324 973.558 349.532 1592.83 485.041V664.249H310.775L301 400.324Z" fill="url(#paint2_linear_1512_10128)"/>
<path d="M1592.83 485.041C973.558 349.532 301 400.324 301 400.324L301.383 408.757C361.567 406.649 602.683 399.557 776.333 409.332C976.242 420.449 822.333 426.582 823.675 430.607C825.017 434.632 909.542 430.416 926.217 439.999C942.892 449.582 864.117 453.224 885.775 457.632C907.433 462.041 969.533 474.499 940.975 476.416C912.417 478.332 891.717 491.749 934.075 494.624C976.433 497.499 1044.47 515.132 1041.6 509.191C1038.72 503.249 929.092 487.916 969.533 485.999C1009.97 484.082 1084.92 486.957 1056.36 481.207C1027.8 475.457 918.358 462.807 940.975 457.632C963.592 452.457 1117.5 458.207 1083 450.541C1048.5 442.874 878.875 431.374 895.55 425.624C912.225 419.874 937.908 410.674 1134.17 430.607C1330.44 450.541 1542.42 487.916 1542.42 487.916L1592.64 513.599V485.041H1592.83Z" fill="#ADDF72"/>
<path d="M538.092 419.107C538.092 420.449 534.642 421.407 530.425 421.407C526.208 421.407 522.758 420.449 522.758 419.107C522.758 417.765 526.208 416.807 530.425 416.807C534.642 416.807 538.092 417.765 538.092 419.107Z" fill="#ADDF72"/>
<path d="M554.192 414.507C554.192 415.849 550.742 416.807 546.525 416.807C542.308 416.807 538.858 415.849 538.858 414.507C538.858 413.166 542.308 412.207 546.525 412.207C550.742 412.207 554.192 413.166 554.192 414.507Z" fill="#ADDF72"/>
<path d="M620.508 412.016C624.742 412.016 628.175 410.986 628.175 409.716C628.175 408.445 624.742 407.416 620.508 407.416C616.274 407.416 612.842 408.445 612.842 409.716C612.842 410.986 616.274 412.016 620.508 412.016Z" fill="#ADDF72"/>
<path d="M702.542 412.207C702.542 413.549 699.092 414.507 694.875 414.507C690.658 414.507 687.208 413.549 687.208 412.207C687.208 410.866 690.658 409.907 694.875 409.907C699.283 409.716 702.542 410.866 702.542 412.207Z" fill="#ADDF72"/>
<path d="M571.633 422.749C571.633 423.324 569.908 423.899 567.8 423.899C565.692 423.899 563.967 423.324 563.967 422.749C563.967 422.174 565.692 421.599 567.8 421.599C569.908 421.407 571.633 421.982 571.633 422.749Z" fill="#ADDF72"/>
<path d="M581.983 428.499C584.1 428.499 585.817 427.984 585.817 427.349C585.817 426.714 584.1 426.199 581.983 426.199C579.866 426.199 578.15 426.714 578.15 427.349C578.15 427.984 579.866 428.499 581.983 428.499Z" fill="#ADDF72"/>
<path d="M600.767 423.899C600.767 424.474 599.042 425.049 596.933 425.049C594.825 425.049 593.1 424.474 593.1 423.899C593.1 423.324 594.825 422.749 596.933 422.749C599.042 422.749 600.767 423.132 600.767 423.899Z" fill="#ADDF72"/>
<path d="M635.65 414.507C635.65 415.082 633.925 415.657 631.817 415.657C629.708 415.657 627.983 415.082 627.983 414.507C627.983 413.932 629.708 413.357 631.817 413.357C634.117 413.357 635.65 413.741 635.65 414.507Z" fill="#ADDF72"/>
<path d="M652.708 410.865C654.825 410.865 656.542 410.351 656.542 409.715C656.542 409.08 654.825 408.565 652.708 408.565C650.591 408.565 648.875 409.08 648.875 409.715C648.875 410.351 650.591 410.865 652.708 410.865Z" fill="#ADDF72"/>
<path d="M706.375 417.957C706.375 418.532 704.65 419.107 702.542 419.107C700.433 419.107 698.708 418.532 698.708 417.957C698.708 417.382 700.433 416.807 702.542 416.807C704.65 416.807 706.375 417.382 706.375 417.957Z" fill="#ADDF72"/>
<path d="M774.417 417.957C774.417 419.299 770.967 420.257 766.75 420.257C762.533 420.257 759.083 419.299 759.083 417.957C759.083 416.616 762.533 415.657 766.75 415.657C770.967 415.657 774.417 416.616 774.417 417.957Z" fill="#ADDF72"/>
<path d="M809.492 417.957C809.492 419.299 806.042 420.257 801.825 420.257C797.608 420.257 794.158 419.299 794.158 417.957C794.158 416.616 797.608 415.657 801.825 415.657C806.042 415.657 809.492 416.616 809.492 417.957Z" fill="#ADDF72"/>
<path d="M778.25 423.899C778.25 424.474 776.525 425.049 774.417 425.049C772.308 425.049 770.583 424.474 770.583 423.899C770.583 423.324 772.308 422.749 774.417 422.749C776.525 422.749 778.25 423.132 778.25 423.899Z" fill="#ADDF72"/>
<path d="M758.317 431.182C758.317 431.757 756.592 432.332 754.483 432.332C752.375 432.332 750.65 431.757 750.65 431.182C750.65 430.607 752.375 430.032 754.483 430.032C756.592 430.032 758.317 430.607 758.317 431.182Z" fill="#ADDF72"/>
<path d="M786.3 441.916C788.417 441.916 790.133 441.401 790.133 440.765C790.133 440.13 788.417 439.615 786.3 439.615C784.183 439.615 782.467 440.13 782.467 440.765C782.467 441.401 784.183 441.916 786.3 441.916Z" fill="#ADDF72"/>
<path d="M711.358 433.482C711.358 434.057 709.633 434.632 707.525 434.632C705.417 434.632 703.692 434.057 703.692 433.482C703.692 432.907 705.417 432.332 707.525 432.332C709.633 432.332 711.358 432.907 711.358 433.482Z" fill="#ADDF72"/>
<path d="M722.858 420.257C724.975 420.257 726.692 419.742 726.692 419.107C726.692 418.472 724.975 417.957 722.858 417.957C720.741 417.957 719.025 418.472 719.025 419.107C719.025 419.742 720.741 420.257 722.858 420.257Z" fill="#ADDF72"/>
<path d="M753.333 414.507C755.45 414.507 757.167 413.992 757.167 413.357C757.167 412.722 755.45 412.207 753.333 412.207C751.216 412.207 749.5 412.722 749.5 413.357C749.5 413.992 751.216 414.507 753.333 414.507Z" fill="#ADDF72"/>
<path d="M1025.12 434.057C1029.35 434.057 1032.78 433.028 1032.78 431.757C1032.78 430.487 1029.35 429.457 1025.12 429.457C1020.88 429.457 1017.45 430.487 1017.45 431.757C1017.45 433.028 1020.88 434.057 1025.12 434.057Z" fill="#ADDF72"/>
<path d="M1060.19 434.057C1064.43 434.057 1067.86 433.028 1067.86 431.757C1067.86 430.487 1064.43 429.457 1060.19 429.457C1055.96 429.457 1052.52 430.487 1052.52 431.757C1052.52 433.028 1055.96 434.057 1060.19 434.057Z" fill="#ADDF72"/>
<path d="M1036.62 437.507C1036.62 438.082 1034.89 438.657 1032.78 438.657C1030.67 438.657 1028.95 438.082 1028.95 437.507C1028.95 436.932 1030.67 436.357 1032.78 436.357C1034.89 436.357 1036.62 436.932 1036.62 437.507Z" fill="#ADDF72"/>
<path d="M1112.9 452.265C1112.9 452.84 1111.18 453.416 1109.07 453.416C1106.96 453.416 1105.23 452.84 1105.23 452.265C1105.23 451.69 1106.96 451.115 1109.07 451.115C1111.18 451.115 1112.9 451.69 1112.9 452.265Z" fill="#ADDF72"/>
<path d="M1112.13 469.515C1112.13 470.09 1110.41 470.666 1108.3 470.666C1106.19 470.666 1104.47 470.09 1104.47 469.515C1104.47 468.94 1106.19 468.365 1108.3 468.365C1110.41 468.365 1112.13 468.749 1112.13 469.515Z" fill="#ADDF72"/>
<path d="M1140.88 458.015C1140.88 458.59 1139.16 459.166 1137.05 459.166C1134.94 459.166 1133.22 458.59 1133.22 458.015C1133.22 457.44 1134.94 456.865 1137.05 456.865C1139.16 456.865 1140.88 457.44 1140.88 458.015Z" fill="#ADDF72"/>
<path d="M1015.53 426.965C1015.53 427.54 1013.81 428.115 1011.7 428.115C1009.59 428.115 1007.87 427.54 1007.87 426.965C1007.87 426.39 1009.59 425.815 1011.7 425.815C1013.81 425.815 1015.53 426.39 1015.53 426.965Z" fill="#ADDF72"/>
<path d="M1133.22 500.182C1133.22 501.524 1129.77 502.482 1125.55 502.482C1121.33 502.482 1117.88 501.524 1117.88 500.182C1117.88 498.841 1121.33 497.882 1125.55 497.882C1129.77 497.882 1133.22 499.032 1133.22 500.182Z" fill="#ADDF72"/>
<path d="M1168.29 500.182C1168.29 501.524 1164.84 502.482 1160.62 502.482C1156.41 502.482 1152.96 501.524 1152.96 500.182C1152.96 498.841 1156.41 497.882 1160.62 497.882C1164.84 497.882 1168.29 499.032 1168.29 500.182Z" fill="#ADDF72"/>
<path d="M1140.88 449.007C1145.12 449.007 1148.55 447.978 1148.55 446.707C1148.55 445.437 1145.12 444.407 1140.88 444.407C1136.65 444.407 1133.22 445.437 1133.22 446.707C1133.22 447.978 1136.65 449.007 1140.88 449.007Z" fill="#ADDF72"/>
<path d="M1137.05 506.124C1137.05 506.699 1135.32 507.274 1133.22 507.274C1131.11 507.274 1129.38 506.699 1129.38 506.124C1129.38 505.549 1131.11 504.974 1133.22 504.974C1135.32 504.974 1137.05 505.357 1137.05 506.124Z" fill="#ADDF72"/>
<path d="M1112.13 496.732C1114.25 496.732 1115.97 496.217 1115.97 495.582C1115.97 494.947 1114.25 494.432 1112.13 494.432C1110.02 494.432 1108.3 494.947 1108.3 495.582C1108.3 496.217 1110.02 496.732 1112.13 496.732Z" fill="#ADDF72"/>
<path d="M685.483 416.807C685.483 417.382 683.758 417.957 681.65 417.957C679.542 417.957 677.817 417.382 677.817 416.807C677.817 416.232 679.542 415.657 681.65 415.657C683.758 415.657 685.483 416.232 685.483 416.807Z" fill="#ADDF72"/>
<path d="M-5.80823 388.892C-5.80823 388.892 611.358 364.358 1090.53 605.283H-5.80823V388.892V388.892Z" fill="#87BC61"/>
<path d="M28.5 427.992C28.5 429.717 23.9 431.25 18.3417 431.25C12.7834 431.25 8.18336 429.908 8.18336 427.992C8.18336 426.267 12.7834 424.733 18.3417 424.733C23.9 424.925 28.5 426.267 28.5 427.992Z" fill="#ADDF72"/>
<path d="M49.7751 421.667C49.7751 423.392 45.1751 424.925 39.6167 424.925C34.0584 424.925 29.4584 423.583 29.4584 421.667C29.4584 419.75 34.0584 418.408 39.6167 418.408C45.1751 418.408 49.7751 419.942 49.7751 421.667Z" fill="#ADDF72"/>
<path d="M146.183 431.25C146.183 432.975 141.583 434.508 136.025 434.508C130.467 434.508 125.867 433.167 125.867 431.25C125.867 429.525 130.467 427.992 136.025 427.992C141.775 427.992 146.183 429.525 146.183 431.25Z" fill="#ADDF72"/>
<path d="M234.35 419.75C234.35 421.475 229.75 423.008 224.192 423.008C218.633 423.008 214.033 421.667 214.033 419.75C214.033 418.025 218.633 416.492 224.192 416.492C229.75 416.492 234.35 418.025 234.35 419.75Z" fill="#ADDF72"/>
<path d="M72.9666 432.783C72.9666 433.742 70.6666 434.317 67.9833 434.317C65.1083 434.317 63 433.55 63 432.783C63 431.825 65.3 431.25 67.9833 431.25C70.6666 431.25 72.9666 432.017 72.9666 432.783Z" fill="#ADDF72"/>
<path d="M91.7501 439.108C91.7501 440.067 89.4501 440.642 86.7667 440.642C83.8917 440.642 81.7834 439.875 81.7834 439.108C81.7834 438.15 84.0834 437.575 86.7667 437.575C89.4501 437.575 91.7501 438.342 91.7501 439.108Z" fill="#ADDF72"/>
<path d="M111.683 434.508C111.683 435.467 109.383 436.042 106.7 436.042C103.825 436.042 101.717 435.275 101.717 434.508C101.717 433.55 104.017 432.975 106.7 432.975C109.383 432.783 111.683 433.55 111.683 434.508Z" fill="#ADDF72"/>
<path d="M156.342 437.575C156.342 438.533 154.042 439.108 151.358 439.108C148.483 439.108 146.375 438.342 146.375 437.575C146.375 436.617 148.675 436.042 151.358 436.042C154.042 436.042 156.342 436.808 156.342 437.575Z" fill="#ADDF72"/>
<path d="M178.767 432.783C181.519 432.783 183.75 432.097 183.75 431.25C183.75 430.403 181.519 429.717 178.767 429.717C176.015 429.717 173.783 430.403 173.783 431.25C173.783 432.097 176.015 432.783 178.767 432.783Z" fill="#ADDF72"/>
<path d="M234.35 429.333C237.102 429.333 239.333 428.647 239.333 427.8C239.333 426.953 237.102 426.267 234.35 426.267C231.598 426.267 229.367 426.953 229.367 427.8C229.367 428.647 231.598 429.333 234.35 429.333Z" fill="#ADDF72"/>
<path d="M328.65 439.683C328.65 441.408 324.05 442.942 318.492 442.942C312.933 442.942 308.333 441.6 308.333 439.683C308.333 437.767 312.933 436.425 318.492 436.425C324.05 436.617 328.65 437.958 328.65 439.683Z" fill="#ADDF72"/>
<path d="M376.95 470.542C376.95 472.267 372.35 473.8 366.792 473.8C361.233 473.8 356.633 472.458 356.633 470.542C356.633 468.817 361.233 467.283 366.792 467.283C372.542 467.283 376.95 468.817 376.95 470.542Z" fill="#ADDF72"/>
<path d="M328.65 449.267C331.402 449.267 333.633 448.58 333.633 447.733C333.633 446.886 331.402 446.2 328.65 446.2C325.898 446.2 323.667 446.886 323.667 447.733C323.667 448.58 325.898 449.267 328.65 449.267Z" fill="#ADDF72"/>
<path d="M307.183 457.7C307.183 458.658 304.883 459.233 302.2 459.233C299.325 459.233 297.217 458.467 297.217 457.7C297.217 456.742 299.517 456.167 302.2 456.167C304.883 456.167 307.183 456.933 307.183 457.7Z" fill="#ADDF72"/>
<path d="M349.542 470.925C349.542 471.883 347.242 472.458 344.558 472.458C341.875 472.458 339.575 471.692 339.575 470.925C339.575 469.967 341.875 469.392 344.558 469.392C347.242 469.392 349.542 469.967 349.542 470.925Z" fill="#ADDF72"/>
<path d="M251.6 465.175C254.352 465.175 256.583 464.489 256.583 463.642C256.583 462.795 254.352 462.108 251.6 462.108C248.848 462.108 246.617 462.795 246.617 463.642C246.617 464.489 248.848 465.175 251.6 465.175Z" fill="#ADDF72"/>
<path d="M266.358 429.333C266.358 430.292 264.058 430.867 261.375 430.867C258.5 430.867 256.392 430.1 256.392 429.333C256.392 428.375 258.692 427.8 261.375 427.8C264.058 427.8 266.358 428.567 266.358 429.333Z" fill="#ADDF72"/>
<path d="M300.667 434.892C303.419 434.892 305.65 434.205 305.65 433.358C305.65 432.511 303.419 431.825 300.667 431.825C297.914 431.825 295.683 432.511 295.683 433.358C295.683 434.205 297.914 434.892 300.667 434.892Z" fill="#ADDF72"/>
<path d="M681.7 505.042C681.7 506.767 677.1 508.3 671.542 508.3C665.983 508.3 661.383 506.958 661.383 505.042C661.383 503.317 665.983 501.783 671.542 501.783C677.1 501.783 681.7 503.317 681.7 505.042Z" fill="#ADDF72"/>
<path d="M728.467 505.042C728.467 506.767 723.867 508.3 718.308 508.3C712.75 508.3 708.15 506.958 708.15 505.042C708.15 503.317 712.75 501.783 718.308 501.783C723.867 501.783 728.467 503.317 728.467 505.042Z" fill="#ADDF72"/>
<path d="M686.875 513.092C686.875 514.05 684.575 514.625 681.892 514.625C679.017 514.625 676.908 513.858 676.908 513.092C676.908 512.133 679.208 511.558 681.892 511.558C684.575 511.367 686.875 512.133 686.875 513.092Z" fill="#ADDF72"/>
<path d="M788.267 533.217C788.267 534.175 785.967 534.75 783.283 534.75C780.408 534.75 778.3 533.983 778.3 533.217C778.3 532.258 780.6 531.683 783.283 531.683C785.967 531.492 788.267 532.258 788.267 533.217Z" fill="#ADDF72"/>
<path d="M741.692 552.575C744.444 552.575 746.675 551.889 746.675 551.042C746.675 550.195 744.444 549.508 741.692 549.508C738.939 549.508 736.708 550.195 736.708 551.042C736.708 551.889 738.939 552.575 741.692 552.575Z" fill="#ADDF72"/>
<path d="M827.558 544.142C830.311 544.142 832.542 543.455 832.542 542.608C832.542 541.761 830.311 541.075 827.558 541.075C824.806 541.075 822.575 541.761 822.575 542.608C822.575 543.455 824.806 544.142 827.558 544.142Z" fill="#ADDF72"/>
<path d="M658.892 498.525C658.892 499.483 656.592 500.058 653.908 500.058C651.033 500.058 648.925 499.292 648.925 498.525C648.925 497.567 651.225 496.992 653.908 496.992C656.592 496.992 658.892 497.758 658.892 498.525Z" fill="#ADDF72"/>
<path d="M776.767 549.125C776.767 550.85 772.167 552.383 766.608 552.383C761.05 552.383 756.45 551.042 756.45 549.125C756.45 547.4 761.05 545.867 766.608 545.867C772.167 545.867 776.767 547.4 776.767 549.125Z" fill="#ADDF72"/>
<path d="M775.042 512.325C775.042 514.05 770.442 515.583 764.883 515.583C759.325 515.583 754.725 514.242 754.725 512.325C754.725 510.6 759.325 509.067 764.883 509.067C770.442 509.258 775.042 510.6 775.042 512.325Z" fill="#ADDF72"/>
<path d="M825.258 528.808C830.869 528.808 835.417 527.35 835.417 525.55C835.417 523.751 830.869 522.292 825.258 522.292C819.648 522.292 815.1 523.751 815.1 525.55C815.1 527.35 819.648 528.808 825.258 528.808Z" fill="#ADDF72"/>
<path d="M781.75 557.175C781.75 558.133 779.45 558.708 776.767 558.708C773.892 558.708 771.783 557.942 771.783 557.175C771.783 556.217 774.083 555.642 776.767 555.642C779.45 555.642 781.75 556.408 781.75 557.175Z" fill="#ADDF72"/>
<path d="M753.767 542.8C753.767 543.758 751.467 544.333 748.783 544.333C745.908 544.333 743.8 543.567 743.8 542.8C743.8 541.842 746.1 541.267 748.783 541.267C751.658 541.267 753.767 541.842 753.767 542.8Z" fill="#ADDF72"/>
<path d="M222.467 440.833C222.467 441.792 220.167 442.367 217.483 442.367C214.608 442.367 212.5 441.6 212.5 440.833C212.5 439.875 214.8 439.3 217.483 439.3C220.167 439.3 222.467 439.875 222.467 440.833Z" fill="#ADDF72"/>
<path d="M-5.80823 388.892V410.933C50.7334 407.292 161.133 400.775 325.2 425.117C550.025 458.275 357.208 432.783 363.533 446.775C369.858 460.767 527.792 462.108 612.317 485.108C696.842 508.108 594.683 472.267 550.025 463.45C505.367 454.442 537.183 444.283 689.942 481.275C802.067 508.492 976.675 572.892 1061.39 605.283H1090.53C611.358 364.358 -5.80823 388.892 -5.80823 388.892Z" fill="#ADDF72"/>
<path d="M138.9 556.6C138.9 556.6 182.408 548.167 234.733 539.733C259.267 535.708 285.525 531.875 310.442 528.808C387.683 519.225 549.833 487.983 501.533 467.283C453.233 446.392 414.9 446.392 426.4 434.892C437.9 423.392 350.5 405.567 350.5 405.567L378.867 408.825C378.867 408.825 438.283 418.6 443.65 428.758C449.017 438.917 436.942 437.958 467.033 444.283C497.317 450.8 551.367 463.642 550.983 489.517C550.6 515.392 339.767 567.717 339.767 567.717L138.9 556.6Z" fill="#FFE68F"/>
<path d="M142.542 556.792L339.575 567.525C339.575 567.525 550.408 515.392 550.792 489.325C550.792 484.917 549.45 481.083 546.767 477.442C550.217 484.15 544.467 488.558 540.25 492.583C536.033 496.8 528.75 497.375 518.208 496.8C507.667 496.225 506.325 508.492 490.033 516.925C473.742 525.167 398.608 547.017 386.15 547.208C373.692 547.4 408.767 531.875 397.075 532.833C385.192 533.792 349.158 541.842 355.867 544.908C362.575 548.167 363.15 548.358 337.658 552C312.167 555.45 283.417 547.208 258.117 544.908C247.383 543.95 242.208 541.458 239.908 538.775C237.992 539.158 236.267 539.35 234.35 539.733C193.717 546.25 158.45 552.767 144.65 555.45L142.542 556.792Z" fill="#FFC46E"/>
<path d="M289.742 547.208C292.282 547.208 294.342 546.522 294.342 545.675C294.342 544.828 292.282 544.142 289.742 544.142C287.201 544.142 285.142 544.828 285.142 545.675C285.142 546.522 287.201 547.208 289.742 547.208Z" fill="#FFC46E"/>
<path d="M317.15 545.292C317.15 545.867 315.617 546.442 313.7 546.442C311.783 546.442 310.25 545.867 310.25 545.292C310.25 544.717 311.783 544.142 313.7 544.142C315.617 544.142 317.15 544.717 317.15 545.292Z" fill="#FFC46E"/>
<path d="M324.05 540.692C324.05 541.267 322.517 541.842 320.6 541.842C318.683 541.842 317.15 541.267 317.15 540.692C317.15 540.117 318.683 539.542 320.6 539.542C322.517 539.542 324.05 540.117 324.05 540.692Z" fill="#FFC46E"/>
<path d="M350.117 546.442C350.117 547.017 348.583 547.592 346.667 547.592C344.75 547.592 343.217 547.017 343.217 546.442C343.217 545.867 344.75 545.292 346.667 545.292C348.583 545.292 350.117 545.675 350.117 546.442Z" fill="#FFC46E"/>
<path d="M353.95 541.842C355.856 541.842 357.4 541.327 357.4 540.692C357.4 540.057 355.856 539.542 353.95 539.542C352.045 539.542 350.5 540.057 350.5 540.692C350.5 541.327 352.045 541.842 353.95 541.842Z" fill="#FFC46E"/>
<path d="M408.192 538.583C408.192 539.158 406.658 539.733 404.742 539.733C402.825 539.733 401.292 539.158 401.292 538.583C401.292 538.008 402.825 537.433 404.742 537.433C406.658 537.433 408.192 537.817 408.192 538.583Z" fill="#FFC46E"/>
<path d="M429.85 533.792C429.85 534.367 428.317 534.942 426.4 534.942C424.483 534.942 422.95 534.367 422.95 533.792C422.95 533.217 424.483 532.642 426.4 532.642C428.317 532.833 429.85 533.217 429.85 533.792Z" fill="#FFC46E"/>
<path d="M454.192 523.442C454.192 524.017 452.658 524.592 450.742 524.592C448.825 524.592 447.292 524.017 447.292 523.442C447.292 522.867 448.825 522.292 450.742 522.292C452.658 522.483 454.192 522.867 454.192 523.442Z" fill="#FFC46E"/>
<path d="M486.2 503.508C488.105 503.508 489.65 502.994 489.65 502.358C489.65 501.723 488.105 501.208 486.2 501.208C484.295 501.208 482.75 501.723 482.75 502.358C482.75 502.994 484.295 503.508 486.2 503.508Z" fill="#FFC46E"/>
<path d="M458.983 525.742C460.889 525.742 462.433 525.227 462.433 524.592C462.433 523.957 460.889 523.442 458.983 523.442C457.078 523.442 455.533 523.957 455.533 524.592C455.533 525.227 457.078 525.742 458.983 525.742Z" fill="#FFC46E"/>
<path d="M494.25 507.725C494.25 508.3 492.717 508.875 490.8 508.875C488.883 508.875 487.35 508.3 487.35 507.725C487.35 507.15 488.883 506.575 490.8 506.575C492.717 506.767 494.25 507.15 494.25 507.725Z" fill="#FFC46E"/>
<path d="M346.667 541.267C346.667 541.65 345.9 541.842 344.942 541.842C343.983 541.842 343.217 541.65 343.217 541.267C343.217 540.883 343.983 540.692 344.942 540.692C345.9 540.692 346.667 540.883 346.667 541.267Z" fill="#FFC46E"/>
<path d="M412.025 536.283C412.978 536.283 413.75 536.026 413.75 535.708C413.75 535.391 412.978 535.133 412.025 535.133C411.072 535.133 410.3 535.391 410.3 535.708C410.3 536.026 411.072 536.283 412.025 536.283Z" fill="#FFC46E"/>
<path d="M447.292 528.808C448.244 528.808 449.017 528.551 449.017 528.233C449.017 527.916 448.244 527.658 447.292 527.658C446.339 527.658 445.567 527.916 445.567 528.233C445.567 528.551 446.339 528.808 447.292 528.808Z" fill="#FFC46E"/>
<path d="M526.067 491.433C526.067 492.008 524.533 492.583 522.617 492.583C520.7 492.583 519.167 492.008 519.167 491.433C519.167 490.858 520.7 490.283 522.617 490.283C524.533 490.475 526.067 490.858 526.067 491.433Z" fill="#FFC46E"/>
<path d="M534.308 492.583C534.308 493.158 532.775 493.733 530.858 493.733C528.942 493.733 527.408 493.158 527.408 492.583C527.408 492.008 528.942 491.433 530.858 491.433C532.775 491.433 534.308 492.008 534.308 492.583Z" fill="#FFC46E"/>
<path d="M501.917 461.725C501.917 462.3 500.383 462.875 498.467 462.875C496.55 462.875 495.017 462.3 495.017 461.725C495.017 461.15 496.55 460.575 498.467 460.575C500.383 460.575 501.917 461.15 501.917 461.725Z" fill="#FFC46E"/>
<path d="M436.75 440.258C436.75 440.833 435.217 441.408 433.3 441.408C431.383 441.408 429.85 440.833 429.85 440.258C429.85 439.683 431.383 439.108 433.3 439.108C435.217 439.108 436.75 439.683 436.75 440.258Z" fill="#FFC46E"/>
<path d="M510.158 462.875C510.158 463.45 508.625 464.025 506.708 464.025C504.792 464.025 503.258 463.45 503.258 462.875C503.258 462.3 504.792 461.725 506.708 461.725C508.625 461.725 510.158 462.3 510.158 462.875Z" fill="#FFC46E"/>
<path d="M520.892 493.733C520.892 494.117 520.125 494.308 519.167 494.308C518.208 494.308 517.442 494.117 517.442 493.733C517.442 493.35 518.208 493.158 519.167 493.158C520.125 493.158 520.892 493.35 520.892 493.733Z" fill="#FFC46E"/>
<path d="M482.75 507.725C482.75 508.108 481.983 508.3 481.025 508.3C480.067 508.3 479.3 508.108 479.3 507.725C479.3 507.342 480.067 507.15 481.025 507.15C481.983 507.15 482.75 507.533 482.75 507.725Z" fill="#FFC46E"/>
<path d="M511.883 494.308C511.883 494.692 511.117 494.883 510.158 494.883C509.2 494.883 508.433 494.692 508.433 494.308C508.433 493.925 509.2 493.733 510.158 493.733C511.117 493.733 511.883 493.925 511.883 494.308Z" fill="#FFC46E"/>
<path d="M490.8 498.525C491.753 498.525 492.525 498.268 492.525 497.95C492.525 497.632 491.753 497.375 490.8 497.375C489.847 497.375 489.075 497.632 489.075 497.95C489.075 498.268 489.847 498.525 490.8 498.525Z" fill="#FFC46E"/>
<path d="M503.45 464.408C503.45 464.792 502.683 464.983 501.725 464.983C500.767 464.983 500 464.792 500 464.408C500 464.025 500.767 463.833 501.725 463.833C502.683 463.833 503.45 464.217 503.45 464.408Z" fill="#FFC46E"/>
<path d="M493.675 459.425C493.675 459.808 492.908 460 491.95 460C490.992 460 490.225 459.808 490.225 459.425C490.225 459.042 490.992 458.85 491.95 458.85C492.908 458.85 493.675 459.042 493.675 459.425Z" fill="#FFC46E"/>
<path d="M484.475 456.358C484.475 456.742 483.708 456.933 482.75 456.933C481.792 456.933 481.025 456.742 481.025 456.358C481.025 455.975 481.792 455.783 482.75 455.783C483.708 455.783 484.475 456.167 484.475 456.358Z" fill="#FFC46E"/>
<path d="M489.075 458.083C490.028 458.083 490.8 457.826 490.8 457.508C490.8 457.191 490.028 456.933 489.075 456.933C488.122 456.933 487.35 457.191 487.35 457.508C487.35 457.826 488.122 458.083 489.075 458.083Z" fill="#FFC46E"/>
<path d="M459.75 449.075C459.75 449.458 458.983 449.65 458.025 449.65C457.067 449.65 456.3 449.458 456.3 449.075C456.3 448.692 457.067 448.5 458.025 448.5C458.983 448.5 459.75 448.692 459.75 449.075Z" fill="#FFC46E"/>
<path d="M463.008 448.5C463.961 448.5 464.733 448.243 464.733 447.925C464.733 447.608 463.961 447.35 463.008 447.35C462.056 447.35 461.283 447.608 461.283 447.925C461.283 448.243 462.056 448.5 463.008 448.5Z" fill="#FFC46E"/>
<path d="M439.05 442.75C439.05 443.133 438.283 443.325 437.325 443.325C436.367 443.325 435.6 443.133 435.6 442.75C435.6 442.367 436.367 442.175 437.325 442.175C438.283 442.367 439.05 442.558 439.05 442.75Z" fill="#FFC46E"/>
<path d="M429.85 437.192C429.85 437.575 429.083 437.767 428.125 437.767C427.167 437.767 426.4 437.575 426.4 437.192C426.4 436.808 427.167 436.617 428.125 436.617C429.083 436.617 429.85 437 429.85 437.192Z" fill="#FFC46E"/>
<path d="M433.3 434.317C434.253 434.317 435.025 434.059 435.025 433.742C435.025 433.424 434.253 433.167 433.3 433.167C432.347 433.167 431.575 433.424 431.575 433.742C431.575 434.059 432.347 434.317 433.3 434.317Z" fill="#FFC46E"/>
<path d="M471.442 452.142C471.442 452.525 470.675 452.717 469.717 452.717C468.758 452.717 467.992 452.525 467.992 452.142C467.992 451.758 468.758 451.567 469.717 451.567C470.675 451.567 471.442 451.758 471.442 452.142Z" fill="#FFC46E"/>
<path d="M361.425 535.517C364.495 535.517 366.983 534.744 366.983 533.792C366.983 532.839 364.495 532.067 361.425 532.067C358.355 532.067 355.867 532.839 355.867 533.792C355.867 534.744 358.355 535.517 361.425 535.517Z" fill="#FFC46E"/>
<path d="M431.958 529.958C435.028 529.958 437.517 529.186 437.517 528.233C437.517 527.281 435.028 526.508 431.958 526.508C428.889 526.508 426.4 527.281 426.4 528.233C426.4 529.186 428.889 529.958 431.958 529.958Z" fill="#FFC46E"/>
<path d="M503.45 501.208C503.45 502.167 500.958 502.933 497.892 502.933C494.825 502.933 492.333 502.167 492.333 501.208C492.333 500.25 494.825 499.483 497.892 499.483C500.958 499.483 503.45 500.25 503.45 501.208Z" fill="#FFC46E"/>
<path d="M309.675 540.308C309.675 541.65 306.033 542.992 301.625 543.183C297.025 543.375 293.383 542.417 293.192 541.075C293.192 539.733 296.833 538.392 301.242 538.2C305.842 538.008 309.675 538.967 309.675 540.308Z" fill="#FFC46E"/>
<path d="M219.4 547.784C218.442 547.784 217.675 547.017 217.675 546.059V522.867C217.675 521.909 218.442 521.142 219.4 521.142C220.358 521.142 221.125 521.909 221.125 522.867V546.059C221.125 547.017 220.358 547.784 219.4 547.784Z" fill="#542032"/>
<path d="M270.192 541.842C269.233 541.842 268.467 541.075 268.467 540.117V516.925C268.467 515.967 269.233 515.2 270.192 515.2C271.15 515.2 271.917 515.967 271.917 516.925V540.117C271.917 541.075 271.15 541.842 270.192 541.842Z" fill="#542032"/>
<path d="M329.033 535.708C328.075 535.708 327.308 534.942 327.308 533.983V510.792C327.308 509.833 328.075 509.067 329.033 509.067C329.992 509.067 330.758 509.833 330.758 510.792V533.983C330.567 534.942 329.8 535.708 329.033 535.708Z" fill="#542032"/>
<path d="M384.042 525.742C383.083 525.742 382.317 524.975 382.317 524.017V500.825C382.317 499.867 383.083 499.1 384.042 499.1C385 499.1 385.767 499.867 385.767 500.825V524.017C385.767 524.975 385 525.742 384.042 525.742Z" fill="#542032"/>
<path d="M429.85 516.733C428.892 516.733 428.125 515.967 428.125 515.008V491.817C428.125 490.858 428.892 490.092 429.85 490.092C430.808 490.092 431.575 490.858 431.575 491.817V515.008C431.575 515.967 430.808 516.733 429.85 516.733Z" fill="#542032"/>
<path d="M469.717 510.025C468.758 510.025 467.992 509.258 467.992 508.3V485.108C467.992 484.15 468.758 483.383 469.717 483.383C470.675 483.383 471.442 484.15 471.442 485.108V508.3C471.442 509.258 470.675 510.025 469.717 510.025Z" fill="#542032"/>
<path d="M493.292 499.675C492.525 499.675 491.95 499.1 491.95 498.333V478.783C491.95 478.017 492.525 477.442 493.292 477.442C494.058 477.442 494.633 478.017 494.633 478.783V498.333C494.633 499.1 494.058 499.675 493.292 499.675Z" fill="#542032"/>
<path d="M506.708 491.433C505.942 491.433 505.367 490.858 505.367 490.092V471.692C505.367 470.925 505.942 470.35 506.708 470.35C507.475 470.35 508.05 470.925 508.05 471.692V490.092C508.05 490.858 507.283 491.433 506.708 491.433Z" fill="#542032"/>
<path d="M502.3 468.242V459.617C502.3 459.233 501.917 458.85 501.533 458.85C501.15 458.85 500.767 459.233 500.767 459.617V468.242C501.342 468.242 501.725 468.242 502.3 468.242Z" fill="#542032"/>
<path d="M492.333 464.6V455.975C492.333 455.592 491.95 455.208 491.567 455.208C491.183 455.208 490.8 455.592 490.8 455.975V464.6C491.183 464.792 491.758 464.792 492.333 464.6Z" fill="#542032"/>
<path d="M482.558 460.575V451.95C482.558 451.567 482.175 451.183 481.792 451.183C481.408 451.183 481.025 451.567 481.025 451.95V460.575C481.408 460.575 481.983 460.575 482.558 460.575Z" fill="#542032"/>
<path d="M471.25 457.317V449.458C471.25 449.075 470.867 448.692 470.483 448.692C470.1 448.692 469.717 449.075 469.717 449.458V457.317C470.292 457.317 470.675 457.317 471.25 457.317Z" fill="#542032"/>
<path d="M458.025 453.867V446.583C458.025 446.2 457.833 446.008 457.45 446.008C457.067 446.008 456.875 446.2 456.875 446.583V453.867C457.067 453.867 457.642 453.867 458.025 453.867Z" fill="#542032"/>
<path d="M442.883 448.883V441.6C442.883 441.217 442.692 441.025 442.308 441.025C441.925 441.025 441.733 441.217 441.733 441.6V448.883C441.925 449.075 442.5 449.075 442.883 448.883Z" fill="#542032"/>
<path d="M432.725 445.817V439.108C432.725 438.725 432.533 438.533 432.15 438.533C431.767 438.533 431.575 438.725 431.575 439.108V445.817C431.958 445.817 432.342 445.817 432.725 445.817Z" fill="#542032"/>
<path d="M424.867 441.792V435.083C424.867 434.7 424.675 434.508 424.292 434.508C423.908 434.508 423.717 434.7 423.717 435.083V441.792C423.908 441.792 424.292 441.792 424.867 441.792Z" fill="#542032"/>
<path d="M426.4 433.55V427.417C426.4 427.033 426.208 426.842 425.825 426.842C425.442 426.842 425.25 427.033 425.25 427.417V433.55C425.442 433.742 425.825 433.742 426.4 433.55Z" fill="#542032"/>
<path d="M417.392 426.842V421.092C417.392 420.9 417.2 420.517 416.817 420.517C416.625 420.517 416.242 420.708 416.242 421.092V426.842C416.625 426.842 417.008 426.842 417.392 426.842Z" fill="#542032"/>
<path d="M405.125 420.9V417.258C405.125 417.067 404.933 416.875 404.742 416.875C404.55 416.875 404.358 417.067 404.358 417.258V420.9C404.55 420.9 404.742 420.9 405.125 420.9Z" fill="#542032"/>
<path d="M392.283 416.3V414C392.283 413.808 392.283 413.808 392.092 413.808C391.9 413.808 391.9 413.808 391.9 414V416.3C392.092 416.3 392.092 416.3 392.283 416.3Z" fill="#542032"/>
<path d="M501.725 465.558C501.725 465.558 506.517 474.375 506.708 479.167" stroke="#542032" stroke-width="0.575" stroke-miterlimit="10"/>
<path d="M501.917 463.258C501.917 463.258 505.175 469.392 507.284 472.842" stroke="#542032" stroke-width="0.575" stroke-miterlimit="10"/>
<path d="M221.125 526.316C221.125 526.316 249.875 528.617 269.425 520.183C269.425 520.183 299.708 527.466 329.033 514.05C329.033 514.05 371.775 514.625 383.467 505.042C383.467 505.042 418.35 506.575 429.083 495.075C429.083 495.075 455.342 498.908 468.758 488.75C468.758 488.75 485.242 488.75 493.292 481.275C493.292 481.275 500.575 481.275 506.708 473.608" stroke="#542032" stroke-width="0.958333" stroke-miterlimit="10"/>
<path d="M219.4 535.708C219.4 535.708 255.817 536.858 269.425 528.617C269.425 528.617 311.208 529.958 329.033 520.567C329.033 520.567 370.817 520.183 383.275 510.983C383.275 510.983 418.158 511.367 429.85 502.358C429.85 502.358 460.325 501.208 469.717 492.583C469.717 492.583 484.667 491.817 493.292 484.725C493.292 484.725 505.175 482.233 506.708 476.675" stroke="#542032" stroke-width="0.958333" stroke-miterlimit="10"/>
<path d="M501.15 462.108C499.425 461.917 497.7 461.533 495.975 460.958C494.25 460.383 492.717 459.617 491.567 458.275H491.758C489.842 458.083 488.117 457.892 486.392 457.317C484.667 456.742 482.942 455.975 481.6 454.442L481.792 454.633C479.875 454.442 477.958 454.058 476.042 453.675C475.083 453.483 474.125 453.292 473.167 452.908C472.208 452.525 471.25 452.333 470.483 451.758H470.675C468.375 451.758 466.075 451.567 463.775 451.183C461.475 450.8 459.175 450.225 457.258 448.883H457.45C454.767 448.5 452.083 447.925 449.4 447.158C446.717 446.392 444.225 445.242 442.117 443.325H442.308C440.583 443.133 439.05 442.942 437.325 442.75C436.558 442.558 435.6 442.367 434.833 442.175C434.067 441.983 433.3 441.6 432.533 441.025H432.725C431.192 440.833 429.467 440.258 427.933 439.683C426.4 439.108 424.867 438.15 424.1 436.617V436.425L425.25 427.992L425.442 428.375C423.717 427.8 422.183 426.842 420.65 425.883C419.117 424.925 417.775 423.583 416.817 422.05L417.008 422.242C414.9 422.05 412.6 421.667 410.492 420.9C409.342 420.517 408.383 420.325 407.425 419.75C406.467 419.367 405.508 418.792 404.55 417.833H404.742C402.633 417.45 400.333 417.067 398.225 416.492C396.117 415.917 394.008 415.15 392.092 414C392.092 414 392.092 414 392.092 413.808C392.092 413.808 392.092 413.808 392.283 413.808C394.2 414.958 396.308 415.533 398.417 416.108C400.525 416.683 402.633 416.875 404.933 417.258H405.125C405.892 418.025 406.85 418.6 407.808 418.983C408.767 419.367 409.725 419.75 410.875 420.133C412.983 420.708 415.092 421.092 417.2 421.283C417.2 421.283 417.392 421.283 417.392 421.475C418.35 423.008 419.692 424.158 421.225 425.117C422.758 426.075 424.292 426.842 426.017 427.608C426.208 427.608 426.208 427.8 426.208 427.992L425.058 436.425V436.233C425.825 437.575 427.167 438.533 428.508 439.108C430.042 439.683 431.575 440.067 433.108 440.45H433.3C433.875 440.833 434.642 441.217 435.408 441.408C436.175 441.6 436.942 441.792 437.708 441.983C439.242 442.175 440.967 442.558 442.5 442.558H442.692C444.608 444.283 447.292 445.433 449.783 446.2C452.275 446.967 454.958 447.542 457.642 447.925C457.642 447.925 457.642 447.925 457.833 447.925C459.75 449.075 462.05 449.65 464.158 450.225C466.458 450.608 468.758 450.8 471.058 450.8H471.25C472.017 451.375 472.975 451.567 473.742 451.95C474.7 452.333 475.467 452.525 476.425 452.717C478.342 453.1 480.258 453.483 481.983 453.675C481.983 453.675 482.175 453.675 482.175 453.867C483.325 455.208 485.05 455.975 486.775 456.55C488.5 457.125 490.225 457.317 492.142 457.508H492.333C493.483 458.658 495.017 459.425 496.55 460C498.083 460.575 499.808 460.958 501.533 460.958C501.725 460.958 501.725 461.15 501.725 461.342C501.533 461.917 501.342 462.108 501.15 462.108Z" fill="#542032"/>
<path d="M501.342 465.367C499.617 465.367 497.892 465.175 496.167 464.792C494.442 464.217 492.908 463.45 491.758 462.108L491.95 462.3C490.033 462.108 488.308 461.725 486.583 461.342C484.858 460.767 483.133 460 481.792 458.658L481.983 458.85C480.067 458.467 478.15 458.083 476.042 457.7C475.083 457.508 474.125 457.125 473.167 456.742C472.208 456.358 471.25 455.975 470.483 455.208L470.675 455.4C468.375 455.592 466.075 455.4 463.775 455.017C461.475 454.633 459.175 453.867 457.45 452.333H457.642C454.958 452.142 452.275 451.758 449.592 450.992C448.25 450.608 446.908 450.225 445.758 449.65C444.608 449.075 443.267 448.308 442.308 447.158L442.5 447.35C440.775 447.158 438.858 446.967 437.133 446.583C435.408 446.2 433.683 445.625 432.15 444.475C430.808 443.9 429.275 443.325 427.933 442.75C426.592 442.175 425.25 441.408 424.1 440.45C424.1 440.45 423.908 440.258 424.1 440.258L425.633 431.442L425.825 431.825C424.1 431.442 422.375 430.675 420.65 429.717C419.117 428.758 417.583 427.417 416.817 425.883L417.008 426.075C414.708 425.5 412.6 424.925 410.492 424.158C408.383 423.392 406.275 422.242 404.55 420.708H404.742C402.442 420.708 400.333 419.942 398.225 419.367C396.117 418.6 394.008 417.642 392.092 416.492C392.092 416.492 392.092 416.492 392.092 416.3C392.092 416.3 392.092 416.3 392.283 416.3C394.2 417.45 396.308 418.217 398.417 418.983C400.525 419.558 402.633 420.133 404.933 420.133H405.125C406.658 421.667 408.767 422.625 410.875 423.392C412.983 424.158 415.092 424.925 417.2 425.308C417.2 425.308 417.392 425.308 417.392 425.5C418.158 427.033 419.5 428.183 421.033 429.142C422.567 430.1 424.292 430.675 426.017 431.058C426.208 431.058 426.208 431.25 426.208 431.442L424.675 440.258V440.067C425.825 441.025 427.167 441.792 428.508 442.367C429.85 442.942 431.192 443.517 432.533 444.092C433.875 445.05 435.6 445.625 437.325 446.008C439.05 446.392 440.775 446.583 442.5 446.775C442.5 446.775 442.692 446.775 442.692 446.967C443.458 447.925 444.608 448.692 445.95 449.267C447.1 449.842 448.442 450.225 449.783 450.608C452.467 451.375 455.15 451.758 457.833 451.95H458.025C459.75 453.292 461.858 454.058 464.158 454.442C466.458 454.825 468.758 455.017 470.867 454.825H471.058C471.633 455.4 472.592 455.783 473.55 456.167C474.508 456.55 475.467 456.742 476.425 456.933C478.342 457.508 480.258 457.892 482.175 458.083C482.175 458.083 482.367 458.083 482.367 458.275C483.517 459.617 485.242 460.383 486.967 460.767C488.692 461.342 490.417 461.533 492.142 461.725C492.142 461.725 492.333 461.725 492.333 461.917C493.292 463.258 494.825 464.025 496.55 464.408C498.083 464.792 499.808 464.983 501.533 464.983C501.725 464.983 501.917 465.175 501.917 465.175C501.533 465.175 501.342 465.367 501.342 465.367Z" fill="#542032"/>
<path d="M-2.35825 540.558C-2.35825 540.558 177.808 535.192 459.558 573.142C741.308 611.092 1115.06 509.508 1469.64 509.508V607.067H-2.35825V540.558V540.558Z" fill="#56664B"/>
<path d="M133.9 447.934C133.9 447.934 135.433 444.484 134.858 439.309C134.475 434.134 131.408 431.834 131.408 431.834L132.367 430.492C132.367 430.492 135.817 433.559 136.967 432.792C138.117 432.217 142.333 427.234 139.65 422.059C136.967 416.884 136.967 416.884 136.967 416.884L139.075 416.5C139.075 416.5 141.183 421.1 142.142 421.1C143.292 421.292 144.442 417.459 144.442 417.459L148.275 418.417C148.275 418.417 142.908 425.7 142.717 427.809C142.525 429.917 140.417 432.792 142.333 433.367C144.25 433.75 146.167 432.409 146.167 432.409L147.508 434.9C147.508 434.9 142.717 435.859 142.142 437.009C141.567 438.159 142.142 447.55 142.142 447.55C142.142 447.55 139.075 449.275 133.9 447.934Z" fill="#7B4C3E"/>
<path d="M136.008 442.375C136.008 442.375 111.475 441.034 116.842 434.517C120.1 430.684 121.25 428.959 120.292 427.425C119.333 425.892 120.292 420.525 122.208 418.992C124.125 417.459 121.442 407.109 123.358 404.425C125.275 401.742 129.875 395.225 128.917 390.05C127.958 385.067 129.683 382.384 131.217 378.359C132.75 374.142 125.658 372.034 132.75 364.367C133.9 363.025 135.817 355.167 134.283 349.8C132.942 344.434 139.267 350.759 141.375 357.084C143.483 363.217 142.908 373.184 145.783 376.25C148.467 379.317 152.683 383.342 149.042 386.217C145.208 389.092 154.6 396.184 153.45 399.442C152.3 402.7 152.492 407.684 153.642 409.409C154.6 410.942 163.033 413.434 157.858 419.375C152.875 425.317 156.708 426.659 159.583 428.575C162.267 430.492 165.333 437.775 156.708 439.692C148.275 441.034 141.95 442.567 136.008 442.375Z" fill="#5A7D52"/>
<path opacity="0.37" d="M138.5 452.15C150.885 452.15 160.925 450.262 160.925 447.933C160.925 445.605 150.885 443.717 138.5 443.717C126.115 443.717 116.075 445.605 116.075 447.933C116.075 450.262 126.115 452.15 138.5 452.15Z" fill="#56664B"/>
<path opacity="0.23" d="M159.583 428C158.625 427.425 157.667 426.85 156.9 426.084C156.708 427.234 158.05 429.917 155.558 429.725C151.725 429.342 151.533 418.609 148.467 422.634C145.4 426.659 133.9 424.55 131.6 422.059C129.3 419.375 136.392 415.35 136.008 412.475C135.625 409.6 129.683 411.325 128.917 408.834C128.15 406.15 138.117 398.292 135.625 397.142C133.133 395.992 128.917 384.492 128.917 384.492C128.533 386.025 128.533 387.75 128.917 389.859C129.875 394.842 125.467 401.359 123.358 404.234C121.442 406.917 124.125 417.459 122.208 418.8C120.292 420.334 119.525 425.7 120.292 427.234C121.25 428.767 120.1 430.492 116.842 434.325C111.475 440.842 136.008 442.184 136.008 442.184C141.95 442.375 148.275 440.842 156.708 438.925C165.333 437.392 162.267 429.917 159.583 428Z" fill="#3A5C31"/>
<path opacity="0.26" d="M141.567 365.134C142.908 373.184 140.033 372.609 141.567 374.909C143.1 377.209 147.125 378.359 145.592 380.084C144.058 382 139.842 386.792 142.908 389.475C145.975 392.159 151.533 392.925 149.808 398.484C148.083 404.042 144.442 408.259 147.7 409.217C150.575 410.175 157.092 411.9 159.583 415.542C159.775 411.9 154.6 410.175 153.642 408.834C152.683 407.3 152.3 402.125 153.45 398.867C154.6 395.609 145.4 388.517 149.042 385.642C152.875 382.767 148.658 378.742 145.783 375.675C143.1 372.609 143.483 362.834 141.375 356.509C139.267 350.375 132.75 344.05 134.283 349.225C134.667 350.759 134.858 352.292 134.858 354.017C137.158 356.317 140.608 359.767 141.567 365.134Z" fill="#DCFFB6"/>
<path d="M6.07494 563.117C6.07494 563.117 7.9916 558.9 7.4166 552.384C6.8416 545.867 3.19994 542.992 3.19994 542.992L4.34994 541.267C4.34994 541.267 8.56661 545.1 10.0999 544.334C11.6333 543.567 16.8083 537.434 13.5499 530.917C10.2916 524.4 10.2916 524.4 10.2916 524.4L12.9749 523.825C12.9749 523.825 15.6583 529.575 16.9999 529.767C18.3416 529.959 19.8749 525.167 19.8749 525.167L24.6666 526.317C24.6666 526.317 17.9583 535.517 17.7666 538.009C17.5749 540.692 14.8916 544.334 17.1916 544.909C19.4916 545.484 21.9833 543.759 21.9833 543.759L23.7083 547.017C23.7083 547.017 17.7666 548.167 16.9999 549.7C16.2333 551.234 17.1916 562.925 17.1916 562.925C17.1916 562.925 12.7833 565.034 6.07494 563.117Z" fill="#56664B"/>
<path d="M8.75829 556.217C8.75829 556.217 -21.9084 554.492 -15.2 546.442C-11.175 541.65 -9.83337 539.542 -10.9834 537.433C-12.1334 535.325 -10.9834 528.617 -8.68337 526.892C-6.38337 524.975 -9.83337 511.942 -7.15004 508.492C-4.65837 505.042 0.899956 496.992 -0.250044 490.475C-1.40004 484.15 0.708289 480.892 2.62496 475.717C4.73329 470.542 -4.27504 467.858 4.73329 458.083C6.26663 456.358 8.56662 446.583 6.84162 439.875C5.11662 433.167 13.1666 441.217 15.85 448.883C18.5333 456.55 17.9583 469.008 21.4083 472.842C24.8583 476.675 30.225 481.85 25.4333 485.3C20.8333 488.75 32.3333 497.758 30.9916 501.783C29.4583 505.808 29.8416 512.133 31.1833 514.242C32.525 516.35 42.875 519.417 36.55 526.7C30.225 534.175 35.2083 535.9 38.6583 538.2C42.1083 540.5 45.9416 549.7 35.2083 552C24.475 554.3 16.2333 556.408 8.75829 556.217Z" fill="#56664B"/>
<path opacity="0.37" d="M40.1917 563.308C40.1917 566.183 27.5417 568.675 12.0167 568.675C-3.50834 568.675 -16.1583 566.183 -16.1583 563.308C-16.1583 560.433 -3.50834 557.942 12.0167 557.942C27.5417 557.942 40.1917 560.242 40.1917 563.308Z" fill="#56664B"/>
<path opacity="0.26" d="M15.6583 459.425C17.3833 469.392 13.7417 468.817 15.6583 471.692C17.575 474.567 22.5584 475.908 20.6417 478.208C18.725 480.508 13.55 486.642 17.3834 489.9C21.2167 493.158 28.1167 494.308 26.0084 501.208C23.9 508.108 19.3 513.283 23.325 514.625C26.9667 515.775 35.0167 518.075 38.0833 522.483C38.4667 517.883 31.7584 515.583 30.8 514.05C29.4584 511.942 29.2667 505.617 30.6084 501.592C32.1417 497.567 20.45 488.558 25.05 485.108C29.65 481.658 24.475 476.483 21.025 472.65C17.575 468.817 18.15 456.55 15.4667 448.692C12.7834 441.025 4.73335 432.975 6.45835 439.683C6.84168 441.6 7.03335 443.517 7.03335 445.625C10.2917 448.308 14.7 452.908 15.6583 459.425Z" fill="#56664B"/>
<path d="M49.2 554.492C49.2 554.492 51.1166 550.275 50.5416 543.758C49.9666 537.242 46.325 534.367 46.325 534.367L47.475 532.642C47.475 532.642 51.6916 536.475 53.225 535.708C54.7583 534.942 59.9333 528.808 56.675 522.292C53.4166 515.775 53.4166 515.775 53.4166 515.775L56.1 515.2C56.1 515.2 58.7833 520.95 60.125 521.142C61.4666 521.333 63 516.542 63 516.542L67.7916 517.692C67.7916 517.692 61.0833 526.892 60.8916 529.383C60.7 532.067 58.0166 535.708 60.3166 536.283C62.6166 536.858 65.1083 535.133 65.1083 535.133L66.8333 538.392C66.8333 538.392 60.8916 539.542 60.125 541.075C59.3583 542.608 60.3166 554.3 60.3166 554.3C60.3166 554.3 55.9083 556.408 49.2 554.492Z" fill="#56664B"/>
<path d="M51.8833 547.592C51.8833 547.592 21.2166 545.867 27.925 537.817C31.95 533.025 33.2916 530.917 32.1416 528.808C30.9916 526.7 32.1417 519.992 34.4417 518.267C36.7417 516.35 33.2916 503.317 35.975 499.867C38.4666 496.417 44.025 488.367 42.875 481.85C41.725 475.525 43.8333 472.267 45.75 467.092C47.8583 461.917 38.85 459.233 47.8583 449.458C49.3916 447.733 51.6916 437.958 49.9666 431.25C48.2416 424.542 56.2916 432.592 58.975 440.258C61.6583 447.925 61.0833 460.383 64.5333 464.217C67.9833 468.05 73.35 473.225 68.5583 476.675C63.9583 480.125 75.4583 489.133 74.1166 493.158C72.5833 497.183 72.9666 503.508 74.3083 505.617C75.65 507.725 86 510.792 79.675 518.075C73.35 525.55 78.3333 527.275 81.7833 529.575C85.2333 531.875 89.0666 541.075 78.3333 543.375C67.2167 545.867 59.3583 547.783 51.8833 547.592Z" fill="#56664B"/>
<path opacity="0.37" d="M83.3167 554.683C83.3167 557.558 70.6667 560.05 55.1417 560.05C39.6167 560.05 26.9667 557.75 26.9667 554.683C26.9667 551.808 39.6167 549.317 55.1417 549.317C70.6667 549.317 83.3167 551.617 83.3167 554.683Z" fill="#56664B"/>
<path opacity="0.26" d="M58.7833 450.8C60.5083 460.767 56.8666 460.192 58.7833 463.067C60.7 465.942 65.6833 467.283 63.7666 469.583C61.85 471.883 56.675 478.017 60.5083 481.275C64.3416 484.533 71.2416 485.683 69.1333 492.583C67.025 499.483 62.425 504.658 66.45 506C70.0916 507.15 78.1416 509.45 81.2083 513.858C81.5916 509.258 74.8833 506.958 73.925 505.425C72.5833 503.317 72.3916 496.992 73.7333 492.967C75.2666 488.942 63.575 479.933 68.175 476.483C72.775 473.033 67.6 467.858 64.15 464.025C60.7 460.192 61.275 447.925 58.5916 440.067C55.9083 432.4 47.8583 424.35 49.5833 431.058C49.9666 432.975 50.1583 434.892 50.1583 437C53.4166 439.683 57.825 444.283 58.7833 450.8Z" fill="#56664B"/>
<path d="M1335.47 536.283C1335.47 536.283 1338.16 530.15 1337.2 520.758C1336.43 511.367 1331.07 507.342 1331.07 507.342L1332.79 505.042C1332.79 505.042 1338.92 510.408 1341.22 509.45C1343.52 508.3 1350.81 499.483 1346.02 490.092C1341.22 480.7 1341.22 480.7 1341.22 480.7L1345.06 479.933C1345.06 479.933 1348.89 488.175 1350.81 488.367C1352.72 488.558 1354.83 481.85 1354.83 481.85L1361.73 483.575C1361.73 483.575 1351.96 496.8 1351.77 500.633C1351.57 504.467 1347.74 509.833 1351 510.6C1354.26 511.367 1357.9 508.875 1357.9 508.875L1360.39 513.475C1360.39 513.475 1351.77 515.2 1350.62 517.308C1349.47 519.608 1350.81 536.283 1350.81 536.283C1350.81 536.283 1345.25 538.967 1335.47 536.283Z" fill="#56664B"/>
<path d="M1339.5 526.317C1339.5 526.317 1295.22 523.825 1305 512.133C1310.75 505.042 1312.86 502.167 1311.13 499.1C1309.41 496.225 1311.13 486.45 1314.39 483.767C1317.65 481.083 1312.86 462.3 1316.5 457.317C1320.14 452.333 1328.19 440.642 1326.47 431.442C1324.74 422.242 1327.81 417.642 1330.68 410.167C1333.56 402.692 1320.72 398.858 1333.56 384.675C1335.67 382.183 1338.92 368 1336.43 358.417C1333.94 348.833 1345.63 360.333 1349.47 371.45C1353.3 382.567 1352.34 400.583 1357.32 405.95C1362.31 411.317 1369.97 418.792 1363.27 423.967C1356.56 428.95 1373.23 441.983 1371.12 447.733C1369.02 453.675 1369.4 462.683 1371.32 465.75C1373.23 468.625 1388.18 473.225 1378.98 483.958C1369.78 494.692 1376.88 497.183 1381.86 500.442C1386.84 503.7 1392.21 517.117 1376.87 520.567C1361.54 523.825 1350.23 526.508 1339.5 526.317Z" fill="#56664B"/>
<path opacity="0.37" d="M1344.1 543.95C1366.54 543.95 1384.73 540.518 1384.73 536.283C1384.73 532.049 1366.54 528.617 1344.1 528.617C1321.66 528.617 1303.47 532.049 1303.47 536.283C1303.47 540.518 1321.66 543.95 1344.1 543.95Z" fill="#56664B"/>
<path opacity="0.26" d="M1349.47 386.4C1351.96 400.967 1346.59 400.008 1349.47 404.225C1352.34 408.442 1359.43 410.358 1356.75 413.617C1353.88 416.875 1346.4 425.883 1351.96 430.675C1357.52 435.467 1367.48 437 1364.42 447.158C1361.35 457.125 1354.64 464.792 1360.58 466.708C1365.95 468.433 1377.45 471.692 1382.05 478.017C1382.63 471.5 1372.85 468.242 1371.32 465.942C1369.4 463.067 1369.02 453.867 1371.13 447.925C1373.23 441.983 1356.37 429.142 1363.27 424.158C1369.98 419.175 1362.5 411.7 1357.32 406.142C1352.34 400.775 1353.11 382.758 1349.47 371.642C1345.63 360.525 1333.94 349.025 1336.43 358.608C1337.2 361.292 1337.39 364.358 1337.39 367.233C1341.61 370.492 1347.93 377.008 1349.47 386.4Z" fill="#56664B"/>
<path d="M1276.06 559.858C1276.06 559.858 1278.17 554.875 1277.59 547.208C1276.83 539.542 1272.61 536.092 1272.61 536.092L1273.95 534.175C1273.95 534.175 1278.93 538.583 1280.85 537.625C1282.77 536.667 1288.71 529.383 1284.87 521.717C1281.04 514.05 1281.04 514.05 1281.04 514.05L1284.11 513.475C1284.11 513.475 1287.17 520.183 1288.71 520.375C1290.24 520.567 1291.97 515.008 1291.97 515.008L1297.53 516.35C1297.53 516.35 1289.47 527.083 1289.28 530.15C1289.09 533.217 1286.02 537.625 1288.71 538.2C1291.39 538.775 1294.46 536.858 1294.46 536.858L1296.57 540.692C1296.57 540.692 1289.48 542.033 1288.52 543.95C1287.56 545.867 1288.71 559.475 1288.71 559.475C1288.71 559.475 1283.92 561.967 1276.06 559.858Z" fill="#56664B"/>
<path d="M1279.32 551.808C1279.32 551.808 1243.09 549.892 1250.95 540.117C1255.74 534.367 1257.47 531.875 1255.93 529.575C1254.59 527.275 1255.93 519.225 1258.62 517.117C1261.3 515.008 1257.27 499.483 1260.34 495.458C1263.22 491.433 1269.92 481.85 1268.58 474.183C1267.24 466.708 1269.54 462.875 1272.03 456.742C1274.33 450.608 1263.79 447.542 1274.33 435.85C1276.06 433.933 1278.74 422.242 1276.63 414.383C1274.52 406.525 1284.11 415.917 1287.17 425.117C1290.24 434.317 1289.48 448.883 1293.69 453.292C1297.72 457.7 1304.04 463.833 1298.48 468.05C1292.93 472.267 1306.72 482.808 1305 487.6C1303.27 492.392 1303.66 499.867 1305.19 502.358C1306.73 504.658 1318.99 508.492 1311.52 517.117C1304.04 525.933 1309.79 527.85 1314.01 530.725C1318.03 533.408 1322.44 544.333 1309.79 547.208C1297.33 549.7 1288.13 552 1279.32 551.808Z" fill="#56664B"/>
<path opacity="0.37" d="M1316.31 560.05C1316.31 563.5 1301.36 566.375 1283.15 566.375C1264.75 566.375 1249.99 563.5 1249.99 560.05C1249.99 556.6 1264.94 553.725 1283.15 553.725C1301.36 553.725 1316.31 556.408 1316.31 560.05Z" fill="#56664B"/>
<path opacity="0.26" d="M1287.56 437.383C1289.67 449.267 1285.26 448.5 1287.56 451.95C1289.86 455.4 1295.8 456.933 1293.5 459.617C1291.2 462.3 1285.07 469.583 1289.67 473.417C1294.27 477.25 1302.51 478.592 1299.82 486.833C1297.33 495.075 1291.78 501.208 1296.57 502.742C1300.98 504.275 1310.37 506.767 1314.01 511.942C1314.39 506.575 1306.53 503.892 1305.38 501.975C1303.85 499.675 1303.47 492.008 1305.19 487.217C1306.92 482.425 1293.12 471.883 1298.67 467.667C1304.23 463.45 1297.91 457.508 1293.88 452.908C1289.86 448.5 1290.43 433.742 1287.37 424.733C1284.3 415.533 1274.72 406.142 1276.82 414C1277.4 416.108 1277.59 418.6 1277.59 421.092C1281.04 424.35 1286.22 429.525 1287.56 437.383Z" fill="#56664B"/>
<path d="M1220.48 556.983C1220.48 556.983 1222.58 552.192 1221.82 545.1C1221.24 538.008 1217.03 534.75 1217.03 534.75L1218.37 533.025C1218.37 533.025 1223.16 537.242 1224.69 536.283C1226.42 535.517 1231.97 528.616 1228.33 521.525C1224.69 514.433 1224.69 514.433 1224.69 514.433L1227.57 513.858C1227.57 513.858 1230.44 520.183 1231.97 520.375C1233.51 520.567 1235.04 515.392 1235.04 515.392L1240.22 516.733C1240.22 516.733 1232.74 526.892 1232.55 529.767C1232.36 532.642 1229.48 536.858 1231.97 537.433C1234.47 538.008 1237.34 536.091 1237.34 536.091L1239.26 539.542C1239.26 539.542 1232.55 540.883 1231.78 542.608C1231.02 544.333 1231.97 557.175 1231.97 557.175C1231.97 557.175 1227.95 558.9 1220.48 556.983Z" fill="#56664B"/>
<path d="M1223.54 549.317C1223.54 549.317 1189.62 547.4 1197.09 538.392C1201.5 533.025 1203.03 530.725 1201.88 528.425C1200.54 526.125 1201.88 518.842 1204.37 516.733C1206.87 514.625 1203.22 500.25 1205.91 496.417C1208.59 492.583 1214.92 483.575 1213.57 476.483C1212.23 469.392 1214.53 465.942 1216.83 460.192C1219.13 454.442 1209.17 451.567 1219.13 440.642C1220.86 438.725 1223.35 427.8 1221.43 420.517C1219.52 413.233 1228.53 422.05 1231.4 430.483C1234.28 439.108 1233.7 452.908 1237.53 456.933C1241.37 461.15 1247.31 466.9 1241.94 470.733C1236.77 474.567 1249.61 484.533 1248.07 488.942C1246.54 493.35 1246.73 500.442 1248.27 502.742C1249.8 505.042 1261.3 508.492 1254.21 516.733C1247.12 524.975 1252.67 526.892 1256.51 529.383C1260.34 531.875 1264.56 542.225 1252.67 544.717C1240.41 547.4 1231.78 549.508 1223.54 549.317Z" fill="#56664B"/>
<path d="M1219.13 516.733C1218.75 516.925 1218.75 516.925 1219.13 516.733V516.733Z" fill="#56664B"/>
<path opacity="0.37" d="M1258.23 556.983C1258.23 560.241 1244.24 562.925 1226.99 562.925C1209.74 562.925 1195.75 560.241 1195.75 556.983C1195.75 553.725 1209.74 551.042 1226.99 551.042C1244.24 551.042 1258.23 553.725 1258.23 556.983Z" fill="#56664B"/>
<path opacity="0.26" d="M1231.21 441.983C1233.12 453.1 1229.1 452.525 1231.21 455.592C1233.32 458.85 1238.88 460.383 1236.77 462.875C1234.66 465.367 1228.91 472.267 1233.12 475.908C1237.34 479.55 1245.01 480.892 1242.71 488.558C1240.41 496.225 1235.23 501.975 1239.64 503.508C1243.67 504.85 1252.48 507.342 1256.12 512.133C1256.51 507.15 1249.03 504.658 1247.88 502.742C1246.35 500.442 1246.16 493.542 1247.69 488.942C1249.23 484.533 1236.38 474.567 1241.56 470.733C1246.73 466.9 1240.98 461.15 1237.15 456.933C1233.32 452.717 1233.89 438.917 1231.02 430.483C1228.14 421.858 1219.13 413.042 1221.05 420.517C1221.62 422.625 1221.82 424.925 1221.82 427.225C1225.08 429.717 1229.87 434.7 1231.21 441.983Z" fill="#56664B"/>
<path d="M1130.2 564.267C1130.2 564.267 1131.54 561.2 1131.16 556.408C1130.77 551.617 1128.09 549.508 1128.09 549.508L1128.86 548.358C1128.86 548.358 1131.92 551.042 1133.07 550.467C1134.22 549.892 1138.06 545.292 1135.57 540.692C1133.08 535.9 1133.07 535.9 1133.07 535.9L1134.99 535.517C1134.99 535.517 1136.91 539.733 1137.87 539.925C1138.82 540.117 1139.98 536.667 1139.98 536.667L1143.43 537.433C1143.43 537.433 1138.44 544.142 1138.25 546.058C1138.06 547.975 1136.14 550.658 1137.87 551.042C1139.59 551.425 1141.32 550.275 1141.32 550.275L1142.66 552.575C1142.66 552.575 1138.25 553.342 1137.68 554.492C1137.1 555.642 1137.68 564.267 1137.68 564.267C1137.68 564.267 1134.99 565.608 1130.2 564.267Z" fill="#56664B"/>
<path d="M1132.12 559.092C1132.12 559.092 1109.5 557.942 1114.48 551.808C1117.36 548.167 1118.51 546.633 1117.55 545.292C1116.78 543.758 1117.55 538.775 1119.27 537.433C1121 536.092 1118.51 526.508 1120.42 524.017C1122.34 521.525 1126.37 515.583 1125.6 510.792C1124.83 506.192 1126.17 503.7 1127.71 499.867C1129.24 496.033 1122.53 494.117 1129.24 486.833C1130.39 485.683 1131.92 478.4 1130.77 473.417C1129.43 468.433 1135.37 474.375 1137.29 480.125C1139.21 485.875 1138.82 494.883 1141.32 497.758C1143.81 500.442 1147.83 504.275 1144.38 506.958C1140.93 509.45 1149.56 516.158 1148.41 519.033C1147.26 522.1 1147.45 526.7 1148.41 528.233C1149.37 529.767 1157.03 532.067 1152.43 537.433C1147.83 542.8 1151.47 544.142 1153.97 545.867C1156.46 547.592 1159.33 554.3 1151.47 556.025C1143.42 557.942 1137.67 559.283 1132.12 559.092Z" fill="#56664B"/>
<path opacity="0.37" d="M1155.12 564.267C1155.12 566.375 1145.92 568.1 1134.42 568.1C1122.92 568.1 1113.72 566.375 1113.72 564.267C1113.72 562.158 1122.92 560.433 1134.42 560.433C1145.92 560.433 1155.12 562.158 1155.12 564.267Z" fill="#56664B"/>
<path opacity="0.26" d="M1137.29 487.983C1138.63 495.267 1135.95 494.883 1137.29 496.992C1138.63 499.1 1142.47 500.058 1140.93 501.783C1139.59 503.508 1135.76 508.108 1138.44 510.408C1141.32 512.9 1146.3 513.667 1144.77 518.842C1143.23 524.017 1139.78 527.85 1142.85 528.808C1145.53 529.767 1151.47 531.3 1153.77 534.558C1153.97 531.3 1149.17 529.575 1148.41 528.425C1147.45 526.892 1147.26 522.292 1148.41 519.225C1149.56 516.158 1140.93 509.642 1144.38 507.15C1147.83 504.658 1144 500.825 1141.32 497.95C1138.82 495.267 1139.21 486.067 1137.29 480.317C1135.37 474.567 1129.43 468.817 1130.77 473.608C1131.16 474.95 1131.16 476.483 1131.16 478.017C1133.27 479.742 1136.33 483 1137.29 487.983Z" fill="#56664B"/>
<path d="M1438.02 534.175C1438.02 534.175 1439.93 529.575 1439.36 522.484C1438.78 515.392 1434.76 512.325 1434.76 512.325L1436.1 510.6C1436.1 510.6 1440.7 514.625 1442.42 513.859C1444.15 513.092 1449.71 506.192 1446.07 499.292C1442.43 492.2 1442.42 492.2 1442.42 492.2L1445.3 491.625C1445.3 491.625 1448.17 497.759 1449.52 497.95C1451.05 498.142 1452.58 492.967 1452.58 492.967L1457.76 494.117C1457.76 494.117 1450.47 504.084 1450.09 506.959C1449.9 509.834 1447.02 513.859 1449.52 514.434C1452.01 515.009 1454.69 513.092 1454.69 513.092L1456.61 516.542C1456.61 516.542 1450.09 517.884 1449.32 519.417C1448.56 520.95 1449.52 533.792 1449.52 533.792C1449.52 533.792 1445.3 536.284 1438.02 534.175Z" fill="#56664B"/>
<path d="M1440.89 526.7C1440.89 526.7 1407.35 524.783 1414.82 515.967C1419.23 510.6 1420.77 508.3 1419.42 506.192C1418.08 503.892 1419.42 496.608 1421.92 494.692C1424.41 492.775 1420.77 478.4 1423.45 474.758C1426.13 470.925 1432.27 462.108 1431.12 455.208C1429.77 448.308 1432.07 444.858 1434.18 439.108C1436.48 433.358 1426.52 430.675 1436.48 419.942C1438.21 418.025 1440.51 407.292 1438.78 400.008C1436.87 392.725 1445.68 401.35 1448.56 409.783C1451.43 418.217 1450.86 431.825 1454.5 435.85C1458.33 439.875 1464.08 445.625 1458.91 449.458C1453.73 453.292 1466.57 463.067 1464.85 467.475C1463.32 471.883 1463.51 478.783 1465.04 481.083C1466.57 483.383 1477.88 486.642 1470.98 494.692C1464.08 502.742 1469.45 504.658 1473.28 507.15C1477.12 509.642 1481.14 519.8 1469.45 522.292C1457.76 524.783 1449.13 526.892 1440.89 526.7Z" fill="#56664B"/>
<path opacity="0.37" d="M1475.2 534.367C1475.2 537.625 1461.4 540.117 1444.53 540.117C1427.67 540.117 1413.87 537.434 1413.87 534.367C1413.87 531.109 1427.67 528.617 1444.53 528.617C1461.4 528.425 1475.2 531.109 1475.2 534.367Z" fill="#56664B"/>
<path opacity="0.26" d="M1448.56 421.092C1450.48 432.017 1446.45 431.442 1448.56 434.508C1450.67 437.575 1456.22 439.108 1454.12 441.6C1452.01 444.092 1446.26 450.8 1450.48 454.442C1454.69 458.083 1462.17 459.233 1459.87 466.9C1457.57 474.567 1452.58 480.125 1456.99 481.658C1461.02 483 1469.64 485.492 1473.09 490.283C1473.48 485.3 1466.19 482.808 1465.04 481.083C1463.51 478.783 1463.32 471.883 1464.85 467.475C1466.38 463.067 1453.73 453.292 1458.91 449.458C1464.08 445.625 1458.33 440.067 1454.5 435.85C1450.67 431.825 1451.43 418.217 1448.56 409.783C1445.68 401.35 1436.87 392.725 1438.78 400.008C1439.36 401.925 1439.55 404.225 1439.55 406.525C1442.62 409.017 1447.41 413.808 1448.56 421.092Z" fill="#56664B"/>
<path d="M90.6 555.833C90.6 555.833 91.9417 552.575 91.5584 547.592C91.175 542.608 88.3 540.308 88.3 540.308L89.2584 538.967C89.2584 538.967 92.5167 541.842 93.6667 541.267C94.8167 540.692 98.8417 535.9 96.35 530.917C93.8584 525.933 93.8584 525.933 93.8584 525.933L95.775 525.55C95.775 525.55 97.6917 529.958 98.8417 530.15C99.8 530.342 100.95 526.7 100.95 526.7L104.592 527.658C104.592 527.658 99.4167 534.75 99.225 536.667C99.0334 538.583 97.1167 541.65 98.8417 541.842C100.567 542.225 102.483 540.883 102.483 540.883L103.825 543.375C103.825 543.375 99.225 544.333 98.65 545.483C98.075 546.633 98.65 555.642 98.65 555.642C98.65 555.642 95.775 557.175 90.6 555.833Z" fill="#56664B"/>
<path d="M92.7081 550.467C92.7081 550.467 69.1331 549.125 74.3081 542.992C77.3748 539.158 78.5248 537.625 77.5664 536.092C76.6081 534.558 77.5664 529.383 79.2914 527.85C81.0164 526.508 78.5248 516.35 80.4414 513.667C82.3581 510.983 86.7664 504.85 85.8081 499.867C84.8497 494.883 86.3831 492.583 88.1081 488.558C89.6414 484.533 82.7414 482.617 89.6414 474.95C90.7914 473.608 92.5164 466.133 91.1748 460.958C89.8331 455.783 96.1581 461.917 98.0748 467.858C99.9914 473.8 99.6081 483.383 102.291 486.258C104.975 489.133 109 493.158 105.358 495.842C101.716 498.525 110.725 505.425 109.575 508.492C108.425 511.558 108.616 516.542 109.766 518.075C110.725 519.608 118.775 522.1 113.983 527.658C109 533.408 112.833 534.75 115.516 536.475C118.2 538.2 121.075 545.292 112.833 547.208C104.4 549.125 98.4581 550.658 92.7081 550.467Z" fill="#56664B"/>
<path opacity="0.37" d="M116.858 555.833C116.858 558.133 107.083 559.858 95.1999 559.858C83.3166 559.858 73.5416 557.942 73.5416 555.833C73.5416 553.533 83.3166 551.808 95.1999 551.808C107.083 551.808 116.858 553.533 116.858 555.833Z" fill="#56664B"/>
<path opacity="0.26" d="M98.075 475.908C99.4167 483.575 96.5417 483.192 98.075 485.492C99.6084 487.792 103.442 488.75 101.908 490.475C100.375 492.2 96.35 496.992 99.4167 499.483C102.292 501.975 107.658 502.933 106.125 508.3C104.4 513.667 100.95 517.692 104.017 518.65C106.892 519.608 113.025 521.333 115.517 524.592C115.708 521.142 110.725 519.417 109.767 518.075C108.808 516.542 108.617 511.558 109.575 508.492C110.725 505.425 101.717 498.525 105.358 495.842C109 493.158 104.975 489.133 102.292 486.258C99.6084 483.383 99.9917 473.8 98.075 467.858C96.1584 461.917 89.8334 455.783 91.175 460.958C91.5584 462.3 91.75 464.025 91.5584 465.558C93.8584 467.475 97.1167 470.925 98.075 475.908Z" fill="#56664B"/>
<path d="M153.85 575C153.85 575 155.192 571.742 154.808 566.758C154.425 561.775 151.55 559.475 151.55 559.475L152.508 558.133C152.508 558.133 155.767 561.008 156.917 560.433C158.067 559.858 162.092 555.067 159.6 550.083C157.108 545.1 157.108 545.1 157.108 545.1L159.025 544.717C159.025 544.717 160.942 549.125 162.092 549.317C163.05 549.508 164.2 545.867 164.2 545.867L167.842 546.825C167.842 546.825 162.667 553.917 162.475 555.833C162.283 557.75 160.367 560.817 162.092 561.008C163.817 561.392 165.733 560.05 165.733 560.05L167.075 562.542C167.075 562.542 162.475 563.5 161.9 564.65C161.325 565.8 161.9 574.808 161.9 574.808C161.9 574.808 159.025 576.342 153.85 575Z" fill="#56664B"/>
<path d="M155.958 569.633C155.958 569.633 132.383 568.292 137.558 562.158C140.625 558.325 141.775 556.792 140.816 555.258C139.858 553.725 140.816 548.55 142.541 547.017C144.266 545.675 141.775 535.517 143.691 532.833C145.608 530.15 150.016 524.017 149.058 519.033C148.1 514.05 149.633 511.75 151.358 507.725C153.083 503.7 145.991 501.783 152.891 494.117C154.041 492.775 155.766 485.3 154.425 480.125C153.083 474.95 159.408 481.083 161.325 487.025C163.241 492.967 162.858 502.55 165.541 505.425C168.225 508.3 172.25 512.325 168.608 515.008C164.966 517.692 173.975 524.592 172.825 527.658C171.675 530.725 171.866 535.708 173.016 537.242C173.975 538.775 182.025 541.267 177.233 546.825C172.25 552.575 176.083 553.917 178.766 555.642C181.45 557.367 184.325 564.458 176.083 566.375C167.65 568.292 161.708 569.825 155.958 569.633Z" fill="#56664B"/>
<path opacity="0.37" d="M180.108 575C180.108 577.3 170.333 579.025 158.45 579.025C146.567 579.025 136.792 577.108 136.792 575C136.792 572.7 146.567 570.975 158.45 570.975C170.333 570.975 180.108 572.7 180.108 575Z" fill="#56664B"/>
<path opacity="0.26" d="M161.325 495.075C162.667 502.742 159.792 502.358 161.325 504.658C162.858 506.958 166.692 507.917 165.158 509.642C163.625 511.367 159.6 516.158 162.667 518.65C165.542 521.142 170.908 522.1 169.375 527.467C167.65 532.833 164.2 536.858 167.267 537.817C170.142 538.775 176.275 540.5 178.767 543.758C178.958 540.308 173.975 538.583 173.017 537.242C172.058 535.708 171.867 530.725 172.825 527.658C173.975 524.592 164.967 517.692 168.608 515.008C172.25 512.325 168.225 508.3 165.542 505.425C162.858 502.55 163.242 492.967 161.325 487.025C159.408 481.083 153.083 474.95 154.425 480.125C154.808 481.467 155 483.192 154.808 484.725C157.108 486.642 160.367 490.092 161.325 495.075Z" fill="#56664B"/>
<path d="M1097.71 442.828C1097.71 442.828 1098.86 439.953 1098.48 435.737C1098.1 431.52 1095.61 429.603 1095.61 429.603L1096.37 428.453C1096.37 428.453 1099.25 430.945 1100.21 430.37C1101.16 429.795 1104.61 425.77 1102.51 421.553C1100.4 417.337 1100.4 417.337 1100.4 417.337L1102.12 416.953C1102.12 416.953 1103.85 420.787 1104.81 420.787C1105.76 420.978 1106.72 417.72 1106.72 417.72L1109.79 418.487C1109.79 418.487 1105.38 424.62 1105.19 426.153C1105 427.878 1103.27 430.37 1104.81 430.753C1106.34 431.137 1108.06 429.987 1108.06 429.987L1109.21 432.095C1109.21 432.095 1105.19 432.862 1104.81 433.82C1104.23 434.778 1104.81 442.445 1104.81 442.445C1104.81 442.445 1102.12 443.978 1097.71 442.828Z" fill="#7B4C3E"/>
<path d="M1099.63 438.228C1099.63 438.228 1079.51 437.078 1083.91 431.712C1086.6 428.453 1087.56 427.112 1086.79 425.77C1086.02 424.428 1086.79 420.02 1088.32 418.87C1089.86 417.72 1087.56 409.095 1089.28 406.795C1091.01 404.495 1094.65 399.128 1093.88 394.912C1093.11 390.695 1094.46 388.587 1095.8 385.137C1097.14 381.687 1091.2 379.962 1097.14 373.445C1098.1 372.295 1099.63 365.778 1098.48 361.37C1097.33 356.962 1102.7 362.137 1104.42 367.312C1106.15 372.487 1105.76 380.537 1108.06 383.028C1110.36 385.52 1113.81 388.97 1110.75 391.27C1107.68 393.57 1115.35 399.512 1114.39 402.195C1113.43 404.878 1113.62 409.095 1114.39 410.437C1115.35 411.778 1122.06 413.887 1117.84 418.678C1113.62 423.47 1116.88 424.62 1119.18 426.153C1121.48 427.687 1123.97 433.82 1116.88 435.353C1109.6 437.078 1104.61 438.42 1099.63 438.228Z" fill="#5A7D52"/>
<path opacity="0.37" d="M1101.74 446.278C1112.01 446.278 1120.33 444.734 1120.33 442.828C1120.33 440.923 1112.01 439.378 1101.74 439.378C1091.47 439.378 1083.15 440.923 1083.15 442.828C1083.15 444.734 1091.47 446.278 1101.74 446.278Z" fill="#56664B"/>
<path opacity="0.23" d="M1118.99 426.537C1118.22 425.962 1117.46 425.578 1116.69 425.003C1116.5 425.962 1117.65 428.262 1115.54 428.07C1112.28 427.878 1112.28 418.87 1109.6 422.128C1107.11 425.387 1097.52 423.853 1095.61 421.553C1093.69 419.445 1099.63 415.995 1099.25 413.695C1098.86 411.203 1094.07 412.737 1093.5 410.628C1092.73 408.52 1100.97 402.003 1099.06 401.045C1096.95 400.087 1093.5 390.695 1093.5 390.503C1093.31 391.845 1093.11 393.187 1093.5 394.912C1094.26 399.128 1090.62 404.495 1088.9 406.795C1087.17 409.095 1089.47 417.72 1087.94 418.87C1086.41 420.02 1085.64 424.428 1086.41 425.77C1087.17 427.112 1086.21 428.453 1083.53 431.712C1079.12 437.078 1099.25 438.228 1099.25 438.228C1104.23 438.42 1109.41 437.078 1116.5 435.545C1123.78 434.012 1121.29 428.07 1118.99 426.537Z" fill="#3A5C31"/>
<path opacity="0.26" d="M1104.23 374.403C1105.38 380.92 1102.89 380.537 1104.23 382.453C1105.57 384.37 1108.83 385.328 1107.49 386.862C1106.15 388.395 1102.7 392.42 1105.38 394.528C1107.87 396.637 1112.47 397.403 1111.13 402.003C1109.79 406.603 1106.72 410.053 1109.41 410.82C1111.9 411.587 1117.07 413.12 1119.18 415.995C1119.37 412.928 1114.96 411.587 1114.39 410.437C1113.43 409.095 1113.43 404.878 1114.39 402.195C1115.35 399.512 1107.68 393.57 1110.75 391.27C1113.81 388.97 1110.36 385.52 1108.06 383.028C1105.76 380.537 1106.15 372.295 1104.42 367.312C1102.7 362.137 1097.33 356.962 1098.48 361.37C1098.86 362.52 1098.86 363.862 1098.86 365.395C1100.59 367.12 1103.46 369.995 1104.23 374.403Z" fill="#DCFFB6"/>
<path d="M1135.86 469.087C1135.86 469.087 1137.2 466.02 1136.81 461.612C1136.43 457.012 1133.75 455.095 1133.75 455.095L1134.51 453.945C1134.51 453.945 1137.58 456.628 1138.54 456.053C1139.69 455.478 1143.14 451.07 1140.84 446.662C1138.54 442.062 1138.54 442.062 1138.54 442.062L1140.46 441.678C1140.46 441.678 1142.37 445.703 1143.33 445.895C1144.29 446.087 1145.25 442.637 1145.25 442.637L1148.51 443.403C1148.51 443.403 1143.71 449.92 1143.52 451.645C1143.33 453.562 1141.61 456.053 1143.14 456.437C1144.86 456.82 1146.59 455.67 1146.59 455.67L1147.74 457.97C1147.74 457.97 1143.52 458.737 1142.95 459.887C1142.37 461.037 1142.95 469.278 1142.95 469.278C1142.95 469.278 1140.65 470.428 1135.86 469.087Z" fill="#7B4C3E"/>
<path d="M1137.77 464.295C1137.77 464.295 1116.11 463.145 1120.91 457.395C1123.78 453.945 1124.74 452.412 1123.97 451.07C1123.21 449.728 1123.97 444.937 1125.7 443.595C1127.42 442.253 1124.93 433.053 1126.66 430.753C1128.38 428.262 1132.41 422.512 1131.64 418.103C1130.87 413.695 1132.21 411.395 1133.75 407.753C1135.09 404.112 1128.76 402.195 1135.09 395.295C1136.24 394.145 1137.77 387.053 1136.43 382.453C1135.28 377.853 1140.84 383.412 1142.76 388.778C1144.67 394.145 1144.1 402.962 1146.59 405.645C1149.08 408.328 1152.72 411.97 1149.46 414.462C1146.21 416.953 1154.45 423.278 1153.3 426.153C1152.34 429.028 1152.53 433.437 1153.3 434.97C1154.26 436.312 1161.54 438.612 1157.13 443.787C1152.72 448.962 1156.17 450.303 1158.66 451.837C1161.16 453.562 1163.84 460.078 1156.17 461.612C1148.7 463.145 1143.14 464.487 1137.77 464.295Z" fill="#5A7D52"/>
<path opacity="0.37" d="M1140.07 473.111C1151.08 473.111 1160.01 471.395 1160.01 469.278C1160.01 467.161 1151.08 465.445 1140.07 465.445C1129.06 465.445 1120.14 467.161 1120.14 469.278C1120.14 471.395 1129.06 473.111 1140.07 473.111Z" fill="#56664B"/>
<path opacity="0.23" d="M1158.66 451.645C1157.9 451.07 1156.94 450.687 1156.17 449.92C1155.98 450.878 1157.13 453.37 1155.02 453.178C1151.57 452.987 1151.57 443.403 1148.7 446.853C1146.01 450.303 1135.86 448.578 1133.75 446.278C1131.83 443.978 1137.96 440.337 1137.77 437.845C1137.39 435.353 1132.21 436.887 1131.45 434.587C1130.68 432.287 1139.5 425.387 1137.39 424.237C1135.28 423.087 1131.45 413.12 1131.45 413.12C1131.06 414.462 1131.06 415.995 1131.45 417.912C1132.21 422.32 1128.38 428.07 1126.46 430.562C1124.74 433.053 1127.04 442.253 1125.51 443.403C1123.78 444.745 1123.01 449.537 1123.78 450.878C1124.55 452.22 1123.59 453.753 1120.71 457.203C1115.92 462.953 1137.58 464.103 1137.58 464.103C1142.95 464.295 1148.31 462.953 1155.98 461.228C1163.65 459.887 1161.16 453.37 1158.66 451.645Z" fill="#3A5C31"/>
<path opacity="0.26" d="M1142.76 395.87C1143.91 402.961 1141.41 402.578 1142.76 404.495C1144.1 406.603 1147.74 407.561 1146.21 409.095C1144.86 410.82 1141.22 415.036 1143.91 417.336C1146.59 419.636 1151.57 420.403 1150.04 425.386C1148.51 430.37 1145.25 434.011 1148.12 434.97C1150.81 435.928 1156.36 437.461 1158.66 440.528C1158.86 437.27 1154.26 435.736 1153.49 434.586C1152.53 433.245 1152.34 428.645 1153.49 425.77C1154.45 422.895 1146.21 416.57 1149.66 414.078C1152.91 411.586 1149.27 407.945 1146.78 405.261C1144.29 402.578 1144.67 393.761 1142.95 388.395C1141.03 383.028 1135.47 377.278 1136.62 382.07C1137.01 383.411 1137.01 384.753 1137.01 386.286C1138.92 388.203 1141.99 391.27 1142.76 395.87Z" fill="#DCFFB6"/>
<path d="M999.198 406.795C999.198 406.795 1000.16 404.687 999.773 401.62C999.581 398.362 997.665 397.02 997.665 397.02L998.24 396.253C998.24 396.253 1000.35 398.17 1001.11 397.787C1001.88 397.403 1004.37 394.337 1002.84 391.27C1001.31 388.012 1001.31 388.012 1001.31 388.012L1002.65 387.82C1002.65 387.82 1003.99 390.695 1004.56 390.695C1005.14 390.695 1005.91 388.395 1005.91 388.395L1008.21 388.97C1008.21 388.97 1004.95 393.378 1004.76 394.72C1004.76 396.062 1003.41 397.787 1004.56 398.17C1005.71 398.362 1006.86 397.595 1006.86 397.595L1007.63 399.128C1007.63 399.128 1004.76 399.703 1004.37 400.47C1003.99 401.237 1004.37 406.987 1004.37 406.987C1004.37 406.987 1002.46 407.753 999.198 406.795Z" fill="#7B4C3E"/>
<path d="M1000.54 403.345C1000.54 403.345 985.59 402.578 988.848 398.553C990.765 396.062 991.531 395.103 990.956 394.145C990.381 393.187 990.956 389.928 992.106 388.97C993.256 388.012 991.531 381.687 992.873 379.962C994.023 378.237 996.898 374.212 996.323 371.145C995.748 368.078 996.706 366.545 997.665 363.862C998.623 361.37 994.215 360.028 998.623 355.237C999.39 354.47 1000.54 349.487 999.581 346.228C998.815 342.97 1002.65 346.803 1003.99 350.637C1005.33 354.47 1004.95 360.603 1006.67 362.328C1008.4 364.245 1010.89 366.737 1008.59 368.462C1006.29 370.187 1012.04 374.595 1011.27 376.512C1010.51 378.428 1010.7 381.687 1011.27 382.645C1011.85 383.603 1017.02 385.137 1013.96 388.778C1010.89 392.42 1013.19 393.187 1014.91 394.337C1016.64 395.487 1018.36 400.087 1013.19 401.237C1008.01 402.578 1004.18 403.537 1000.54 403.345Z" fill="#5A7D52"/>
<path opacity="0.37" d="M1002.07 409.478C1009.69 409.478 1015.87 408.277 1015.87 406.795C1015.87 405.313 1009.69 404.112 1002.07 404.112C994.451 404.112 988.273 405.313 988.273 406.795C988.273 408.277 994.451 409.478 1002.07 409.478Z" fill="#56664B"/>
<path opacity="0.23" d="M1015.11 394.528C1014.53 394.145 1013.96 393.762 1013.38 393.378C1013.19 393.953 1014.15 395.678 1012.42 395.678C1010.12 395.487 1009.93 388.778 1008.01 391.27C1006.1 393.762 999.006 392.42 997.665 390.887C996.323 389.353 1000.73 386.862 1000.35 384.945C1000.16 383.22 996.515 384.37 995.94 382.645C995.365 381.112 1001.5 376.128 999.965 375.362C998.431 374.595 995.94 367.695 995.94 367.503C995.748 368.462 995.748 369.42 995.94 370.762C996.515 373.828 993.831 377.853 992.49 379.578C991.34 381.303 992.873 387.628 991.723 388.587C990.573 389.545 989.998 392.803 990.573 393.762C991.148 394.72 990.381 395.678 988.465 398.17C985.206 402.195 1000.16 402.962 1000.16 402.962C1003.8 402.962 1007.63 402.195 1013 401.045C1018.56 400.278 1016.64 395.678 1015.11 394.528Z" fill="#3A5C31"/>
<path opacity="0.26" d="M1003.99 355.812C1004.76 360.795 1003.03 360.412 1003.99 361.945C1004.95 363.287 1007.44 364.053 1006.48 365.203C1005.52 366.353 1003.03 369.42 1004.95 370.953C1006.86 372.487 1010.31 373.062 1009.16 376.512C1008.21 379.962 1005.91 382.453 1007.82 383.22C1009.55 383.795 1013.57 384.945 1015.11 387.053C1015.3 384.753 1012.04 383.795 1011.46 382.837C1010.89 381.878 1010.7 378.812 1011.46 376.703C1012.23 374.787 1006.48 370.378 1008.78 368.653C1011.08 366.928 1008.59 364.437 1006.86 362.52C1005.14 360.603 1005.52 354.662 1004.18 350.828C1002.84 346.995 999.006 343.162 999.773 346.42C999.965 347.378 1000.16 348.337 1000.16 349.295C1001.31 350.445 1003.41 352.745 1003.99 355.812Z" fill="#DCFFB6"/>
<path d="M1069.73 454.52C1069.73 454.52 1071.26 451.07 1070.69 445.703C1070.31 440.336 1067.24 438.036 1067.24 438.036L1068.2 436.695C1068.2 436.695 1071.65 439.761 1072.99 439.186C1074.33 438.611 1078.55 433.436 1075.86 428.07C1073.18 422.703 1073.18 422.703 1073.18 422.703L1075.29 422.32C1075.29 422.32 1077.4 427.111 1078.55 427.111C1079.7 427.303 1080.85 423.278 1080.85 423.278L1084.68 424.236C1084.68 424.236 1079.12 431.903 1078.93 434.011C1078.74 436.12 1076.63 439.378 1078.55 439.761C1080.46 440.145 1082.57 438.803 1082.57 438.803L1084.11 441.486C1084.11 441.486 1079.12 442.445 1078.55 443.786C1077.97 445.128 1078.55 454.711 1078.55 454.711C1078.55 454.711 1075.1 456.053 1069.73 454.52Z" fill="#7B4C3E"/>
<path d="M1071.84 448.77C1071.84 448.77 1046.54 447.428 1051.91 440.72C1055.16 436.695 1056.51 434.97 1055.55 433.245C1054.59 431.52 1055.55 425.961 1057.46 424.428C1059.38 422.895 1056.51 412.161 1058.61 409.286C1060.72 406.411 1065.32 399.703 1064.36 394.336C1063.41 388.97 1065.13 386.478 1066.66 382.07C1068.2 377.661 1060.91 375.553 1068.39 367.503C1069.73 366.161 1071.46 357.92 1070.11 352.361C1068.77 346.803 1075.48 353.511 1077.59 359.836C1079.7 366.161 1079.31 376.511 1082.19 379.578C1085.06 382.645 1089.47 387.053 1085.64 389.928C1081.81 392.803 1091.39 400.278 1090.24 403.536C1089.09 406.795 1089.28 412.161 1090.43 413.886C1091.58 415.611 1100.21 418.103 1094.84 424.236C1089.47 430.37 1093.69 431.903 1096.56 433.82C1099.44 435.736 1102.51 443.403 1093.69 445.32C1084.49 447.428 1078.16 448.961 1071.84 448.77Z" fill="#5A7D52"/>
<path opacity="0.37" d="M1074.52 458.928C1087.44 458.928 1097.91 456.954 1097.91 454.52C1097.91 452.085 1087.44 450.111 1074.52 450.111C1061.61 450.111 1051.14 452.085 1051.14 454.52C1051.14 456.954 1061.61 458.928 1074.52 458.928Z" fill="#56664B"/>
<path opacity="0.23" d="M1096.37 434.011C1095.41 433.436 1094.26 432.861 1093.5 432.095C1093.31 433.245 1094.65 436.12 1091.96 435.928C1087.94 435.545 1087.75 424.428 1084.68 428.645C1081.42 432.861 1069.54 430.753 1067.24 428.07C1064.94 425.386 1072.22 421.17 1071.84 418.103C1071.46 415.036 1065.32 416.953 1064.56 414.27C1063.79 411.586 1073.95 403.345 1071.46 402.195C1068.96 400.853 1064.56 389.161 1064.56 388.97C1064.17 390.503 1064.17 392.42 1064.56 394.528C1065.51 399.895 1060.91 406.603 1058.81 409.478C1056.7 412.353 1059.57 423.086 1057.66 424.62C1055.74 426.153 1054.78 431.711 1055.74 433.436C1056.7 435.161 1055.55 436.886 1052.1 440.911C1046.54 447.62 1072.03 448.961 1072.03 448.961C1078.16 449.153 1084.68 447.428 1093.5 445.511C1102.31 443.595 1099.25 435.928 1096.37 434.011Z" fill="#3A5C31"/>
<path opacity="0.26" d="M1077.59 368.653C1079.12 376.895 1076.06 376.511 1077.59 378.811C1079.12 381.111 1083.34 382.261 1081.81 384.178C1080.27 386.095 1075.86 391.27 1079.12 393.953C1082.38 396.636 1088.13 397.595 1086.41 403.345C1084.68 409.095 1080.85 413.311 1084.11 414.461C1087.17 415.42 1093.69 417.336 1096.37 420.978C1096.56 417.145 1091.2 415.42 1090.24 414.078C1089.09 412.353 1088.9 407.178 1090.05 403.728C1091.2 400.278 1081.61 392.995 1085.45 390.12C1089.28 387.245 1085.06 382.836 1082 379.77C1078.93 376.703 1079.7 366.353 1077.4 360.028C1075.29 353.703 1068.58 346.995 1069.92 352.553C1070.31 354.086 1070.5 355.811 1070.5 357.536C1073.18 359.453 1076.63 363.095 1077.59 368.653Z" fill="#DCFFB6"/>
<path d="M97.675 440.458C97.675 440.458 98.825 437.583 98.4417 433.175C98.0584 428.767 95.5667 426.85 95.5667 426.85L96.3334 425.7C96.3334 425.7 99.2084 428.192 100.167 427.808C101.125 427.233 104.575 423.208 102.467 418.8C100.167 414.392 100.167 414.392 100.167 414.392L101.892 414.008C101.892 414.008 103.617 417.842 104.575 418.033C105.533 418.225 106.492 414.967 106.492 414.967L109.75 415.733C109.75 415.733 105.15 421.867 105.15 423.592C104.958 425.317 103.233 427.808 104.767 428.192C106.3 428.575 108.025 427.425 108.025 427.425L109.175 429.533C109.175 429.533 105.15 430.3 104.575 431.258C104 432.217 104.575 440.075 104.575 440.075C104.575 440.075 102.275 441.608 97.675 440.458Z" fill="#7B4C3E"/>
<path d="M99.5918 435.667C99.5918 435.667 78.8918 434.517 83.4918 428.958C86.1751 425.7 87.1334 424.358 86.3668 422.825C85.6001 421.483 86.3668 416.883 87.9001 415.733C89.4334 414.392 87.1334 405.767 88.8584 403.467C90.5834 401.167 94.2251 395.608 93.4584 391.392C92.6918 387.175 94.0334 384.875 95.3751 381.425C96.7168 377.975 90.7751 376.25 96.7168 369.542C97.6751 368.392 99.2084 361.683 98.0584 357.275C96.9084 352.867 102.275 358.233 104.192 363.408C105.917 368.583 105.533 377.017 107.833 379.508C110.133 382 113.775 385.45 110.517 387.942C107.258 390.242 115.117 396.375 114.158 399.058C113.2 401.742 113.392 406.15 114.158 407.492C115.117 408.833 122.017 410.942 117.8 415.925C113.583 420.908 116.842 422.058 119.142 423.592C121.442 425.125 123.933 431.45 116.842 432.983C109.942 434.517 104.575 435.858 99.5918 435.667Z" fill="#5A7D52"/>
<path opacity="0.37" d="M101.7 444.1C112.18 444.1 120.675 442.47 120.675 440.458C120.675 438.447 112.18 436.817 101.7 436.817C91.2205 436.817 82.7251 438.447 82.7251 440.458C82.7251 442.47 91.2205 444.1 101.7 444.1Z" fill="#56664B"/>
<path opacity="0.23" d="M119.333 423.592C118.567 423.017 117.608 422.633 117.033 422.058C116.842 423.017 117.992 425.317 115.883 425.125C112.625 424.933 112.433 415.733 109.942 419.183C107.258 422.633 97.675 420.908 95.7583 418.608C93.8417 416.308 99.7833 413.05 99.5917 410.558C99.2083 408.067 94.4167 409.6 93.65 407.492C92.8833 405.192 101.317 398.675 99.2083 397.525C97.1 396.567 93.65 386.983 93.65 386.792C93.4583 388.133 93.2667 389.475 93.65 391.392C94.4167 395.608 90.5833 401.167 89.05 403.467C87.325 405.767 89.625 414.583 88.0917 415.733C86.5583 417.075 85.7916 421.483 86.5583 422.825C87.325 424.167 86.3666 425.508 83.6833 428.958C79.0833 434.517 99.7833 435.667 99.7833 435.667C104.767 435.858 110.133 434.517 117.225 432.983C124.317 431.45 121.825 425.317 119.333 423.592Z" fill="#3A5C31"/>
<path opacity="0.26" d="M104.192 370.5C105.342 377.208 102.85 376.825 104.192 378.742C105.533 380.658 108.792 381.617 107.642 383.15C106.3 384.683 102.85 388.9 105.342 391.008C108.025 393.308 112.625 394.075 111.092 398.675C109.75 403.275 106.492 406.917 109.367 407.683C111.858 408.45 117.225 409.983 119.333 413.05C119.525 409.983 115.117 408.45 114.35 407.3C113.392 405.958 113.2 401.742 114.35 398.867C115.308 396.183 107.45 390.05 110.708 387.75C113.775 385.45 110.325 382 108.025 379.317C105.725 376.825 106.108 368.392 104.383 363.217C102.658 358.042 97.1001 352.675 98.2501 357.083C98.6334 358.233 98.6334 359.767 98.6334 361.108C100.55 363.025 103.425 366.092 104.192 370.5Z" fill="#DCFFB6"/>
<path d="M64.5168 413.05C64.5168 413.05 65.4751 410.75 65.2835 407.3C64.9001 403.85 62.9835 402.317 62.9835 402.317L63.5585 401.358C63.5585 401.358 65.8585 403.467 66.6251 402.892C67.3918 402.508 70.2668 399.058 68.5418 395.608C66.8168 392.158 66.8168 392.158 66.8168 392.158L68.1585 391.967C68.1585 391.967 69.5001 395.033 70.2668 395.225C71.0335 395.417 71.8001 392.733 71.8001 392.733L74.2918 393.308C74.2918 393.308 70.6501 398.292 70.4585 399.633C70.2668 400.975 68.9251 403.083 70.2668 403.275C71.6084 403.467 72.9501 402.7 72.9501 402.7L73.9085 404.425C73.9085 404.425 70.6501 405 70.2668 405.958C69.8835 406.725 70.2668 413.05 70.2668 413.05C70.2668 413.05 68.1585 414.008 64.5168 413.05Z" fill="#7B4C3E"/>
<path d="M66.05 409.217C66.05 409.217 49.375 408.259 53.0167 403.85C55.125 401.167 55.8917 400.017 55.3167 399.059C54.7417 398.1 55.3167 394.267 56.6584 393.309C58 392.35 56.0834 385.258 57.425 383.342C58.7667 381.425 61.8334 377.017 61.2584 373.567C60.6834 370.117 61.6417 368.392 62.7917 365.517C63.9417 362.642 58.9584 361.3 63.9417 355.934C64.7084 354.975 66.05 349.608 65.0917 346.158C64.1334 342.517 68.5417 346.925 69.8834 351.142C71.225 355.359 71.0334 362.067 72.95 364.175C74.8667 366.283 77.7417 368.967 75.0584 370.883C72.5667 372.8 78.8917 377.592 78.125 379.892C77.3584 382 77.55 385.45 78.125 386.6C78.8917 387.75 84.45 389.475 81 393.309C77.55 397.142 80.2334 398.292 82.15 399.442C84.0667 400.783 85.9834 405.767 80.2334 406.917C74.2917 408.259 70.075 409.408 66.05 409.217Z" fill="#5A7D52"/>
<path d="M63.9405 393.309C63.7505 393.499 63.7505 393.499 63.9405 393.309V393.309Z" fill="#38674C"/>
<path opacity="0.37" d="M67.775 415.925C76.1375 415.925 82.9167 414.638 82.9167 413.05C82.9167 411.462 76.1375 410.175 67.775 410.175C59.4125 410.175 52.6334 411.462 52.6334 413.05C52.6334 414.638 59.4125 415.925 67.775 415.925Z" fill="#56664B"/>
<path opacity="0.23" d="M81.9584 399.634C81.3834 399.25 80.6167 398.867 80.0417 398.292C79.8501 399.059 80.8084 400.975 79.0834 400.784C76.4001 400.592 76.4001 393.309 74.2917 395.992C72.1834 398.675 64.3251 397.334 62.7917 395.609C61.2584 393.884 66.0501 391.2 65.8584 389.092C65.6667 387.175 61.6417 388.325 61.0667 386.6C60.4917 384.875 67.2001 379.509 65.6667 378.742C64.1334 377.784 61.2584 370.117 61.2584 370.117C61.0667 371.267 61.0667 372.417 61.2584 373.759C61.8334 377.209 58.7667 381.617 57.4251 383.534C56.0834 385.45 57.8084 392.542 56.6584 393.5C55.3167 394.459 54.7417 398.1 55.3167 399.25C55.8917 400.4 55.1251 401.55 53.0167 404.042C49.3751 408.45 66.0501 409.409 66.0501 409.409C70.0751 409.6 74.2917 408.45 80.0417 407.3C85.9834 405.767 83.8751 400.784 81.9584 399.634Z" fill="#3A5C31"/>
<path opacity="0.26" d="M69.8834 356.892C70.8417 362.258 68.925 362.067 69.8834 363.6C70.8417 365.133 73.7167 365.9 72.5667 367.242C71.6084 368.583 68.7334 371.842 70.8417 373.567C72.95 375.292 76.5917 376.058 75.4417 379.7C74.2917 383.533 71.8 386.217 73.9084 386.983C75.825 387.558 80.2334 388.9 81.9584 391.2C82.15 388.708 78.5084 387.558 77.9334 386.6C77.1667 385.45 77.1667 382 77.9334 379.892C78.7 377.783 72.375 372.8 74.8667 370.883C77.3584 368.967 74.4834 366.283 72.7584 364.175C70.8417 362.067 71.225 355.358 69.6917 351.142C68.35 346.925 63.9417 342.708 64.9 346.158C65.0917 347.117 65.2834 348.267 65.2834 349.417C66.8167 350.95 69.1167 353.25 69.8834 356.892Z" fill="#DCFFB6"/>
<path d="M182.775 409.983C182.775 409.983 183.542 408.45 183.158 405.958C182.967 403.467 181.625 402.317 181.625 402.317L182.008 401.742C182.008 401.742 183.542 403.083 184.308 402.892C184.883 402.508 186.8 400.208 185.65 397.717C184.308 395.225 184.308 395.225 184.308 395.225L185.267 395.033C185.267 395.033 186.225 397.142 186.8 397.333C187.375 397.333 187.95 395.608 187.95 395.608L189.675 395.992C189.675 395.992 187.183 399.442 186.992 400.4C186.992 401.358 185.842 402.892 186.8 403.083C187.758 403.275 188.717 402.7 188.717 402.7L189.292 403.85C189.292 403.85 186.992 404.233 186.8 404.808C186.417 405.383 186.8 409.792 186.8 409.792C186.8 409.792 185.267 410.558 182.775 409.983Z" fill="#7B4C3E"/>
<path d="M183.733 407.3C183.733 407.3 172.042 406.725 174.533 403.467C176.067 401.55 176.642 400.783 176.258 400.017C175.875 399.25 176.258 396.758 177.217 395.992C178.175 395.225 176.833 390.242 177.792 389.092C178.75 387.75 180.858 384.683 180.475 382.192C180.092 379.7 180.858 378.55 181.625 376.633C182.392 374.717 178.942 373.567 182.392 369.925C182.967 369.35 183.733 365.517 183.158 363.025C182.583 360.533 185.65 363.6 186.608 366.475C187.567 369.35 187.375 374.142 188.717 375.675C190.058 377.017 191.975 379.125 190.25 380.467C188.525 381.808 192.933 385.258 192.358 386.792C191.783 388.325 191.975 390.817 192.358 391.583C192.933 392.35 196.767 393.5 194.467 396.375C191.975 399.25 193.892 399.825 195.233 400.783C196.575 401.742 197.917 405.192 193.892 406.15C189.675 406.725 186.608 407.3 183.733 407.3Z" fill="#5A7D52"/>
<path opacity="0.37" d="M185.075 412.092C191.003 412.092 195.808 411.148 195.808 409.983C195.808 408.819 191.003 407.875 185.075 407.875C179.147 407.875 174.342 408.819 174.342 409.983C174.342 411.148 179.147 412.092 185.075 412.092Z" fill="#56664B"/>
<path opacity="0.23" d="M195.042 400.4C194.658 400.017 194.083 399.825 193.7 399.442C193.508 400.017 194.275 401.358 192.933 401.167C191.017 400.975 191.017 395.8 189.483 397.717C187.95 399.633 182.583 398.675 181.433 397.333C180.283 395.992 183.733 394.075 183.542 392.733C183.35 391.392 180.475 392.158 180.092 391.008C179.708 389.667 184.5 386.025 183.35 385.45C182.2 384.875 180.092 379.508 180.092 379.317C179.9 380.083 179.9 380.85 180.092 382C180.475 384.492 178.367 387.558 177.408 388.9C176.45 390.242 177.792 395.225 176.833 395.8C175.875 396.567 175.492 399.058 175.875 399.825C176.258 400.592 175.683 401.358 174.15 403.275C171.658 406.342 183.35 407.108 183.35 407.108C186.225 407.108 189.292 406.533 193.317 405.575C197.917 404.808 196.383 401.358 195.042 400.4Z" fill="#3A5C31"/>
<path opacity="0.26" d="M186.417 370.308C186.992 374.142 185.65 373.95 186.417 375.1C187.183 376.25 189.1 376.633 188.333 377.592C187.567 378.55 185.65 380.85 186.992 382C188.525 383.342 191.017 383.725 190.25 386.408C189.483 389.092 187.758 391.008 189.292 391.583C190.633 391.967 193.7 392.925 195.042 394.65C195.233 392.925 192.55 391.967 192.167 391.392C191.592 390.625 191.592 388.133 192.167 386.6C192.742 385.067 188.333 381.617 190.058 380.275C191.783 378.933 189.867 377.017 188.525 375.483C187.183 374.142 187.375 369.35 186.417 366.283C185.458 363.408 182.392 360.342 182.967 362.833C183.158 363.6 183.158 364.367 183.158 365.133C184.308 366.092 186.033 367.817 186.417 370.308Z" fill="#DCFFB6"/>
<path d="M52.2501 424.358C52.2501 424.358 53.2084 422.058 53.0167 418.608C52.6334 415.158 50.7167 413.625 50.7167 413.625L51.2917 412.667C51.2917 412.667 53.5917 414.775 54.3584 414.2C55.1251 413.817 58.0001 410.367 56.2751 406.917C54.5501 403.467 54.5501 403.467 54.5501 403.467L55.8917 403.275C55.8917 403.275 57.2334 406.342 58.0001 406.534C58.7667 406.725 59.5334 404.042 59.5334 404.042L62.0251 404.617C62.0251 404.617 58.3834 409.6 58.1917 410.942C58.0001 412.283 56.6584 414.392 58.0001 414.584C59.3417 414.775 60.6834 414.008 60.6834 414.008L61.6417 415.733C61.6417 415.733 58.3834 416.309 58.0001 417.267C57.6167 418.034 58.0001 424.358 58.0001 424.358C58.0001 424.358 55.8917 425.317 52.2501 424.358Z" fill="#7B4C3E"/>
<path d="M53.7831 420.717C53.7831 420.717 37.1081 419.758 40.7498 415.35C42.8581 412.667 43.6248 411.517 43.0498 410.558C42.4748 409.408 43.0498 405.767 44.3915 404.808C45.7331 403.85 43.8165 396.758 45.1581 394.842C46.4998 392.925 49.5665 388.517 48.9915 385.067C48.4165 381.617 49.3748 379.892 50.5248 377.017C51.6748 374.142 46.6915 372.8 51.6748 367.433C52.4415 366.475 53.7831 361.108 52.8248 357.658C51.8665 354.017 56.2748 358.425 57.6165 362.642C58.9581 366.858 58.7665 373.567 60.6831 375.675C62.5998 377.783 65.4748 380.467 62.7915 382.383C60.2998 384.3 66.6248 389.092 65.8581 391.392C65.0915 393.5 65.2831 396.95 65.8581 398.1C66.6248 399.25 72.1831 400.975 68.7331 404.808C65.2831 408.833 67.9665 409.792 69.8831 410.942C71.7998 412.283 73.7165 417.267 67.9665 418.417C62.0248 419.758 57.8081 420.717 53.7831 420.717Z" fill="#5A7D52"/>
<path opacity="0.37" d="M70.8417 424.358C70.8417 425.892 63.9417 427.233 55.7 427.233C47.2667 427.233 40.5584 425.892 40.5584 424.358C40.5584 422.825 47.4584 421.483 55.7 421.483C63.9417 421.483 70.8417 422.825 70.8417 424.358Z" fill="#56664B"/>
<path opacity="0.23" d="M69.6918 410.942C69.1168 410.558 68.3501 410.175 67.7751 409.6C67.5834 410.367 68.5418 412.283 66.8168 412.092C64.1334 411.9 64.1334 404.617 62.0251 407.3C59.9168 409.983 52.0584 408.642 50.5251 406.917C48.9918 405.192 53.7834 402.508 53.5918 400.4C53.4001 398.483 49.3751 399.633 48.8001 397.908C48.2251 396.183 54.9334 390.817 53.4001 390.05C51.6751 389.283 48.9918 381.617 48.8001 381.425C48.6084 382.575 48.6084 383.725 48.8001 385.067C49.3751 388.517 46.3084 392.925 44.9668 394.842C43.6251 396.758 45.3501 403.85 44.2001 404.808C42.8584 405.767 42.2834 409.408 42.8584 410.558C43.4334 411.708 42.6668 412.858 40.5584 415.35C36.9168 419.758 53.5918 420.717 53.5918 420.717C57.6168 420.908 61.8334 419.758 67.5834 418.608C73.7168 417.267 71.6084 412.283 69.6918 410.942Z" fill="#3A5C31"/>
<path opacity="0.26" d="M57.6167 368.2C58.575 373.567 56.6584 373.375 57.6167 374.908C58.575 376.442 61.45 377.208 60.3 378.55C59.3417 379.892 56.4667 383.15 58.575 384.875C60.6834 386.6 64.325 387.367 63.175 391.008C62.025 394.842 59.5334 397.525 61.6417 398.292C63.5584 398.867 67.9667 400.208 69.6917 402.508C69.8834 400.017 66.2417 398.867 65.6667 397.908C64.9 396.758 64.9 393.308 65.6667 391.2C66.4334 389.092 60.1084 384.108 62.6 382.192C65.0917 380.275 62.2167 377.592 60.4917 375.483C58.575 373.375 58.9584 366.667 57.425 362.45C56.0834 358.233 51.675 354.017 52.6334 357.467C52.825 358.425 53.0167 359.575 53.0167 360.725C54.55 362.258 56.85 364.75 57.6167 368.2Z" fill="#DCFFB6"/>
</g>
<defs>
<linearGradient id="paint0_linear_1512_10128" x1="260.857" y1="224.45" x2="260.857" y2="446.783" gradientUnits="userSpaceOnUse">
<stop stop-color="white" stop-opacity="0.8"/>
<stop offset="1" stop-color="white" stop-opacity="0"/>
</linearGradient>
<linearGradient id="paint1_linear_1512_10128" x1="1217.36" y1="164.45" x2="1217.36" y2="386.783" gradientUnits="userSpaceOnUse">
<stop stop-color="white" stop-opacity="0.8"/>
<stop offset="1" stop-color="white" stop-opacity="0"/>
</linearGradient>
<linearGradient id="paint2_linear_1512_10128" x1="946.539" y1="401.067" x2="948.457" y2="644.68" gradientUnits="userSpaceOnUse">
<stop offset="0.00627475" stop-color="#87BC61"/>
<stop offset="1" stop-color="#637353"/>
</linearGradient>
</defs>
</svg>
