<svg version="1.1" xmlns="http://www.w3.org/2000/svg" xmlns:xlink="http://www.w3.org/1999/xlink" x="0px" y="0px" viewBox="0 0 512 512" style="enable-background:new 0 0 512 512;" xml:space="preserve">
<g id="_x35_44_x2C__Green_x2C__Laboratory_x2C__Research_x2C__Science">
	<g>
		<g>
			<g id="XMLID_28067_">
				<g>
					<g>
						<circle style="fill: rgb(230, 190, 46);" cx="429.75" cy="108.5" r="25" id="id_136"></circle>
					</g>
					<g>
						<circle style="fill: rgb(224, 191, 72);" cx="89.75" cy="148.5" r="20" id="id_137"></circle>
					</g>
					<g>
						<path style="fill: rgb(222, 182, 36);" d="M313.89,34.36c3.62,3.61,5.86,8.61,5.86,14.14c0,11.05-8.95,20-20,20h-5h-70h-5
							c-5.52,0-10.52-2.24-14.14-5.86c-3.62-3.61-5.86-8.61-5.86-14.14c0-11.05,8.95-20,20-20h80
							C305.27,28.5,310.27,30.74,313.89,34.36z" id="id_138"></path>
					</g>
					<g>
						<path style="fill: rgb(224, 203, 126);" d="M294.75,93.5v25v25v23.85c71.53,15.96,125,79.81,125,156.15c0,88.37-71.63,160-160,160
							s-160-71.63-160-160c0-76.34,53.47-140.19,125-156.15V68.5h70V93.5z M261.09,354.36c-1.82-11.561-6.92-21.99-15.44-29.87
							c-13.56-12.51-32.87-15.91-52.27-11.13c-3.23,19.72,1.69,38.7,15.24,51.22c13.55,12.51,32.86,15.91,52.26,11.13
							c0-0.01,0-0.03,0.01-0.04c0.07-0.439,0.13-0.859,0.2-1.3c0.061,0.44,0.13,0.86,0.19,1.3c0.01,0.01,0.01,0.03,0.01,0.04
							c19.4,4.78,38.71,1.38,52.26-11.13c13.561-12.52,18.47-31.5,15.24-51.22c-19.4-4.78-38.71-1.38-52.26,11.13
							C268.01,332.37,262.9,342.8,261.09,354.36z M286.76,265.16c0-16.72-10-31.68-25.72-41.66c-15.72,9.98-25.71,24.94-25.71,41.66
							c0,16.729,9.99,31.68,25.71,41.66C276.76,296.84,286.76,281.89,286.76,265.16z" id="id_139"></path>
					</g>
					<g>
						<path style="fill:#C6E14D;" d="M261.28,375.67c-0.061-0.439-0.13-0.859-0.19-1.3v-20.01c1.811-11.561,6.92-21.99,15.44-29.87
							c13.55-12.51,32.859-15.91,52.26-11.13c3.229,19.72-1.68,38.7-15.24,51.22c-13.55,12.51-32.859,15.91-52.26,11.13
							C261.29,375.7,261.29,375.68,261.28,375.67z" id="id_140"></path>
					</g>
					<g>
						<circle cx="469.75" cy="296" r="7.5" id="id_141"></circle>
					</g>
					<g>
						<circle cx="432.25" cy="436" r="7.5" id="id_142"></circle>
					</g>
					<g>
						<circle cx="382.25" cy="146" r="7.5" id="id_143"></circle>
					</g>
					<g>
						<circle cx="367.25" cy="46" r="7.5" id="id_144"></circle>
					</g>
					<g>
						<path style="fill:#C6E14D;" d="M261.04,223.5c15.72,9.98,25.72,24.94,25.72,41.66c0,16.729-10,31.68-25.72,41.66
							c-15.72-9.98-25.71-24.931-25.71-41.66C235.33,248.44,245.32,233.48,261.04,223.5z" id="id_145"></path>
					</g>
					<g>
						<path style="fill:#C6E14D;" d="M260.89,375.67c-0.01,0.01-0.01,0.03-0.01,0.04c-19.4,4.78-38.71,1.38-52.26-11.13
							c-13.55-12.52-18.47-31.5-15.24-51.22c19.4-4.78,38.71-1.38,52.27,11.13c8.52,7.88,13.62,18.31,15.44,29.87v20.01
							C261.02,374.81,260.96,375.23,260.89,375.67z" id="id_146"></path>
					</g>
					<g>
						<circle cx="157.25" cy="96" r="7.5" id="id_147"></circle>
					</g>
					<g>
						<circle cx="82.25" cy="421" r="7.5" id="id_148"></circle>
					</g>
					<g>
						<circle cx="42.25" cy="266" r="7.5" id="id_149"></circle>
					</g>
				</g>
				<g>
					<g>
						<path d="M259.75,488.5c-90.981,0-165-74.019-165-165c0-37.732,13.067-74.62,36.794-103.867
							c22.534-27.778,53.734-47.64,88.206-56.239V68.5c0-2.761,2.239-5,5-5s5,2.239,5,5v98.85c0,2.342-1.626,4.37-3.911,4.88
							C155.675,187.885,104.75,251.503,104.75,323.5c0,85.468,69.533,155,155,155c85.468,0,155-69.532,155-155
							c0-71.997-50.925-135.615-121.089-151.27c-2.285-0.51-3.911-2.538-3.911-4.88V68.5c0-2.761,2.238-5,5-5s5,2.239,5,5v94.894
							c34.473,8.599,65.673,28.461,88.207,56.239c23.727,29.248,36.793,66.135,36.793,103.867
							C424.75,414.481,350.731,488.5,259.75,488.5z" id="id_150"></path>
					</g>
					<g>
						<path d="M299.75,73.5h-80c-6.675,0-12.953-2.601-17.676-7.324c-4.721-4.709-7.324-10.988-7.324-17.676
							c0-13.785,11.215-25,25-25h80c6.674,0,12.951,2.601,17.675,7.324c4.722,4.709,7.325,10.988,7.325,17.676
							C324.75,62.285,313.535,73.5,299.75,73.5z M219.75,33.5c-8.271,0-15,6.729-15,15c0,4.012,1.559,7.776,4.391,10.6
							c2.839,2.839,6.605,4.4,10.609,4.4h80c8.272,0,15-6.729,15-15c0-4.011-1.56-7.776-4.391-10.6
							c-2.84-2.839-6.607-4.4-10.609-4.4H219.75z" id="id_151"></path>
					</g>
					<g>
						<path d="M259.75,443.5c-66.168,0-120-53.832-120-120c0-12.995,2.068-25.778,6.148-37.994c0.875-2.619,3.707-4.033,6.326-3.158
							c2.62,0.874,4.034,3.707,3.159,6.326c-3.738,11.192-5.633,22.91-5.633,34.826c0,60.654,49.346,110,110,110s110-49.346,110-110
							c0-11.915-1.895-23.632-5.633-34.827c-0.874-2.619,0.54-5.451,3.16-6.325c2.612-0.877,5.451,0.538,6.326,3.159
							c4.078,12.218,6.147,25,6.147,37.993C379.75,389.668,325.918,443.5,259.75,443.5z" id="id_152"></path>
					</g>
					<g>
						<path d="M261.09,359.36c-2.762,0-5-2.238-5-5v-47.54c0-2.762,2.238-5,5-5c2.762,0,5,2.238,5,5v47.54
							C266.09,357.122,263.852,359.36,261.09,359.36z" id="id_153"></path>
					</g>
					<g>
						<path d="M261.09,408.5c-2.762,0-5-2.238-5-5v-29.13c0-2.762,2.238-5,5-5c2.762,0,5,2.238,5,5v29.13
							C266.09,406.262,263.852,408.5,261.09,408.5z" id="id_154"></path>
					</g>
					<g>
						<path d="M261.04,311.82c-0.931,0-1.862-0.26-2.68-0.779c-17.814-11.309-28.03-28.032-28.03-45.881
							c0-17.849,10.217-34.572,28.03-45.881c1.635-1.038,3.725-1.038,5.359,0c17.82,11.314,28.04,28.036,28.04,45.881
							c0,17.845-10.22,34.567-28.04,45.881C262.902,311.56,261.971,311.82,261.04,311.82z M261.04,229.516
							c-13.206,9.329-20.71,22.174-20.71,35.644c0,13.47,7.504,26.314,20.71,35.644c13.211-9.333,20.72-22.178,20.72-35.644
							C281.76,251.694,274.251,238.849,261.04,229.516z" id="id_155"></path>
					</g>
					<g>
						<path d="M261.251,380.68c-1.278,0-2.555-0.482-3.526-1.454c-1.953-1.953-1.973-5.099-0.02-7.051l0.04-0.04
							c0.055-0.056,0.111-0.109,0.169-0.162l32.47-29.56c2.042-1.858,5.205-1.711,7.064,0.331c1.859,2.042,1.711,5.204-0.331,7.063
							l-32.449,29.541C263.706,380.234,262.478,380.68,261.251,380.68z" id="id_156"></path>
					</g>
					<g>
						<path d="M277.868,382.788c-5.765,0-11.726-0.733-17.775-2.224c-1.863-0.459-3.266-1.93-3.679-3.741
							c-0.037-0.155-0.066-0.313-0.088-0.471l-0.191-1.302c-0.376-2.735,1.537-5.258,4.273-5.634c1.897-0.265,3.7,0.583,4.746,2.041
							c17.506,3.59,33.783-0.194,45.003-10.552c11.089-10.238,16.165-25.923,14.16-43.415c-17.271-3.384-33.307,0.434-44.396,10.673
							c-7.396,6.839-12.2,16.166-13.893,26.97c-0.427,2.728-2.983,4.594-5.713,4.166c-2.729-0.427-4.594-2.985-4.166-5.713
							c2.044-13.051,7.917-24.381,16.985-32.768c14.302-13.206,35.02-17.692,56.851-12.313c1.943,0.479,3.414,2.071,3.738,4.047
							c3.635,22.195-2.482,42.498-16.783,55.701C306.604,377.798,292.909,382.787,277.868,382.788z" id="id_157"></path>
					</g>
					<g>
						<path d="M260.9,380.7c-1.246,0-2.491-0.467-3.455-1.404l-32.392-29.488c-2.041-1.859-2.19-5.021-0.331-7.063
							c1.859-2.04,5.022-2.189,7.063-0.331l32.47,29.56c0.058,0.053,0.114,0.106,0.169,0.162c1.953,1.952,1.973,5.138,0.021,7.091
							C263.464,380.207,262.182,380.7,260.9,380.7z" id="id_158"></path>
					</g>
					<g>
						<path d="M244.301,382.788c-15.042,0-28.734-4.989-39.073-14.534c-14.3-13.213-20.417-33.515-16.783-55.702
							c0.323-1.976,1.794-3.567,3.738-4.046c21.825-5.379,42.547-0.892,56.856,12.31c9.06,8.379,14.933,19.708,16.989,32.768
							c0.04,0.257,0.061,0.517,0.061,0.777v20.01c0,0.264-0.021,0.527-0.063,0.788l-0.2,1.302c-0.02,0.122-0.044,0.242-0.072,0.361
							c-0.412,1.813-1.815,3.284-3.679,3.743C256.029,382.055,250.065,382.788,244.301,382.788z M197.852,317.491
							c-2.004,17.486,3.072,33.171,14.162,43.416c11.02,10.174,26.927,14.007,44.077,10.733V354.76
							c-1.755-10.655-6.533-19.846-13.835-26.599C231.161,317.927,215.124,314.109,197.852,317.491z" id="id_159"></path>
					</g>
					<g>
						<path d="M294.75,98.5h-25c-2.762,0-5-2.239-5-5s2.238-5,5-5h25c2.762,0,5,2.239,5,5S297.512,98.5,294.75,98.5z" id="id_160"></path>
					</g>
					<g>
						<path d="M294.75,123.5h-25c-2.762,0-5-2.239-5-5s2.238-5,5-5h25c2.762,0,5,2.239,5,5S297.512,123.5,294.75,123.5z" id="id_161"></path>
					</g>
					<g>
						<path d="M294.75,148.5h-25c-2.762,0-5-2.239-5-5s2.238-5,5-5h25c2.762,0,5,2.239,5,5S297.512,148.5,294.75,148.5z" id="id_162"></path>
					</g>
					<g>
						<path d="M429.75,138.5c-16.542,0-30-13.458-30-30s13.458-30,30-30s30,13.458,30,30S446.292,138.5,429.75,138.5z M429.75,88.5
							c-11.028,0-20,8.972-20,20s8.972,20,20,20s20-8.972,20-20S440.778,88.5,429.75,88.5z" id="id_163"></path>
					</g>
					<g>
						<path d="M89.75,173.5c-13.785,0-25-11.215-25-25s11.215-25,25-25s25,11.215,25,25S103.535,173.5,89.75,173.5z M89.75,133.5
							c-8.271,0-15,6.729-15,15s6.729,15,15,15s15-6.729,15-15S98.021,133.5,89.75,133.5z" id="id_164"></path>
					</g>
				</g>
			</g>
		</g>
	</g>
</g>
<g id="Layer_1">
</g>
</svg>