<svg width="64" height="64" viewBox="0 0 64 64" fill="none" xmlns="http://www.w3.org/2000/svg">
<path d="M52.7582 15.7278L44.2729 7.24255L28.7166 22.7989L37.2019 31.2842L52.7582 15.7278Z" fill="#AAE1F9" id="id_101"></path>
<path d="M44.272 19.213C42.5851 20.8981 40.3512 21.9245 37.9738 22.1067C35.5964 22.289 33.2321 21.6152 31.308 20.207L28.716 22.8L37.2 31.284L52.757 15.728L50.257 13.228L44.272 19.213Z" fill="#57B7EB" id="id_102"></path>
<path d="M35.7862 29.8696L30.1293 24.2128L27.3009 27.0412L32.9578 32.698L35.7862 29.8696Z" fill="#dbc44f" id="id_103"></path>
<path d="M31.5448 31.2844L28.7164 28.4559L24.4738 32.6986L27.3022 35.527L31.5448 31.2844Z" fill="#AAE1F9" id="id_104"></path>
<path d="M52.7573 15.728L47.1005 10.0712L31.5441 25.6275L37.201 31.2844L52.7573 15.728Z" fill="#D0D8DA" id="id_105"></path>
<path d="M44.272 19.213C43.1069 20.3792 41.6714 21.2389 40.0933 21.7154C38.5153 22.1919 36.8438 22.2705 35.228 21.944L31.544 25.627L37.2 31.284L52.757 15.728L50.257 13.228L44.272 19.213Z" fill="#d9c24e" id="id_106"></path>
<path d="M46 52L28.982 50.379C27.8926 50.275 26.8809 49.7688 26.1447 48.9591C25.4084 48.1494 25.0003 47.0944 25 46H46V52Z" fill="#D0D8DA" id="id_107"></path>
<path d="M39.747 46C39.5346 46.8236 39.0259 47.54 38.3184 48.0121C37.6108 48.4843 36.7541 48.679 35.912 48.559L34.97 48.424C34.3195 48.3295 33.7095 48.0512 33.2119 47.6218C32.7143 47.1923 32.3497 46.6297 32.161 46H25C25.0003 47.0944 25.4084 48.1494 26.1447 48.9591C26.8809 49.7688 27.8926 50.275 28.982 50.379L46 52V46H39.747Z" fill="#d6bf49" id="id_108"></path>
<path d="M45 23V28C46.9023 29.9022 48.4112 32.1604 49.4407 34.6457C50.4702 37.1311 51 39.7949 51 42.485V43H57C57 39.0442 55.9632 35.1575 53.993 31.7273C52.0228 28.2971 49.1879 25.4432 45.771 23.45L45 23Z" fill="#D0D8DA" id="id_109"></path>
<path d="M49.647 29.4C50.1676 28.8338 50.5514 28.1557 50.769 27.418C49.2985 25.8654 47.615 24.5295 45.769 23.45L45 23V28C46.9023 29.9022 48.4112 32.1604 49.4407 34.6457C50.4702 37.1311 51 39.7949 51 42.485V43H57C56.997 41.6584 56.8745 40.3198 56.634 39V39C56.016 38.9961 55.4151 38.7965 54.9176 38.4298C54.4201 38.0631 54.0516 37.5482 53.865 36.959C52.9572 34.1919 51.5252 31.6256 49.647 29.4V29.4Z" fill="#e0c436" id="id_110"></path>
<path d="M55.5854 10.0715L49.9286 4.41467L45.6859 8.65731L51.3428 14.3142L55.5854 10.0715Z" fill="#D0D8DA" id="id_111"></path>
<path d="M25 56H41V61H20C20 59.6739 20.5268 58.4021 21.4645 57.4645C22.4021 56.5268 23.6739 56 25 56V56Z" fill="#D0D8DA" id="id_112"></path>
<path d="M51 41C53.6522 41 56.1957 42.0536 58.0711 43.9289C59.9464 45.8043 61 48.3478 61 51V51C61 53.6522 59.9464 56.1957 58.0711 58.0711C56.1957 59.9464 53.6522 61 51 61H41V51C41 48.3478 42.0536 45.8043 43.9289 43.9289C45.8043 42.0536 48.3478 41 51 41V41Z" fill="#AAE1F9" id="id_113"></path>
<path d="M17 42H33C33 43.0609 32.5786 44.0783 31.8284 44.8284C31.0783 45.5786 30.0609 46 29 46H21C19.9391 46 18.9217 45.5786 18.1716 44.8284C17.4214 44.0783 17 43.0609 17 42Z" fill="#AAE1F9" id="id_114"></path>
<path d="M50 54C52.2091 54 54 52.2091 54 50C54 47.7909 52.2091 46 50 46C47.7909 46 46 47.7909 46 50C46 52.2091 47.7909 54 50 54Z" fill="#57B7EB" id="id_115"></path>
<path d="M57 58.0001C53.5522 58.0001 50.2456 56.6304 47.8076 54.1924C45.3696 51.7545 44 48.4479 44 45.0001C44 44.6001 44.024 44.2001 44.06 43.8101C43.0916 44.7404 42.3214 45.8569 41.7955 47.0925C41.2697 48.3281 40.9991 49.6572 41 51.0001V61.0001H51C52.3428 61.001 53.672 60.7304 54.9076 60.2045C56.1432 59.6787 57.2597 58.9084 58.19 57.9401C57.8 57.9761 57.4 58.0001 57 58.0001Z" fill="#57B7EB" id="id_116"></path>
<path d="M51 53C53.2091 53 55 51.2091 55 49C55 46.7909 53.2091 45 51 45C48.7909 45 47 46.7909 47 49C47 51.2091 48.7909 53 51 53Z" fill="#D0D8DA" id="id_117"></path>
<path d="M53 51C52.3314 51.0025 51.6729 50.8367 51.0852 50.518C50.4975 50.1992 49.9994 49.7377 49.6368 49.1759C49.2743 48.6142 49.0589 47.9702 49.0105 47.3034C48.9621 46.6365 49.0823 45.9682 49.36 45.36C48.7695 45.6248 48.2521 46.0292 47.8525 46.5383C47.4528 47.0474 47.1828 47.6459 47.0657 48.2825C46.9486 48.919 46.988 49.5745 47.1803 50.1924C47.3727 50.8104 47.7123 51.3724 48.1699 51.8301C48.6276 52.2877 49.1896 52.6273 49.8075 52.8197C50.4255 53.012 51.081 53.0513 51.7175 52.9343C52.3541 52.8172 52.9526 52.5472 53.4617 52.1475C53.9708 51.7479 54.3752 51.2305 54.64 50.64C54.1254 50.8758 53.5661 50.9986 53 51V51Z" fill="#e6cc4a" id="id_118"></path>
<path d="M38 56C38 56.7956 37.6839 57.5587 37.1213 58.1213C36.5587 58.6839 35.7956 59 35 59H28C27.2044 59 26.4413 58.6839 25.8787 58.1213C25.3161 57.5587 25 56.7956 25 56C23.6739 56 22.4021 56.5268 21.4645 57.4645C20.5268 58.4021 20 59.6739 20 61H41V56H38Z" fill="#c2ab36" id="id_119"></path>
<path d="M23 44C22.3007 43.9985 21.6142 43.8128 21.0094 43.4617C20.4047 43.1107 19.9031 42.6065 19.555 42H17C17 43.0609 17.4214 44.0783 18.1716 44.8284C18.9217 45.5786 19.9391 46 21 46H29C29.6993 45.9985 30.3858 45.8128 30.9906 45.4617C31.5953 45.1107 32.0969 44.6065 32.445 44H23Z" fill="#57B7EB" id="id_120"></path>
<path d="M48.515 8.48498L47.186 7.15698L45.686 8.65698L51.343 14.314L55.586 10.071L54.077 8.56198C53.3219 9.27494 52.3188 9.66568 51.2804 9.65131C50.242 9.63693 49.2501 9.21857 48.515 8.48498V8.48498Z" fill="#93999A" id="id_121"></path>
<path d="M44 19C42.9816 18.9961 41.9865 19.3044 41.1488 19.8834C40.311 20.4623 39.6709 21.2842 39.3145 22.2382C38.9582 23.1922 38.9029 24.2325 39.156 25.2189C39.4091 26.2053 39.9584 27.0904 40.73 27.755L47.755 20.73C47.29 20.189 46.7139 19.7545 46.066 19.456C45.418 19.1574 44.7134 19.0019 44 19V19Z" fill="#dec962" id="id_122"></path>
<path d="M46 29C48.7614 29 51 26.7614 51 24C51 21.2386 48.7614 19 46 19C43.2386 19 41 21.2386 41 24C41 26.7614 43.2386 29 46 29Z" fill="#AAE1F9" id="id_123"></path>
<path d="M48 27C46.6739 27 45.4021 26.4732 44.4645 25.5355C43.5268 24.5979 43 23.3261 43 22C43.0055 21.1684 43.2205 20.3516 43.625 19.625C42.9405 19.9931 42.3515 20.5161 41.9052 21.1524C41.4588 21.7887 41.1675 22.5205 41.0544 23.2895C40.9413 24.0584 41.0096 24.8431 41.2539 25.581C41.4981 26.3188 41.9116 26.9893 42.4611 27.5389C43.0107 28.0884 43.6812 28.5019 44.419 28.7461C45.1568 28.9904 45.9416 29.0587 46.7105 28.9456C47.4795 28.8325 48.2113 28.5412 48.8476 28.0948C49.4838 27.6485 50.0069 27.0595 50.375 26.375C49.6484 26.7795 48.8316 26.9945 48 27Z" fill="#57B7EB" id="id_124"></path>
<path d="M28.716 28.4561L27.686 29.4851C28.1228 30.0603 28.3368 30.7741 28.2885 31.4948C28.2401 32.2155 27.9327 32.8943 27.423 33.4061L26.3 34.5271L27.3 35.5271L31.542 31.2841L28.716 28.4561Z" fill="#57B7EB" id="id_125"></path>
<path d="M30.13 24.213L29.13 25.213L31.665 27.749C32.175 28.2604 32.4827 28.939 32.5312 29.6596C32.5797 30.3801 32.3658 31.0939 31.929 31.669L32.958 32.7L35.787 29.872L30.13 24.213Z" fill="#e6c831" id="id_126"></path>
<path d="M4.758 3.87797C5.23273 3.52198 5.77471 3.26595 6.35119 3.12535C6.92767 2.98475 7.52668 2.96251 8.112 3.05997L9.241 3.24797C10.194 3.40717 11.1042 3.76016 11.9154 4.28511C12.7265 4.81006 13.4214 5.49581 13.957 6.29997L15.865 9.16197C16.1278 9.55549 16.3487 9.97544 16.524 10.415L16.747 10.971C17.2039 12.1154 17.3429 13.362 17.1493 14.579C16.9557 15.796 16.4366 16.9379 15.647 17.884V17.884C14.9136 18.7644 13.9705 19.4463 12.9046 19.8669C11.8386 20.2875 10.684 20.4334 9.547 20.291L7.079 19.982C6.50171 19.9096 5.9449 19.7217 5.44171 19.4297C4.93852 19.1376 4.49923 18.7473 4.15 18.282L3.861 17.895C3.37827 17.2513 3.08424 16.486 3.01182 15.6847C2.93941 14.8834 3.09148 14.0777 3.451 13.358V13.358C3.70559 12.8492 3.85738 12.2953 3.8977 11.7279C3.93803 11.1604 3.86609 10.5906 3.686 10.051L3.247 8.71297C2.95965 7.85043 2.95095 6.91935 3.22214 6.0516C3.49332 5.18384 4.03064 4.4234 4.758 3.87797V3.87797Z" fill="#c6e66e" id="id_127"></path>
<path d="M9.26001 15.751C10.3646 15.751 11.26 14.8555 11.26 13.751C11.26 12.6464 10.3646 11.751 9.26001 11.751C8.15544 11.751 7.26001 12.6464 7.26001 13.751C7.26001 14.8555 8.15544 15.751 9.26001 15.751Z" fill="#ffffff" id="id_128"></path>
<path d="M12.553 18.288C11.7891 18.1928 11.0587 17.9176 10.4219 17.4851C9.78509 17.0526 9.26007 16.475 8.89001 15.8L7.40701 13.089C6.89766 12.1771 6.70594 11.1217 6.86201 10.089C6.97014 9.40354 6.91183 8.70215 6.69201 8.04398L6.24701 6.71298C6.04893 6.11256 5.98487 5.47601 6.05933 4.84816C6.13379 4.22031 6.34498 3.61641 6.67801 3.07898C6.05602 3.17273 5.46216 3.40179 4.93833 3.75003C4.4145 4.09826 3.97345 4.55718 3.64628 5.09442C3.31911 5.63166 3.11379 6.23414 3.04481 6.85936C2.97582 7.48459 3.04484 8.11733 3.24701 8.71298L3.69201 10.049C3.8721 10.5886 3.94404 11.1584 3.90372 11.7259C3.86339 12.2933 3.7116 12.8472 3.45701 13.356C3.09749 14.0758 2.94542 14.8814 3.01784 15.6827C3.09025 16.484 3.38428 17.2493 3.86701 17.893L4.15601 18.28C4.50524 18.7453 4.94453 19.1356 5.44772 19.4277C5.95091 19.7197 6.50773 19.9076 7.08501 19.98L9.55301 20.289C10.6672 20.4271 11.7983 20.2885 12.8462 19.8854C13.8941 19.4823 14.8266 18.8272 15.561 17.978C14.5941 18.3046 13.5662 18.4105 12.553 18.288V18.288Z" fill="#84de39" id="id_129"></path>
<path d="M8.839 15.7049L7.407 13.0889C7.401 13.0779 7.397 13.0659 7.391 13.0549C7.28838 13.3231 7.24524 13.6104 7.26456 13.897C7.28389 14.1835 7.36521 14.4624 7.50291 14.7144C7.64061 14.9664 7.8314 15.1855 8.06208 15.3565C8.29277 15.5275 8.55785 15.6464 8.839 15.7049V15.7049Z" fill="#FCBC04" id="id_130"></path>
<path d="M46 25C46.5523 25 47 24.5523 47 24C47 23.4477 46.5523 23 46 23C45.4477 23 45 23.4477 45 24C45 24.5523 45.4477 25 46 25Z" fill="#e0c436" id="id_131"></path>
<path d="M56 49C56 48.0111 55.7068 47.0444 55.1574 46.2222C54.6079 45.3999 53.8271 44.759 52.9134 44.3806C51.9998 44.0022 50.9945 43.9031 50.0245 44.0961C49.0546 44.289 48.1637 44.7652 47.4645 45.4645C46.7652 46.1637 46.289 47.0546 46.0961 48.0245C45.9031 48.9945 46.0022 49.9998 46.3806 50.9134C46.759 51.8271 47.3999 52.6079 48.2222 53.1574C49.0444 53.7068 50.0111 54 51 54C52.3256 53.9984 53.5964 53.4711 54.5338 52.5338C55.4711 51.5964 55.9984 50.3256 56 49V49ZM48 49C48 48.4067 48.176 47.8266 48.5056 47.3333C48.8352 46.8399 49.3038 46.4554 49.852 46.2284C50.4001 46.0013 51.0033 45.9419 51.5853 46.0576C52.1672 46.1734 52.7018 46.4591 53.1213 46.8787C53.5409 47.2982 53.8266 47.8328 53.9424 48.4147C54.0581 48.9967 53.9987 49.5999 53.7716 50.1481C53.5446 50.6962 53.1601 51.1648 52.6667 51.4944C52.1734 51.8241 51.5933 52 51 52C50.2044 52 49.4413 51.6839 48.8787 51.1213C48.3161 50.5587 48 49.7957 48 49Z" fill="#dbc039" id="id_132"></path>
<path d="M51 50C51.5523 50 52 49.5523 52 49C52 48.4477 51.5523 48 51 48C50.4477 48 50 48.4477 50 49C50 49.5523 50.4477 50 51 50Z" fill="#e0c331" id="id_133"></path>
<path d="M57.984 42.508C57.9042 38.5466 56.8288 34.6689 54.857 31.232C53.8927 29.5626 52.7251 28.0192 51.381 26.637C51.8296 25.7274 52.0402 24.7189 51.9933 23.7058C51.9464 22.6927 51.6434 21.708 51.1127 20.8437C50.582 19.9794 49.8409 19.2638 48.9585 18.7637C48.0762 18.2635 47.0815 17.9952 46.0674 17.9838C45.0532 17.9723 44.0527 18.2182 43.1594 18.6983C42.266 19.1784 41.5089 19.8771 40.9588 20.7292C40.4088 21.5813 40.0837 22.5589 40.0139 23.5707C39.9442 24.5826 40.1321 25.5955 40.56 26.515L37.2 29.866L32.959 25.626L47.1 11.485L51.345 15.73L50.628 16.447C50.4458 16.6356 50.345 16.8882 50.3473 17.1504C50.3496 17.4126 50.4548 17.6635 50.6402 17.8489C50.8256 18.0343 51.0764 18.1394 51.3386 18.1417C51.6008 18.144 51.8534 18.0432 52.042 17.861L53.466 16.437C53.6535 16.2495 53.7588 15.9952 53.7588 15.73C53.7588 15.4649 53.6535 15.2106 53.466 15.023L52.756 14.314L55.585 11.485L56.292 12.192C56.4806 12.3742 56.7332 12.475 56.9954 12.4727C57.2576 12.4704 57.5084 12.3653 57.6938 12.1799C57.8792 11.9945 57.9844 11.7436 57.9867 11.4814C57.989 11.2192 57.8882 10.9666 57.706 10.778L49.222 2.29304C49.0334 2.11088 48.7808 2.01009 48.5186 2.01237C48.2564 2.01465 48.0056 2.11981 47.8202 2.30522C47.6348 2.49063 47.5296 2.74144 47.5273 3.00364C47.525 3.26584 47.6258 3.51844 47.808 3.70704L48.515 4.41404L45.686 7.24304L44.977 6.53304C44.7858 6.35259 44.5329 6.25207 44.27 6.25207C44.0071 6.25207 43.7542 6.35259 43.563 6.53304L28.012 22.093C27.8245 22.2806 27.7192 22.5349 27.7192 22.8C27.7192 23.0652 27.8245 23.3195 28.012 23.507L28.712 24.207L26.6 26.334C26.507 26.4269 26.4333 26.5372 26.3829 26.6586C26.3326 26.78 26.3067 26.9101 26.3067 27.0415C26.3067 27.173 26.3326 27.3031 26.3829 27.4245C26.4333 27.5459 26.507 27.6562 26.6 27.749L27.307 28.456L23.771 31.991C23.5835 32.1786 23.4782 32.4329 23.4782 32.698C23.4782 32.9632 23.5835 33.2175 23.771 33.405L26.6 36.234C26.7875 36.4215 27.0418 36.5268 27.307 36.5268C27.5722 36.5268 27.8265 36.4215 28.014 36.234L31.544 32.7L32.251 33.407C32.3438 33.5 32.4541 33.5737 32.5754 33.624C32.6967 33.6743 32.8268 33.7002 32.9581 33.7002C33.0895 33.7003 33.2196 33.6745 33.3409 33.6242C33.4623 33.574 33.5726 33.5004 33.6655 33.4075C33.7584 33.3147 33.8321 33.2045 33.8824 33.0831C33.9327 32.9618 33.9587 32.8317 33.9587 32.7004C33.9587 32.569 33.9329 32.439 33.8827 32.3176C33.8325 32.1962 33.7588 32.086 33.666 31.993L28.716 27.044L30.132 25.628L30.832 26.328L30.839 26.338L30.85 26.346L36.495 31.991C36.6825 32.1785 36.9368 32.2838 37.202 32.2838C37.4672 32.2838 37.7215 32.1785 37.909 31.991L41.715 28.191C42.2646 28.7559 42.9203 29.2065 43.6446 29.5171C44.3689 29.8277 45.1474 29.9921 45.9355 30.0008C46.7235 30.0095 47.5055 29.8625 48.2365 29.568C48.9675 29.2736 49.6331 28.8376 50.195 28.285C51.3207 29.4828 52.3042 30.8065 53.126 32.23C54.699 34.9714 55.6514 38.0245 55.916 41.174C54.6431 40.5345 53.2574 40.1503 51.837 40.043C51.6186 38.0556 51.1235 36.1084 50.366 34.258C50.0646 33.5432 49.7241 32.8455 49.346 32.168C49.2182 31.9356 49.0032 31.7634 48.7485 31.6894C48.4937 31.6155 48.22 31.6457 47.9875 31.7735C47.755 31.9014 47.5829 32.1163 47.5089 32.3711C47.4349 32.6259 47.4652 32.8996 47.593 33.132C47.9354 33.7443 48.2439 34.3749 48.517 35.021C49.1778 36.6364 49.6184 38.3333 49.827 40.066C48.2058 40.2419 46.644 40.7758 45.2544 41.6291C43.8648 42.4824 42.6822 43.6338 41.792 45H32.974C33.6358 44.1397 33.9963 43.0855 34 42C34 41.7348 33.8946 41.4805 33.7071 41.2929C33.5196 41.1054 33.2652 41 33 41H17C16.7348 41 16.4804 41.1054 16.2929 41.2929C16.1054 41.4805 16 41.7348 16 42C16.0016 43.3256 16.5289 44.5965 17.4662 45.5338C18.4036 46.4712 19.6744 46.9985 21 47H24.094C24.3077 48.1515 24.8913 49.2017 25.7562 49.9913C26.6211 50.7809 27.7199 51.2667 28.886 51.375L40 52.43V55H25C23.4092 55.0016 21.884 55.6343 20.7591 56.7592C19.6342 57.884 19.0016 59.4092 19 61C19 61.2653 19.1054 61.5196 19.2929 61.7071C19.4804 61.8947 19.7348 62 20 62H37C37.2652 62 37.5196 61.8947 37.7071 61.7071C37.8946 61.5196 38 61.2653 38 61C38 60.7348 37.8946 60.4805 37.7071 60.2929C37.5196 60.1054 37.2652 60 37 60H21.126C21.3491 59.142 21.8504 58.3822 22.5514 57.8393C23.2523 57.2965 24.1134 57.0014 25 57H40V61C40 61.2653 40.1054 61.5196 40.2929 61.7071C40.4804 61.8947 40.7348 62 41 62H47.1C47.3652 62 47.6196 61.8947 47.8071 61.7071C47.9946 61.5196 48.1 61.2653 48.1 61C48.1 60.7348 47.9946 60.4805 47.8071 60.2929C47.6196 60.1054 47.3652 60 47.1 60H42V51C42 49.22 42.5278 47.48 43.5168 45.9999C44.5057 44.5199 45.9113 43.3663 47.5559 42.6851C49.2004 42.0039 51.01 41.8257 52.7558 42.173C54.5016 42.5202 56.1053 43.3774 57.364 44.6361C58.6226 45.8948 59.4798 47.4984 59.8271 49.2442C60.1743 50.9901 59.9961 52.7997 59.3149 54.4442C58.6337 56.0887 57.4802 57.4943 56.0001 58.4833C54.5201 59.4722 52.78 60 51 60C50.7348 60 50.4804 60.1054 50.2929 60.2929C50.1054 60.4805 50 60.7348 50 61C50 61.2653 50.1054 61.5196 50.2929 61.7071C50.4804 61.8947 50.7348 62 51 62C53.2655 61.9984 55.4752 61.2973 57.3273 59.9926C59.1793 58.6879 60.5834 56.8431 61.3475 54.7104C62.1117 52.5777 62.1987 50.261 61.5967 48.077C60.9946 45.8929 59.733 43.948 57.984 42.508V42.508ZM27.3 34.113L25.887 32.7L28.716 29.872L30.13 31.286L27.3 34.113ZM49.929 5.82804L54.172 10.071L51.343 12.9L47.1 8.65704L49.929 5.82804ZM44.27 8.65504L45.687 10.071L31.546 24.212L30.134 22.8L44.27 8.65504ZM46 28C45.2089 28 44.4355 27.7654 43.7777 27.3259C43.1199 26.8864 42.6072 26.2617 42.3045 25.5308C42.0017 24.7999 41.9225 23.9956 42.0769 23.2197C42.2312 22.4438 42.6122 21.731 43.1716 21.1716C43.731 20.6122 44.4437 20.2312 45.2196 20.0769C45.9956 19.9226 46.7998 20.0018 47.5307 20.3045C48.2616 20.6073 48.8864 21.12 49.3259 21.7778C49.7654 22.4356 50 23.2089 50 24C50 25.0609 49.5786 26.0783 48.8284 26.8285C48.0783 27.5786 47.0609 28 46 28ZM18.171 43H31.829C31.6214 43.5846 31.2381 44.0905 30.7316 44.4486C30.2251 44.8067 29.6203 44.9993 29 45H21C20.3797 44.9993 19.7749 44.8067 19.2684 44.4486C18.7619 44.0905 18.3786 43.5846 18.171 43ZM26.148 47H40.764C40.3364 48.0941 40.0882 49.2499 40.029 50.423L29.077 49.385C28.4074 49.3225 27.7714 49.0624 27.2499 48.6378C26.7284 48.2132 26.3449 47.6431 26.148 47V47Z" fill="#d6b92b" id="id_134"></path>
<path d="M16.419 18.521C17.3237 17.4369 17.9181 16.1282 18.1393 14.7337C18.3604 13.3391 18.2 11.9107 17.675 10.6L17.453 10.043C17.2523 9.53737 17 9.0538 16.7 8.59999C16.6271 8.49073 16.5334 8.39689 16.4243 8.32384C16.3151 8.25079 16.1927 8.19995 16.0639 8.17423C15.9351 8.14851 15.8025 8.14841 15.6737 8.17393C15.5448 8.19945 15.4223 8.2501 15.313 8.32299C15.2038 8.39587 15.1099 8.48956 15.0369 8.59871C14.9638 8.70786 14.913 8.83032 14.8873 8.95912C14.8353 9.21923 14.8888 9.48933 15.036 9.70999C15.2598 10.0461 15.4484 10.4043 15.599 10.779L15.821 11.335C16.2003 12.278 16.3266 13.3037 16.1875 14.3106C16.0484 15.3174 15.6486 16.2705 15.0278 17.0753C14.407 17.8801 13.5867 18.5087 12.6482 18.899C11.7096 19.2892 10.6854 19.4274 9.67701 19.3L7.20801 18.992C6.76471 18.9353 6.3372 18.7906 5.95064 18.5663C5.56407 18.342 5.22625 18.0427 4.95701 17.686L4.66701 17.298C4.29351 16.8039 4.06601 16.2149 4.01033 15.598C3.95465 14.9811 4.07302 14.361 4.35201 13.808C4.6667 13.1823 4.85427 12.5005 4.90387 11.8019C4.95348 11.1033 4.86414 10.4018 4.64101 9.73799L4.20001 8.39999C3.97841 7.73646 3.9714 7.01999 4.17998 6.35224C4.38856 5.6845 4.80213 5.09941 5.36201 4.67999C5.72899 4.40619 6.1474 4.2092 6.59224 4.10078C7.03708 3.99236 7.49921 3.97475 7.95101 4.04899L9.08101 4.23699C9.89846 4.37473 10.6792 4.67798 11.3752 5.12817C12.0713 5.57835 12.6681 6.16596 13.129 6.85499C13.2805 7.06555 13.5079 7.20901 13.7631 7.2551C14.0184 7.30118 14.2816 7.24628 14.4971 7.10198C14.7126 6.95768 14.8637 6.73527 14.9183 6.48171C14.973 6.22815 14.927 5.96327 14.79 5.74299C14.1772 4.82643 13.3835 4.04484 12.4577 3.44623C11.5318 2.84761 10.4933 2.44461 9.40601 2.26199L8.27601 2.07299C7.55763 1.95436 6.82271 1.98178 6.11517 2.1536C5.40763 2.32541 4.74198 2.63811 4.15801 3.07299C3.26112 3.74408 2.59874 4.68096 2.26516 5.75031C1.93157 6.81965 1.94377 7.96698 2.30001 9.02899L2.74501 10.365C3.02159 11.2038 2.95656 12.1178 2.56401 12.909C2.11718 13.7933 1.92717 14.7852 2.01555 15.772C2.10392 16.7588 2.46715 17.7011 3.06401 18.492L3.35401 18.88C3.78489 19.4515 4.32586 19.931 4.94501 20.2901C5.56416 20.6493 6.24896 20.8808 6.95901 20.971L9.42701 21.28C9.75377 21.3206 10.0827 21.341 10.412 21.341C11.5591 21.342 12.6923 21.0898 13.7307 20.6023C14.769 20.1149 15.687 19.4042 16.419 18.521Z" fill="#dec028" id="id_135"></path>
<path d="M9.26001 16.751C9.85335 16.751 10.4334 16.575 10.9267 16.2454C11.4201 15.9157 11.8046 15.4472 12.0316 14.899C12.2587 14.3508 12.3181 13.7476 12.2024 13.1657C12.0866 12.5838 11.8009 12.0492 11.3813 11.6297C10.9618 11.2101 10.4272 10.9244 9.84528 10.8086C9.26334 10.6929 8.66014 10.7523 8.11196 10.9793C7.56378 11.2064 7.09524 11.5909 6.7656 12.0843C6.43596 12.5776 6.26001 13.1576 6.26001 13.751C6.26001 14.5466 6.57608 15.3097 7.13869 15.8723C7.7013 16.4349 8.46436 16.751 9.26001 16.751V16.751ZM9.26001 12.751C9.45779 12.751 9.65113 12.8096 9.81558 12.9195C9.98003 13.0294 10.1082 13.1856 10.1839 13.3683C10.2596 13.551 10.2794 13.7521 10.2408 13.9461C10.2022 14.14 10.107 14.3182 9.96712 14.4581C9.82726 14.5979 9.64908 14.6932 9.4551 14.7318C9.26112 14.7703 9.06005 14.7505 8.87733 14.6749C8.6946 14.5992 8.53842 14.471 8.42854 14.3065C8.31866 14.1421 8.26001 13.9488 8.26001 13.751C8.26001 13.4858 8.36537 13.2314 8.5529 13.0439C8.74044 12.8563 8.99479 12.751 9.26001 12.751V12.751Z" fill="#e3c324" id="id_136"></path>
<path d="M7 8C7.55228 8 8 7.55228 8 7C8 6.44772 7.55228 6 7 6C6.44772 6 6 6.44772 6 7C6 7.55228 6.44772 8 7 8Z" fill="#d6bc3a" id="id_137"></path>
<path d="M11 9C11.5523 9 12 8.55228 12 8C12 7.44772 11.5523 7 11 7C10.4477 7 10 7.44772 10 8C10 8.55228 10.4477 9 11 9Z" fill="#e6cd4e" id="id_138"></path>
<path d="M20 39C20.2292 39.0001 20.4515 38.9214 20.6297 38.7771C20.8078 38.6328 20.931 38.4317 20.9785 38.2075C21.0261 37.9833 20.9952 37.7495 20.8909 37.5453C20.7867 37.3412 20.6155 37.179 20.406 37.086L12 33.35V25C12 24.7348 11.8946 24.4804 11.7071 24.2929C11.5196 24.1054 11.2652 24 11 24C10.7348 24 10.4804 24.1054 10.2929 24.2929C10.1054 24.4804 10 24.7348 10 25V34C9.99998 34.1935 10.0561 34.3828 10.1615 34.5451C10.2669 34.7073 10.4172 34.8354 10.594 34.914L19.594 38.914C19.7217 38.971 19.8601 39.0003 20 39Z" fill="#ccb43d" id="id_139"></path>
<path d="M23 6H30C30.2652 6 30.5196 5.89464 30.7071 5.70711C30.8946 5.51957 31 5.26522 31 5C31 4.73478 30.8946 4.48043 30.7071 4.29289C30.5196 4.10536 30.2652 4 30 4H23C22.7348 4 22.4804 4.10536 22.2929 4.29289C22.1054 4.48043 22 4.73478 22 5C22 5.26522 22.1054 5.51957 22.2929 5.70711C22.4804 5.89464 22.7348 6 23 6Z" fill="#dec339" id="id_140"></path>
<path d="M21 10H30C30.2652 10 30.5196 9.89464 30.7071 9.70711C30.8946 9.51957 31 9.26522 31 9C31 8.73478 30.8946 8.48043 30.7071 8.29289C30.5196 8.10536 30.2652 8 30 8H21C20.7348 8 20.4804 8.10536 20.2929 8.29289C20.1054 8.48043 20 8.73478 20 9C20 9.26522 20.1054 9.51957 20.2929 9.70711C20.4804 9.89464 20.7348 10 21 10Z" fill="#e0c43a" id="id_141"></path>
<path d="M21 14H30C30.2652 14 30.5196 13.8946 30.7071 13.7071C30.8946 13.5196 31 13.2652 31 13C31 12.7348 30.8946 12.4804 30.7071 12.2929C30.5196 12.1054 30.2652 12 30 12H21C20.7348 12 20.4804 12.1054 20.2929 12.2929C20.1054 12.4804 20 12.7348 20 13C20 13.2652 20.1054 13.5196 20.2929 13.7071C20.4804 13.8946 20.7348 14 21 14Z" fill="#dbc039" id="id_142"></path>
<path d="M21 18H25C25.2652 18 25.5196 17.8946 25.7071 17.7071C25.8946 17.5196 26 17.2652 26 17C26 16.7348 25.8946 16.4804 25.7071 16.2929C25.5196 16.1054 25.2652 16 25 16H21C20.7348 16 20.4804 16.1054 20.2929 16.2929C20.1054 16.4804 20 16.7348 20 17C20 17.2652 20.1054 17.5196 20.2929 17.7071C20.4804 17.8946 20.7348 18 21 18Z" fill="#dec339" id="id_143"></path>
</svg>