<svg xmlns="http://www.w3.org/2000/svg" xml:space="preserve" width="512px" height="512px" version="1.1" style="shape-rendering:geometricPrecision; text-rendering:geometricPrecision; image-rendering:optimizeQuality; fill-rule:evenodd; clip-rule:evenodd" viewBox="0 0 512 512" xmlns:xlink="http://www.w3.org/1999/xlink" xmlns:xodm="http://www.corel.com/coreldraw/odm/2003">
 <defs>
  <style type="text/css">
   
    .fil2 {fill:#FEFEFE}
    .fil5 {fill:black}
    .fil4 {fill:#1EE6A6}
    .fil0 {fill:#35527C}
    .fil1 {fill:#3C659E}
    .fil3 {fill:#FE653B}
   
  </style>
 </defs>
 <g id="Layer_x0020_1">
  <metadata id="CorelCorpID_0Corel-Layer"></metadata>
  <g id="_2670732225952">
   <g>
    <path class="fil0" d="M129.14 408.37c-1.28,0 -2.56,-0.49 -3.53,-1.46l-20.51 -20.52c-0.94,-0.93 -1.47,-2.21 -1.47,-3.53 0,-1.33 0.53,-2.6 1.47,-3.54l27.48 -27.48c0.98,-0.98 2.32,-1.5 3.7,-1.46 1.39,0.05 2.69,0.66 3.6,1.71 3.19,3.65 6.44,7.14 9.67,10.36 3.22,3.22 6.71,6.48 10.36,9.67 1.05,0.91 1.67,2.22 1.71,3.6 0.05,1.38 -0.48,2.73 -1.46,3.7l-27.48 27.48c-0.98,0.98 -2.26,1.47 -3.54,1.47z" id="id_101" style="fill: rgb(207, 179, 41);"></path>
    <path class="fil1" d="M295.54 432.92c-57.82,0 -112.18,-22.51 -153.06,-63.39 -40.89,-40.89 -63.4,-95.25 -63.4,-153.07 0,-57.81 22.51,-112.17 63.4,-153.06 40.88,-40.88 95.24,-63.4 153.06,-63.4 57.82,0 112.17,22.52 153.06,63.4 40.88,40.89 63.4,95.25 63.4,153.06 0,57.82 -22.52,112.18 -63.4,153.07 -40.89,40.88 -95.24,63.39 -153.06,63.39z" id="id_102" style="fill: rgb(209, 181, 42);"></path>
    <path class="fil2" d="M295.54 397.37c-48.32,0 -93.75,-18.82 -127.92,-52.99 -34.17,-34.16 -52.99,-79.59 -52.99,-127.92 0,-48.32 18.82,-93.75 52.99,-127.92 34.17,-34.17 79.59,-52.98 127.92,-52.98 48.32,0 93.75,18.81 127.92,52.98 34.17,34.17 52.98,79.6 52.98,127.92 0,48.33 -18.81,93.76 -52.98,127.92 -34.17,34.17 -79.6,52.99 -127.92,52.99z" id="id_103"></path>
    <path class="fil1" d="M44.79 512c0,0 0,0 0,0 -3.85,0 -7.45,-1.49 -10.16,-4.2l-30.43 -30.43c-2.71,-2.71 -4.2,-6.31 -4.2,-10.15 0,-3.84 1.49,-7.45 4.2,-10.15l82.7 -82.71c2.7,-2.7 6.31,-4.19 10.15,-4.19 3.84,0 7.45,1.49 10.15,4.19l30.44 30.44c5.6,5.6 5.6,14.7 0,20.3l-82.71 82.71c-2.7,2.7 -6.3,4.19 -10.14,4.19z" id="id_104" style="fill: rgb(214, 185, 43);"></path>
   </g>
   <path class="fil3" d="M249.44 325.28c-11.78,0 -21.38,-9.59 -21.38,-21.38 0,-11.79 9.6,-21.38 21.38,-21.38 11.79,0 21.39,9.59 21.39,21.38 0,11.79 -9.6,21.38 -21.39,21.38zm135.96 -92.55c-14.95,0 -27.11,-12.16 -27.11,-27.11 0,-14.95 12.16,-27.12 27.11,-27.12 14.95,0 27.12,12.17 27.12,27.12 0,14.95 -12.17,27.11 -27.12,27.11zm-94.6 -19.66c-11.79,0 -21.38,-9.59 -21.38,-21.38 0,-11.79 9.59,-21.38 21.38,-21.38 11.79,0 21.38,9.59 21.38,21.38 0,11.79 -9.59,21.38 -21.38,21.38zm-43.82 -102.79c-11.79,0 -21.38,-9.59 -21.38,-21.38 0,-11.79 9.59,-21.38 21.38,-21.38 11.79,0 21.38,9.59 21.38,21.38 0,11.79 -9.59,21.38 -21.38,21.38z" id="id_105"></path>
   <path class="fil4" d="M352.12 148.44c-11.79,0 -21.38,-9.59 -21.38,-21.38 0,-11.79 9.59,-21.37 21.38,-21.37 11.79,0 21.38,9.59 21.38,21.37 0,11.79 -9.59,21.38 -21.38,21.38z" id="id_106"></path>
   <path class="fil4" d="M352.17 115.69c-0.95,0 -1.9,-0.27 -2.75,-0.83 -2.3,-1.52 -2.94,-4.62 -1.42,-6.92 4.39,-6.68 0.14,-13.09 0.1,-13.16 -1.55,-2.28 -0.96,-5.39 1.32,-6.94 2.29,-1.56 5.4,-0.96 6.95,1.32 0.33,0.49 8.01,12.07 -0.02,24.27 -0.96,1.46 -2.56,2.26 -4.18,2.26z" id="id_107"></path>
   <path class="fil4" d="M367.46 123.95c-0.46,0 -0.94,-0.01 -1.42,-0.04 -2.76,-0.16 -4.86,-2.53 -4.7,-5.28 0.16,-2.76 2.54,-4.85 5.28,-4.7 7.95,0.47 11.41,-6.42 11.44,-6.49 1.21,-2.48 4.2,-3.53 6.68,-2.32 2.49,1.2 3.53,4.19 2.33,6.68 -0.25,0.51 -6.05,12.15 -19.61,12.15z" id="id_108"></path>
   <path class="fil4" d="M381.92 149.72c-3.25,0 -14.43,-0.85 -20.11,-12.18 -1.24,-2.47 -0.24,-5.47 2.22,-6.71 2.47,-1.24 5.48,-0.24 6.72,2.23 3.51,7 11.06,6.67 11.38,6.66 2.71,-0.14 5.11,1.94 5.28,4.67 0.18,2.74 -1.86,5.11 -4.6,5.31 -0.07,0 -0.39,0.02 -0.89,0.02z" id="id_109"></path>
   <path class="fil4" d="M352.01 167.15c-1.61,0 -3.18,-0.76 -4.14,-2.18 -0.34,-0.49 -8.02,-12.07 0.02,-24.28 1.51,-2.3 4.61,-2.94 6.92,-1.42 2.31,1.52 2.95,4.62 1.43,6.92 -4.4,6.68 -0.15,13.09 -0.1,13.15 1.55,2.29 0.95,5.4 -1.33,6.95 -0.86,0.58 -1.84,0.86 -2.8,0.86z" id="id_110"></path>
   <path class="fil4" d="M321.66 149.48c-0.74,0 -1.49,-0.16 -2.2,-0.51 -2.46,-1.22 -3.49,-4.17 -2.29,-6.64 0.25,-0.53 6.41,-12.97 21.03,-12.11 2.75,0.16 4.86,2.53 4.69,5.28 -0.16,2.76 -2.53,4.87 -5.28,4.7 -7.83,-0.46 -11.32,6.24 -11.46,6.53 -0.88,1.74 -2.66,2.75 -4.49,2.75z" id="id_111"></path>
   <path class="fil4" d="M337.96 123.83c-1.83,0 -3.59,-1.01 -4.47,-2.76 -3.51,-7 -11.07,-6.68 -11.39,-6.66 -2.71,0.13 -5.1,-1.94 -5.28,-4.68 -0.17,-2.73 1.87,-5.1 4.6,-5.3 0.58,-0.04 14.46,-0.9 21.01,12.15 1.24,2.47 0.24,5.48 -2.23,6.72 -0.72,0.36 -1.48,0.53 -2.24,0.53z" id="id_112"></path>
   <path class="fil4" d="M199.08 231.71c-11.79,0 -21.38,-9.59 -21.38,-21.38 0,-11.79 9.59,-21.38 21.38,-21.38 11.79,0 21.37,9.59 21.37,21.38 0,11.79 -9.58,21.38 -21.37,21.38z" id="id_113"></path>
   <path class="fil4" d="M199.13 198.95c-0.95,0 -1.9,-0.27 -2.75,-0.83 -2.31,-1.51 -2.94,-4.62 -1.43,-6.92 4.4,-6.68 0.15,-13.09 0.11,-13.15 -1.55,-2.29 -0.96,-5.4 1.32,-6.95 2.29,-1.55 5.4,-0.96 6.95,1.33 0.33,0.49 8.01,12.07 -0.02,24.27 -0.96,1.46 -2.56,2.25 -4.18,2.25z" id="id_114"></path>
   <path class="fil4" d="M214.42 207.22c-0.47,0 -0.94,-0.02 -1.42,-0.04 -2.76,-0.17 -4.86,-2.53 -4.7,-5.29 0.16,-2.75 2.53,-4.86 5.28,-4.7 7.99,0.48 11.41,-6.41 11.44,-6.48 1.2,-2.49 4.19,-3.53 6.68,-2.33 2.49,1.21 3.53,4.19 2.32,6.68 -0.24,0.51 -6.04,12.16 -19.6,12.16z" id="id_115"></path>
   <path class="fil4" d="M228.88 232.99c-3.25,0 -14.43,-0.86 -20.12,-12.18 -1.23,-2.47 -0.24,-5.47 2.23,-6.71 2.47,-1.24 5.47,-0.24 6.71,2.22 3.59,7.15 11.27,6.68 11.34,6.67 2.75,-0.21 5.15,1.87 5.35,4.62 0.2,2.76 -1.86,5.15 -4.62,5.35 -0.08,0.01 -0.39,0.03 -0.89,0.03z" id="id_116"></path>
   <path class="fil4" d="M198.94 250.41c-1.6,0 -3.15,-0.76 -4.12,-2.18 -0.33,-0.49 -8.01,-12.07 0.03,-24.27 1.52,-2.31 4.62,-2.95 6.92,-1.43 2.31,1.52 2.95,4.62 1.43,6.93 -4.31,6.54 -0.25,12.92 -0.08,13.19 1.5,2.3 0.88,5.39 -1.4,6.91 -0.86,0.57 -1.83,0.85 -2.78,0.85z" id="id_117"></path>
   <path class="fil4" d="M168.63 232.77c-0.73,0 -1.48,-0.16 -2.18,-0.5 -2.48,-1.2 -3.52,-4.19 -2.32,-6.68 0.26,-0.53 6.42,-12.97 21.03,-12.11 2.76,0.16 4.86,2.53 4.7,5.28 -0.16,2.76 -2.52,4.87 -5.29,4.7 -7.97,-0.47 -11.4,6.42 -11.44,6.49 -0.86,1.78 -2.65,2.82 -4.5,2.82z" id="id_118"></path>
   <path class="fil4" d="M184.92 207.09c-1.83,0 -3.59,-1.01 -4.47,-2.76 -3.59,-7.14 -11.27,-6.67 -11.34,-6.66 -2.75,0.21 -5.15,-1.87 -5.35,-4.62 -0.2,-2.76 1.87,-5.15 4.62,-5.35 0.59,-0.05 14.46,-0.91 21.01,12.15 1.24,2.47 0.24,5.47 -2.23,6.71 -0.72,0.36 -1.49,0.53 -2.24,0.53z" id="id_119"></path>
   <path class="fil4" d="M373.53 320.77c-13.93,0 -25.26,-11.33 -25.26,-25.26 0,-13.93 11.33,-25.27 25.26,-25.27 13.93,0 25.27,11.34 25.27,25.27 0,13.93 -11.34,25.26 -25.27,25.26z" id="id_120"></path>
   <path class="fil4" d="M373.59 280.24c-0.94,0 -1.89,-0.26 -2.74,-0.82 -2.31,-1.52 -2.94,-4.62 -1.43,-6.93 5.78,-8.77 0.33,-17.25 0.1,-17.61 -1.51,-2.3 -0.9,-5.39 1.39,-6.92 2.28,-1.52 5.36,-0.94 6.9,1.33 0.39,0.58 9.47,14.27 -0.03,28.7 -0.97,1.46 -2.56,2.25 -4.19,2.25z" id="id_121"></path>
   <path class="fil4" d="M392.51 290.48c-0.55,0 -1.11,-0.02 -1.69,-0.06 -2.76,-0.16 -4.86,-2.52 -4.7,-5.28 0.17,-2.76 2.51,-4.86 5.29,-4.7 10.64,0.63 15.24,-8.6 15.29,-8.69 1.2,-2.48 4.19,-3.52 6.67,-2.32 2.49,1.2 3.53,4.19 2.33,6.68 -0.3,0.6 -7.14,14.37 -23.19,14.37z" id="id_122"></path>
   <path class="fil4" d="M410.37 322.35c-3.84,0 -17.07,-1.01 -23.79,-14.41 -1.24,-2.47 -0.24,-5.48 2.22,-6.71 2.47,-1.24 5.48,-0.24 6.72,2.22 4.7,9.39 14.78,8.93 15.2,8.9 2.77,-0.16 5.12,1.92 5.3,4.66 0.18,2.74 -1.86,5.11 -4.6,5.31 -0.1,0.01 -0.46,0.03 -1.05,0.03z" id="id_123"></path>
   <path class="fil4" d="M373.37 343.9c-1.59,0 -3.15,-0.76 -4.12,-2.18 -0.39,-0.57 -9.47,-14.26 0.04,-28.7 1.52,-2.31 4.62,-2.95 6.92,-1.43 2.31,1.52 2.95,4.62 1.43,6.93 -5.77,8.77 -0.33,17.26 -0.09,17.62 1.5,2.29 0.89,5.39 -1.4,6.92 -0.85,0.57 -1.82,0.84 -2.78,0.84z" id="id_124"></path>
   <path class="fil4" d="M335.86 322.09c-0.73,0 -1.47,-0.16 -2.17,-0.5 -2.49,-1.2 -3.53,-4.19 -2.32,-6.68 0.3,-0.63 7.6,-15.35 24.88,-14.32 2.75,0.16 4.85,2.53 4.69,5.28 -0.16,2.76 -2.5,4.88 -5.28,4.7 -10.65,-0.63 -15.25,8.6 -15.29,8.69 -0.86,1.79 -2.65,2.83 -4.51,2.83z" id="id_125"></path>
   <path class="fil4" d="M356.02 290.32c-1.83,0 -3.59,-1.01 -4.47,-2.76 -4.71,-9.39 -14.79,-8.92 -15.21,-8.89 -2.77,0.16 -5.12,-1.93 -5.3,-4.67 -0.18,-2.74 1.87,-5.11 4.6,-5.31 0.71,-0.04 17.09,-1.07 24.85,14.38 1.23,2.47 0.24,5.48 -2.23,6.72 -0.72,0.36 -1.49,0.53 -2.24,0.53z" id="id_126"></path>
   <path class="fil3" d="M309.75 260.96c-12.55,0 -21.77,-5.46 -22.35,-5.81 -2.36,-1.43 -3.12,-4.5 -1.69,-6.86 1.43,-2.36 4.49,-3.12 6.86,-1.7 0.7,0.42 16.64,9.64 33.41,-0.04 2.39,-1.39 5.45,-0.57 6.83,1.83 1.39,2.39 0.57,5.45 -1.83,6.83 -7.47,4.31 -14.79,5.75 -21.23,5.75z" id="id_127"></path>
   <path class="fil3" d="M294.08 134.72c-0.85,0 -1.71,-0.22 -2.49,-0.67 -23.17,-13.38 -45.47,-0.19 -45.69,-0.06 -2.37,1.44 -5.44,0.68 -6.87,-1.68 -1.43,-2.37 -0.68,-5.44 1.69,-6.87 1.11,-0.68 27.63,-16.36 55.87,-0.05 2.39,1.38 3.21,4.43 1.83,6.83 -0.93,1.6 -2.61,2.5 -4.34,2.5z" id="id_128"></path>
  </g>
  <path class="fil5" d="M332.27 119.11c-3.79,-4.97 -9.88,-4.72 -10.17,-4.7 -2.71,0.13 -5.1,-1.94 -5.28,-4.68 -0.17,-2.73 1.87,-5.1 4.6,-5.3 0.48,-0.03 9.87,-0.61 16.86,6.35 3,-2.55 6.72,-4.29 10.81,-4.88 2.47,-5.89 -0.95,-11.06 -0.99,-11.12 -1.55,-2.28 -0.96,-5.39 1.32,-6.94 2.29,-1.55 5.4,-0.96 6.95,1.33 0.27,0.39 5.47,8.23 2.93,17.76 3.83,1.37 7.15,3.8 9.62,6.93 6.32,-0.8 9.11,-6.36 9.14,-6.42 1.21,-2.48 4.2,-3.52 6.68,-2.32 2.49,1.2 3.53,4.19 2.33,6.68 -0.21,0.43 -4.41,8.85 -13.92,11.42 0.23,1.25 0.35,2.53 0.35,3.84 0,2.81 -0.55,5.5 -1.54,7.96 3.79,4.98 9.88,4.71 10.17,4.7 2.71,-0.14 5.11,1.94 5.28,4.68 0.18,2.73 -1.86,5.1 -4.6,5.3 -0.07,0 -0.39,0.02 -0.89,0.02 -2.57,0 -10.11,-0.53 -15.96,-6.37 -3.01,2.56 -6.73,4.3 -10.81,4.88 -2.48,5.89 0.95,11.06 0.99,11.12 1.55,2.28 0.95,5.39 -1.33,6.94 -0.86,0.59 -1.84,0.87 -2.8,0.87 -1.61,0 -3.18,-0.77 -4.14,-2.19 -0.28,-0.4 -5.47,-8.24 -2.94,-17.77 -3.82,-1.37 -7.15,-3.79 -9.61,-6.92 -6.23,0.78 -9.04,6.19 -9.17,6.45 -0.88,1.74 -2.66,2.75 -4.49,2.75 -0.74,0 -1.49,-0.16 -2.2,-0.51 -2.46,-1.22 -3.49,-4.17 -2.29,-6.64 0.21,-0.43 4.38,-8.86 13.91,-11.42 -0.23,-1.25 -0.34,-2.53 -0.34,-3.85 0,-2.8 0.54,-5.49 1.53,-7.95zm-36.73 313.81c-51.27,0 -99.82,-17.7 -138.66,-50.21l-20.67 20.66 1.43 1.43c5.6,5.6 5.6,14.7 0,20.3l-82.71 82.71c-2.7,2.7 -6.3,4.19 -10.14,4.19 0,0 0,0 0,0 -3.85,0 -7.45,-1.49 -10.16,-4.2l-30.43 -30.43c-2.71,-2.71 -4.2,-6.31 -4.2,-10.15 0,-3.84 1.49,-7.45 4.2,-10.15l82.7 -82.71c2.7,-2.7 6.31,-4.19 10.15,-4.19 3.84,0 7.45,1.49 10.15,4.19l1.43 1.43 20.67 -20.67c-32.52,-38.84 -50.22,-87.39 -50.22,-138.66 0,-57.81 22.51,-112.17 63.4,-153.06 40.88,-40.88 95.24,-63.4 153.06,-63.4 57.82,0 112.17,22.52 153.06,63.4 40.88,40.89 63.4,95.25 63.4,153.06 0,57.82 -22.52,112.18 -63.4,153.07 -40.89,40.88 -95.24,63.39 -153.06,63.39zm-146.2 -56.82c-1.79,-1.65 -3.56,-3.33 -5.31,-5.04l-0.1 -0.1 -0.11 -0.1 -0.1 -0.11 -0.11 -0.1 -0.1 -0.1 -0.1 -0.1 -0.42 -0.41 -0.1 -0.11 -0.11 -0.1 -0.1 -0.1 -0.2 -0.2 -0.21 -0.21 -0.1 -0.11 -0.1 -0.1 -0.11 -0.1 -0.51 -0.52 -0.1 -0.1 -0.11 -0.11 -0.1 -0.1 -0.1 -0.11 -0.1 -0.1 -0.93 -0.95 -0.1 -0.11c-1.36,-1.4 -2.69,-2.82 -4.01,-4.25l-20.2 20.2 13.44 13.44 20.2 -20.2zm146.2 -366.1c-55.15,0 -107,21.48 -145.99,60.47 -39,39 -60.47,90.85 -60.47,145.99 0,50.27 17.84,97.79 50.52,135.33 0.1,0.1 0.19,0.2 0.28,0.3 2.35,2.68 4.72,5.28 7.1,7.74l0.15 0.16 0.91 0.93 0.15 0.16 0.15 0.15 0.15 0.16 0.45 0.45 0.15 0.16 0.16 0.15 0.01 0.01 0.29 0.29 0.29 0.29 0.01 0.01 0.15 0.16 0.16 0.15 0.45 0.45 0.16 0.15 0.15 0.15 0.16 0.15 0.77 0.76 0.16 0.15 0.16 0.15c2.46,2.38 5.05,4.75 7.74,7.1 0.1,0.09 0.2,0.18 0.29,0.27 37.55,32.69 85.07,50.54 135.34,50.54 55.14,0 106.99,-21.48 145.99,-60.48 80.5,-80.5 80.5,-211.48 0,-291.98 -39,-38.99 -90.84,-60.47 -145.99,-60.47zm0 387.37c-48.32,0 -93.75,-18.82 -127.92,-52.99 -34.17,-34.16 -52.99,-79.59 -52.99,-127.92 0,-48.32 18.82,-93.75 52.99,-127.92 34.17,-34.17 79.59,-52.98 127.92,-52.98 48.32,0 93.75,18.81 127.92,52.98 34.17,34.17 52.98,79.6 52.98,127.92 0,48.33 -18.81,93.76 -52.98,127.92 -34.17,34.17 -79.6,52.99 -127.92,52.99zm0 -351.81c-45.65,0 -88.57,17.77 -120.85,50.05 -32.28,32.28 -50.06,75.2 -50.06,120.85 0,45.66 17.78,88.57 50.06,120.85 32.28,32.28 75.2,50.06 120.85,50.06 45.65,0 88.57,-17.78 120.85,-50.06 32.28,-32.28 50.05,-75.19 50.05,-120.85 0,-45.65 -17.77,-88.57 -50.05,-120.85 -32.28,-32.28 -75.2,-50.05 -120.85,-50.05zm-198.49 334.6c-1.17,0 -2.26,0.45 -3.08,1.27l-82.7 82.71c-0.82,0.81 -1.27,1.9 -1.27,3.07 0,1.18 0.45,2.27 1.27,3.08l30.43 30.44c0.82,0.82 1.91,1.27 3.08,1.27l0 0c1.17,0 2.27,-0.45 3.08,-1.27l82.71 -82.7c1.7,-1.7 1.7,-4.46 0,-6.16l-4.87 -4.88 -0.05 -0.04 -0.04 -0.04 -20.51 -20.52 -0.05 -0.04 0 0 -4.92 -4.92c-0.81,-0.82 -1.91,-1.27 -3.08,-1.27zm149.93 -269.88c-11.79,0 -21.38,-9.59 -21.38,-21.38 0,-11.79 9.59,-21.38 21.38,-21.38 11.79,0 21.38,9.59 21.38,21.38 0,11.79 -9.59,21.38 -21.38,21.38zm0 -32.76c-6.27,0 -11.38,5.11 -11.38,11.38 0,6.28 5.11,11.38 11.38,11.38 6.28,0 11.38,-5.1 11.38,-11.38 0,-6.27 -5.1,-11.38 -11.38,-11.38zm43.82 135.55c-11.79,0 -21.38,-9.59 -21.38,-21.38 0,-11.79 9.59,-21.38 21.38,-21.38 11.79,0 21.38,9.59 21.38,21.38 0,11.79 -9.59,21.38 -21.38,21.38zm0 -32.76c-6.27,0 -11.38,5.11 -11.38,11.38 0,6.28 5.11,11.38 11.38,11.38 6.28,0 11.38,-5.1 11.38,-11.38 0,-6.27 -5.1,-11.38 -11.38,-11.38zm94.6 52.42c-14.95,0 -27.11,-12.16 -27.11,-27.11 0,-14.95 12.16,-27.12 27.11,-27.12 14.95,0 27.12,12.17 27.12,27.12 0,14.95 -12.17,27.11 -27.12,27.11zm0 -44.22c-9.43,0 -17.11,7.67 -17.11,17.11 0,9.43 7.68,17.11 17.11,17.11 9.44,0 17.12,-7.68 17.12,-17.11 0,-9.44 -7.68,-17.11 -17.12,-17.11zm-135.96 136.77c-11.78,0 -21.38,-9.59 -21.38,-21.38 0,-11.79 9.6,-21.38 21.38,-21.38 11.79,0 21.39,9.59 21.39,21.38 0,11.79 -9.6,21.38 -21.39,21.38zm0 -32.76c-6.27,0 -11.38,5.11 -11.38,11.38 0,6.28 5.11,11.38 11.38,11.38 6.28,0 11.38,-5.1 11.38,-11.38 0,-6.27 -5.1,-11.38 -11.38,-11.38zm60.31 -31.56c-12.55,0 -21.77,-5.46 -22.35,-5.81 -2.36,-1.43 -3.12,-4.5 -1.69,-6.86 1.43,-2.36 4.49,-3.12 6.86,-1.7 0.7,0.42 16.64,9.64 33.41,-0.04 2.39,-1.38 5.45,-0.56 6.83,1.83 1.39,2.39 0.57,5.45 -1.83,6.83 -7.47,4.31 -14.79,5.75 -21.23,5.75zm-15.67 -126.24c-0.85,0 -1.71,-0.22 -2.49,-0.67 -23.17,-13.38 -45.47,-0.19 -45.69,-0.06 -2.37,1.44 -5.44,0.68 -6.87,-1.68 -1.43,-2.36 -0.68,-5.44 1.69,-6.87 1.11,-0.68 27.63,-16.36 55.87,-0.05 2.39,1.38 3.21,4.43 1.83,6.83 -0.93,1.6 -2.61,2.5 -4.34,2.5zm72.02 184.94c-5.18,-1.6 -9.65,-4.82 -12.82,-9.07 -8.96,0.73 -12.87,8.59 -12.91,8.67 -0.86,1.79 -2.65,2.83 -4.51,2.83 -0.73,0 -1.47,-0.16 -2.17,-0.5 -2.49,-1.2 -3.53,-4.19 -2.32,-6.68 0.25,-0.53 5.5,-11.11 17.53,-13.77 -0.41,-1.81 -0.63,-3.7 -0.63,-5.63 0,-3.55 0.74,-6.93 2.06,-10 -5.03,-7.27 -13.6,-6.87 -13.99,-6.84 -2.77,0.16 -5.12,-1.93 -5.3,-4.67 -0.18,-2.74 1.87,-5.11 4.6,-5.31 0.6,-0.04 12.39,-0.77 20.71,8.32 3.83,-3.57 8.77,-5.96 14.24,-6.59 3.78,-7.99 -0.86,-15.21 -1.07,-15.54 -1.51,-2.29 -0.9,-5.39 1.39,-6.92 2.28,-1.52 5.36,-0.94 6.9,1.33 0.33,0.49 6.86,10.33 3.15,22.07 5.18,1.6 9.65,4.82 12.82,9.06 8.96,-0.73 12.87,-8.58 12.92,-8.67 1.2,-2.48 4.19,-3.52 6.67,-2.32 2.49,1.2 3.53,4.19 2.33,6.68 -0.26,0.53 -5.52,11.09 -17.54,13.76 0.42,1.81 0.64,3.7 0.64,5.64 0,3.55 -0.74,6.93 -2.07,10 5.03,7.26 13.6,6.86 13.99,6.84 2.77,-0.16 5.12,1.92 5.3,4.66 0.18,2.74 -1.86,5.11 -4.6,5.32 -0.1,0 -0.46,0.02 -1.05,0.02 -3.15,0 -12.64,-0.68 -19.65,-8.34 -3.84,3.56 -8.78,5.95 -14.25,6.59 -3.77,7.99 0.86,15.21 1.08,15.54 1.5,2.29 0.89,5.39 -1.4,6.92 -0.85,0.57 -1.82,0.85 -2.78,0.85 -1.59,0 -3.15,-0.76 -4.12,-2.18 -0.33,-0.49 -6.85,-10.33 -3.15,-22.07zm7.43 -39.41c-8.41,0 -15.26,6.84 -15.26,15.26 0,8.36 6.76,15.18 15.11,15.26l0.23 0c8.38,-0.04 15.19,-6.87 15.19,-15.26 0,-8.4 -6.82,-15.23 -15.21,-15.26l-0.04 0 -0.02 0zm-181.64 -49.78c-3.82,-1.37 -7.15,-3.8 -9.62,-6.93 -6.33,0.79 -9.11,6.35 -9.14,6.41 -0.86,1.79 -2.65,2.82 -4.5,2.82 -0.73,0 -1.48,-0.16 -2.18,-0.49 -2.48,-1.21 -3.52,-4.2 -2.32,-6.68 0.21,-0.44 4.38,-8.86 13.91,-11.42 -0.23,-1.25 -0.34,-2.54 -0.34,-3.85 0,-2.81 0.54,-5.5 1.53,-7.96 -3.86,-5.09 -10.05,-4.7 -10.12,-4.7 -2.75,0.21 -5.15,-1.87 -5.35,-4.62 -0.2,-2.75 1.87,-5.15 4.62,-5.35 0.48,-0.04 9.87,-0.62 16.86,6.35 3,-2.56 6.72,-4.3 10.8,-4.89 2.48,-5.88 -0.94,-11.05 -0.98,-11.11 -1.55,-2.28 -0.96,-5.4 1.32,-6.95 2.29,-1.55 5.4,-0.95 6.95,1.33 0.27,0.4 5.46,8.24 2.93,17.76 3.83,1.37 7.15,3.8 9.62,6.93 6.35,-0.78 9.11,-6.35 9.14,-6.41 1.2,-2.49 4.19,-3.53 6.68,-2.33 2.49,1.21 3.53,4.2 2.32,6.68 -0.21,0.44 -4.4,8.86 -13.91,11.42 0.22,1.25 0.34,2.54 0.34,3.85 0,2.81 -0.54,5.49 -1.53,7.95 3.86,5.1 10.06,4.72 10.12,4.71 2.75,-0.21 5.15,1.87 5.35,4.62 0.2,2.76 -1.86,5.15 -4.62,5.35 -0.08,0.01 -0.39,0.03 -0.89,0.03 -2.57,0 -10.11,-0.54 -15.97,-6.38 -3,2.56 -6.71,4.3 -10.8,4.88 -2.41,5.77 0.86,10.92 1.01,11.16 1.5,2.3 0.88,5.39 -1.4,6.91 -0.86,0.57 -1.83,0.85 -2.78,0.85 -1.6,0 -3.15,-0.76 -4.12,-2.18 -0.27,-0.4 -5.46,-8.24 -2.93,-17.76zm7.1 -31.52c-6.23,0.04 -11.29,5.13 -11.29,11.38 0,6.27 5.1,11.38 11.38,11.38 6.27,0 11.38,-5.11 11.38,-11.38 0,-6.23 -5.04,-11.31 -11.26,-11.38l-0.07 0 -0.05 0 0 0 -0.04 0 -0.05 0zm153.04 -83.26c-6.23,0.04 -11.29,5.13 -11.29,11.37 0,6.28 5.1,11.39 11.38,11.39 6.27,0 11.38,-5.11 11.38,-11.39 0,-6.23 -5.04,-11.3 -11.26,-11.37l-0.07 0 -0.05 0 0 0 -0.04 0 -0.05 0z" id="id_129"></path>
 </g>
</svg>