<svg width="64" height="64" viewBox="0 0 64 64" fill="none" xmlns="http://www.w3.org/2000/svg">
<path d="M31 57C45.9117 57 58 44.9117 58 30C58 15.0883 45.9117 3 31 3C16.0883 3 4 15.0883 4 30C4 44.9117 16.0883 57 31 57Z" fill="#dbb734" id="id_101"></path>
<path d="M31 54C44.2548 54 55 43.2548 55 30C55 16.7452 44.2548 6 31 6C17.7452 6 7 16.7452 7 30C7 43.2548 17.7452 54 31 54Z" fill="#d1ac26" id="id_102"></path>
<path d="M47 23.911C46.9545 21.3711 45.9534 18.9415 44.1965 17.1067C42.4395 15.2719 40.0556 14.1666 37.52 14.011C35.5939 13.91 33.6797 14.369 32.0089 15.3326C30.3381 16.2963 28.9821 17.7232 28.105 19.441C26.8813 21.6369 25.1633 23.5178 23.087 24.935C21.8069 25.8717 20.7685 27.0999 20.0577 28.5179C19.347 29.936 18.9844 31.5029 19 33.089C19.0455 35.6288 20.0464 38.0582 21.8032 39.893C23.5599 41.7278 25.9436 42.8333 28.479 42.989C30.4054 43.0901 32.3199 42.6311 33.991 41.6675C35.6621 40.7039 37.0184 39.2769 37.896 37.559C39.1189 35.3632 40.8362 33.4822 42.912 32.065C44.1924 31.1286 45.2311 29.9004 45.9421 28.4824C46.653 27.0643 47.0157 25.4972 47 23.911V23.911Z" fill="#cca826" id="id_103"></path>
<path d="M24.251 9.00501C23.1447 8.99795 22.0568 9.28848 21.1013 9.84619C20.1459 10.4039 19.3579 11.2082 18.82 12.175C18.3892 12.8675 18.1186 13.6475 18.028 14.458C17.9906 14.9003 17.8455 15.3267 17.6055 15.7C17.3655 16.0734 17.0378 16.3824 16.651 16.6C15.9332 16.9816 15.3192 17.5324 14.8623 18.2048C14.4054 18.8771 14.1194 19.6508 14.0289 20.4586C13.9384 21.2665 14.0463 22.0842 14.3432 22.841C14.6401 23.5978 15.117 24.2708 15.7326 24.8016C16.3483 25.3325 17.0841 25.7053 17.8763 25.8876C18.6685 26.07 19.4932 26.0564 20.279 25.8481C21.0648 25.6398 21.7879 25.2431 22.3858 24.6922C22.9836 24.1414 23.4382 23.4531 23.71 22.687C23.8662 22.2296 24.1291 21.816 24.4769 21.4804C24.8247 21.1448 25.2474 20.8968 25.71 20.757C27.0754 20.3557 28.2538 19.4821 29.0346 18.2922C29.8153 17.1023 30.1477 15.6736 29.9724 14.2613C29.7971 12.8489 29.1254 11.5449 28.0773 10.582C27.0293 9.6192 25.6731 9.06025 24.251 9.00501V9.00501Z" fill="#FFC569" id="id_104"></path>
<path d="M35 25V29C37.1069 28.9982 39.1771 29.5511 41.0025 30.6032C42.8279 31.6553 44.3441 33.1694 45.3987 34.9933C46.4534 36.8172 47.0092 38.8867 47.0103 40.9936C47.0114 43.1004 46.4578 45.1705 45.4052 46.9955C44.3525 48.8206 42.8379 50.3363 41.0136 51.3904C39.1894 52.4444 37.1198 52.9995 35.0129 53C32.906 53.0005 30.8361 52.4462 29.0114 51.393C27.1867 50.3397 25.6714 48.8246 24.618 47H20.174C21.2627 49.6915 23.0633 52.0359 25.3827 53.7822C27.7022 55.5285 30.4531 56.6108 33.3406 56.913C36.2281 57.2153 39.1435 56.7262 41.7743 55.4981C44.4051 54.27 46.6522 52.3493 48.2747 49.9416C49.8972 47.534 50.834 44.7302 50.9848 41.8308C51.1356 38.9314 50.4946 36.0456 49.1305 33.4827C47.7664 30.9198 45.7307 28.7763 43.2415 27.282C40.7522 25.7877 37.9033 24.9988 35 25Z" fill="#d9b01a" id="id_105"></path>
<path d="M46.5451 22.5252L39.4741 15.4541L26.7462 28.182L33.8172 35.2531L46.5451 22.5252Z" fill="#92E5EB" id="id_106"></path>
<path d="M32.4034 33.8387L28.1608 29.5961L25.3324 32.4245L29.575 36.6671L32.4034 33.8387Z" fill="#d9b223" id="id_107"></path>
<path d="M28.8689 35.9606L26.0405 33.1322L23.2121 35.9606L26.0405 38.7891L28.8689 35.9606Z" fill="#92E5EB" id="id_108"></path>
<path d="M49.3743 16.8686L45.1317 12.626L40.889 16.8686L45.1317 21.1113L49.3743 16.8686Z" fill="#deb41b" id="id_109"></path>
<path d="M31 43H15V47H31V43Z" fill="#92E5EB" id="id_110"></path>
<path d="M30 57H41C42.0609 57 43.0783 57.4214 43.8284 58.1716C44.5786 58.9217 45 59.9391 45 61H26C26 59.9391 26.4214 58.9217 27.1716 58.1716C27.9217 57.4214 28.9391 57 30 57Z" fill="#dbb428" id="id_111"></path>
<path d="M39.475 25.6C38.0761 26.9997 36.208 27.8312 34.2318 27.9339C32.2556 28.0365 30.3115 27.4031 28.775 26.156L26.745 28.186L33.816 35.257L46.546 22.525L44.546 20.525L39.475 25.6Z" fill="#e6c859" id="id_112"></path>
<path d="M44.17 27.9C43.9271 28.1456 43.7355 28.4371 43.6065 28.7576C43.4775 29.078 43.4137 29.421 43.4187 29.7664C43.4237 30.1118 43.4975 30.4527 43.6358 30.7692C43.7741 31.0858 43.974 31.3716 44.224 31.61C47.0896 34.4268 48.7884 38.2201 48.9815 42.2337C49.1746 46.2472 47.8479 50.1861 45.266 53.265C47.1504 51.6905 48.6466 49.7028 49.6385 47.4564C50.6303 45.2099 51.0911 42.7651 50.9851 40.3117C50.8791 37.8584 50.2091 35.4624 49.0272 33.3099C47.8453 31.1574 46.1832 29.3062 44.17 27.9V27.9Z" fill="#e3c868" id="id_113"></path>
<path d="M47.96 16.282C47.5886 16.6535 47.1476 16.9482 46.6623 17.1492C46.177 17.3502 45.6568 17.4537 45.1315 17.4537C44.6062 17.4537 44.086 17.3502 43.6007 17.1492C43.1154 16.9482 42.6744 16.6535 42.303 16.282L41.889 15.868L40.889 16.868L45.132 21.111L49.374 16.868L48.374 15.868L47.96 16.282Z" fill="#6e5c19" id="id_114"></path>
<path d="M28.161 29.6L27.161 30.6L28.282 31.722C28.792 32.2333 29.0997 32.912 29.1482 33.6325C29.1967 34.3531 28.9828 35.0669 28.546 35.642L29.575 36.671L32.4 33.839L28.161 29.6Z" fill="#d6b333" id="id_115"></path>
<path d="M26.04 33.132L25.04 34.132L25.454 34.546C25.8289 34.921 26.0396 35.4296 26.0396 35.96C26.0396 36.4903 25.8289 36.9989 25.454 37.374L25.04 37.789L26.04 38.789L28.868 35.96L26.04 33.132Z" fill="#debc42" id="id_116"></path>
<path d="M17 43H15V47H31V45H19C18.4696 45 17.9609 44.7893 17.5858 44.4142C17.2107 44.0391 17 43.5304 17 43Z" fill="#d1b964" id="id_117"></path>
<path d="M31 59C30.4944 58.9993 30.008 58.8064 29.6392 58.4605C29.2705 58.1146 29.047 57.6415 29.014 57.137C28.1537 57.3542 27.3903 57.8519 26.8444 58.5515C26.2986 59.2511 26.0015 60.1126 26 61H45C44.9964 60.2958 44.8048 59.6053 44.445 59H31Z" fill="#d6ba56" id="id_118"></path>
<path d="M24 17C25.1046 17 26 16.1046 26 15C26 13.8954 25.1046 13 24 13C22.8954 13 22 13.8954 22 15C22 16.1046 22.8954 17 24 17Z" fill="#68CBF2" id="id_119"></path>
<path d="M12.6 30.734L13.657 30.558C14.5545 30.4074 15.4754 30.6123 16.2243 31.1292C16.9733 31.6462 17.4915 32.4345 17.669 33.327V33.327C17.7739 33.8492 17.7583 34.3884 17.6233 34.9036C17.4883 35.4188 17.2375 35.8964 16.89 36.3L15.011 38.493C14.6587 38.9039 14.2161 39.2276 13.7178 39.4388C13.2194 39.6499 12.679 39.7428 12.1388 39.7102C11.5985 39.6776 11.0732 39.5203 10.604 39.2506C10.1347 38.981 9.73425 38.6063 9.434 38.156L9.234 37.85C8.86425 37.2982 8.65917 36.6526 8.6427 35.9886C8.62623 35.3245 8.79906 34.6695 9.141 34.1L10.167 32.39C10.4282 31.9541 10.7812 31.5802 11.2013 31.2943C11.6214 31.0084 12.0987 30.8172 12.6 30.734V30.734Z" fill="#FFC569" id="id_120"></path>
<path d="M26.713 15.752C26.2504 15.8919 25.8277 16.1398 25.4799 16.4755C25.1321 16.8111 24.8692 17.2247 24.713 17.682C24.3661 18.6541 23.7268 19.4951 22.8829 20.0894C22.039 20.6837 21.0318 21.0023 19.9997 21.0014C18.9675 21.0005 17.9609 20.6802 17.118 20.0845C16.2751 19.4887 15.6373 18.6467 15.292 17.674C14.7986 18.223 14.4331 18.8746 14.2217 19.5817C14.0103 20.2889 13.9583 21.0342 14.0694 21.7638C14.1805 22.4935 14.452 23.1895 14.8643 23.8017C15.2765 24.4139 15.8194 24.9271 16.4538 25.3044C17.0882 25.6817 17.7983 25.9137 18.5331 25.9836C19.2679 26.0536 20.009 25.9598 20.7032 25.709C21.3974 25.4582 22.0274 25.0567 22.5478 24.5333C23.0683 24.0099 23.4662 23.3777 23.713 22.682C23.8692 22.2247 24.1321 21.8111 24.4799 21.4755C24.8277 21.1398 25.2504 20.8919 25.713 20.752C27.1931 20.3166 28.4474 19.3252 29.2129 17.9857C29.9785 16.6462 30.1961 15.0624 29.82 13.566C29.0481 14.6116 27.9579 15.3787 26.713 15.752Z" fill="#F06E7A" id="id_121"></path>
<path d="M16.011 35.488C15.6587 35.8988 15.2161 36.2225 14.7178 36.4337C14.2194 36.6449 13.679 36.7378 13.1388 36.7051C12.5985 36.6725 12.0732 36.5152 11.604 36.2455C11.1347 35.9759 10.7342 35.6013 10.434 35.151L10.234 34.845C9.91418 34.3602 9.72001 33.8035 9.669 33.225L9.145 34.098C8.80309 34.6667 8.62991 35.321 8.64567 35.9844C8.66143 36.6478 8.86547 37.2931 9.234 37.845L9.434 38.151C9.73425 38.6013 10.1347 38.9759 10.604 39.2455C11.0732 39.5152 11.5985 39.6725 12.1388 39.7051C12.679 39.7378 13.2194 39.6449 13.7178 39.4337C14.2161 39.2225 14.6587 38.8988 15.011 38.488L16.89 36.3C17.2097 35.9223 17.4457 35.4811 17.5824 35.0055C17.7191 34.5299 17.7534 34.0308 17.683 33.541L16.011 35.488Z" fill="#F06E7A" id="id_122"></path>
<path d="M31 2C24.5209 1.99824 18.2416 4.2435 13.2326 8.35308C8.22355 12.4627 4.79472 18.1822 3.53055 24.5368C2.26638 30.8914 3.2451 37.4878 6.29991 43.2015C9.35471 48.9153 14.2965 53.3929 20.283 55.871C20.4043 55.9213 20.5344 55.9472 20.6658 55.9472C20.7971 55.9473 20.9272 55.9214 21.0485 55.8712C21.1699 55.821 21.2802 55.7473 21.3731 55.6544C21.466 55.5616 21.5397 55.4513 21.59 55.33C21.6403 55.2087 21.6662 55.0786 21.6662 54.9472C21.6663 54.8159 21.6404 54.6858 21.5902 54.5645C21.54 54.4431 21.4663 54.3328 21.3734 54.2399C21.2806 54.147 21.1703 54.0733 21.049 54.023C16.2068 52.0176 12.0837 48.5956 9.22048 44.2058C6.35723 39.816 4.88748 34.6634 5.004 29.4236C5.12052 24.1839 6.81786 19.1016 9.87342 14.8435C12.929 10.5853 17.2001 7.34997 22.1267 5.56178C27.0532 3.77359 32.4052 3.51604 37.4807 4.82289C42.5562 6.12974 47.1182 8.93998 50.5685 12.8851C54.0189 16.8302 56.1964 21.7259 56.8155 26.9302C57.4347 32.1346 56.4665 37.4045 54.038 42.049C53.9148 42.284 53.89 42.5583 53.9691 42.8115C54.0481 43.0648 54.2245 43.2763 54.4595 43.3995C54.6945 43.5227 54.9688 43.5475 55.222 43.4684C55.4753 43.3894 55.6868 43.213 55.81 42.978C58.0423 38.7105 59.136 33.9393 58.9856 29.1255C58.8352 24.3117 57.4457 19.6182 54.9513 15.4983C52.457 11.3785 48.9421 7.97164 44.7465 5.60707C40.5508 3.2425 35.8161 2.00012 31 2V2Z" fill="#2F2F31" id="id_123"></path>
<path d="M43.932 26.5529L47.253 23.232C47.4405 23.0444 47.5458 22.7901 47.5458 22.525C47.5458 22.2598 47.4405 22.0055 47.253 21.818L46.546 21.111L49.374 18.2819L50.082 18.99C50.2695 19.178 50.524 19.2838 50.7896 19.2842C51.0551 19.2846 51.31 19.1795 51.498 18.992C51.686 18.8044 51.7919 18.5499 51.7923 18.2844C51.7926 18.0188 51.6875 17.764 51.5 17.576L44.425 10.5C44.2364 10.3178 43.9838 10.217 43.7216 10.2193C43.4594 10.2216 43.2086 10.3267 43.0232 10.5121C42.8378 10.6975 42.7326 10.9484 42.7303 11.2105C42.728 11.4727 42.8288 11.7253 43.011 11.9139L43.718 12.621L40.889 15.4499L40.182 14.7429C39.9909 14.5623 39.738 14.4616 39.475 14.4616C39.212 14.4616 38.9591 14.5623 38.768 14.7429L34.668 18.843C34.4858 19.0316 34.385 19.2842 34.3873 19.5464C34.3896 19.8085 34.4948 20.0594 34.6802 20.2448C34.8656 20.4302 35.1164 20.5353 35.3786 20.5376C35.6408 20.5399 35.8934 20.4391 36.082 20.257L39.471 16.8679L40.178 17.575L42.3 19.7L45.129 22.528L38.549 29.108L33.815 33.841L28.158 28.184L33.258 23.084C33.4402 22.8953 33.541 22.6427 33.5387 22.3805C33.5364 22.1184 33.4312 21.8675 33.2458 21.6821C33.0604 21.4967 32.8096 21.3916 32.5474 21.3893C32.2852 21.387 32.0326 21.4878 31.844 21.67L26.044 27.4699C25.8565 27.6575 25.7512 27.9118 25.7512 28.177C25.7512 28.4421 25.8565 28.6964 26.044 28.884L26.751 29.591L24.63 31.7129C24.4425 31.9005 24.3372 32.1548 24.3372 32.4199C24.3372 32.6851 24.4425 32.9394 24.63 33.1269L22.5 35.2529C22.3125 35.4405 22.2072 35.6948 22.2072 35.9599C22.2072 36.2251 22.3125 36.4794 22.5 36.667L25.333 39.5C25.5205 39.6874 25.7748 39.7927 26.04 39.7927C26.3052 39.7927 26.5595 39.6874 26.747 39.5L28.868 37.3779C29.0555 37.5654 29.3098 37.6707 29.575 37.6707C29.8402 37.6707 30.0945 37.5654 30.282 37.3779L32.4 35.2529L33.107 35.9599C33.2945 36.1474 33.5488 36.2527 33.814 36.2527C34.0792 36.2527 34.3335 36.1474 34.521 35.9599L39.5 30.982C41.0139 31.6557 42.3557 32.6631 43.4251 33.9289C44.4944 35.1947 45.2636 36.686 45.6749 38.2911C46.0862 39.8963 46.1291 41.5737 45.8003 43.1977C45.4715 44.8218 44.7796 46.3504 43.7763 47.6692C42.773 48.988 41.4844 50.0626 40.0069 50.8128C38.5294 51.563 36.9014 51.9692 35.2447 52.001C33.5879 52.0328 31.9455 51.6894 30.4403 50.9965C28.9351 50.3036 27.6062 49.2792 26.553 48H31C31.2652 48 31.5196 47.8946 31.7071 47.7071C31.8946 47.5195 32 47.2652 32 47C32 46.7347 31.8946 46.4804 31.7071 46.2928C31.5196 46.1053 31.2652 46 31 46H16V44H31C31.2652 44 31.5196 43.8946 31.7071 43.7071C31.8946 43.5195 32 43.2652 32 43C32 42.7347 31.8946 42.4804 31.7071 42.2928C31.5196 42.1053 31.2652 42 31 42H15C14.7348 42 14.4804 42.1053 14.2929 42.2928C14.1054 42.4804 14 42.7347 14 43V47C14 47.2652 14.1054 47.5195 14.2929 47.7071C14.4804 47.8946 14.7348 48 15 48H19.528C21.2092 51.7459 24.1945 54.7533 27.928 56.462C27.0567 56.8587 26.3176 57.4972 25.7986 58.3016C25.2796 59.1061 25.0024 60.0426 25 61C25 61.2652 25.1054 61.5195 25.2929 61.7071C25.4804 61.8946 25.7348 62 26 62H45C45.2652 62 45.5196 61.8946 45.7071 61.7071C45.8946 61.5195 46 61.2652 46 61C45.9962 59.9379 45.6537 58.9048 45.0222 58.0508C44.3908 57.1969 43.5033 56.5667 42.489 56.2519C45.1323 54.9554 47.394 52.9952 49.053 50.563C49.1269 50.4544 49.1788 50.3324 49.2055 50.2038C49.2323 50.0752 49.2335 49.9427 49.209 49.8136C49.1846 49.6846 49.1349 49.5617 49.0629 49.4518C48.9909 49.342 48.898 49.2474 48.7895 49.1735C48.681 49.0995 48.5589 49.0477 48.4304 49.0209C48.3018 48.9941 48.1692 48.993 48.0402 49.0174C47.9111 49.0419 47.7882 49.0915 47.6784 49.1635C47.5685 49.2355 47.4739 49.3284 47.4 49.437C45.9464 51.5764 43.9638 53.3031 41.645 54.4491C39.3263 55.5952 36.7503 56.1214 34.1679 55.9768C31.5854 55.8321 29.0844 55.0214 26.9081 53.6236C24.7319 52.2257 22.9545 50.2883 21.749 48H24.064C25.1357 49.679 26.5793 51.0891 28.2831 52.121C29.9869 53.153 31.9053 53.7792 33.8898 53.9511C35.8743 54.1231 37.8718 53.8363 39.7277 53.1129C41.5836 52.3895 43.2483 51.2488 44.5929 49.7792C45.9375 48.3095 46.926 46.5503 47.482 44.6375C48.038 42.7247 48.1465 40.7096 47.7992 38.7482C47.4519 36.7868 46.658 34.9315 45.479 33.3259C44.3 31.7204 42.7675 30.4075 41 29.489L42.475 28.014C45.6179 29.8122 48.0015 32.6899 49.1832 36.1127C50.3648 39.5354 50.2642 43.2707 48.9 46.625C48.8497 46.7469 48.824 46.8776 48.8245 47.0094C48.8249 47.1413 48.8514 47.2718 48.9025 47.3934C48.9535 47.515 49.0282 47.6253 49.122 47.718C49.2159 47.8106 49.3272 47.8838 49.4494 47.9333C49.5717 47.9827 49.7026 48.0075 49.8344 48.0062C49.9663 48.0049 50.0967 47.9775 50.2179 47.9256C50.3392 47.8737 50.449 47.7983 50.541 47.7038C50.633 47.6093 50.7054 47.4976 50.754 47.375C52.264 43.6583 52.4073 39.5266 51.1584 35.7142C49.9095 31.9019 47.3494 28.6558 43.933 26.5529H43.932ZM45.132 14.04L47.96 16.8679L45.132 19.7L43.717 18.285L42.3 16.8679L45.132 14.04ZM26.04 37.375L24.625 35.9599L26.04 34.546L27.454 35.9599L26.04 37.375ZM29.575 35.2529L26.747 32.4249L28.161 31.011L30.989 33.839L29.575 35.2529ZM41 58C41.6203 58.0007 42.2251 58.1933 42.7316 58.5514C43.2381 58.9095 43.6214 59.4154 43.829 60H27.171C27.3786 59.4154 27.7619 58.9095 28.2684 58.5514C28.7749 58.1933 29.3797 58.0007 30 58H41Z" fill="#2F2F31" id="id_124"></path>
<path d="M27 15C27 14.4067 26.8241 13.8266 26.4944 13.3333C26.1648 12.8399 25.6962 12.4554 25.1481 12.2284C24.5999 12.0013 23.9967 11.9419 23.4147 12.0576C22.8328 12.1734 22.2982 12.4591 21.8787 12.8787C21.4591 13.2982 21.1734 13.8328 21.0576 14.4147C20.9419 14.9967 21.0013 15.5999 21.2284 16.1481C21.4554 16.6962 21.8399 17.1648 22.3333 17.4944C22.8266 17.8241 23.4067 18 24 18C24.7957 18 25.5587 17.6839 26.1213 17.1213C26.6839 16.5587 27 15.7957 27 15V15ZM23 15C23 14.8022 23.0586 14.6089 23.1685 14.4444C23.2784 14.28 23.4346 14.1518 23.6173 14.0761C23.8 14.0004 24.0011 13.9806 24.1951 14.0192C24.3891 14.0578 24.5673 14.153 24.7071 14.2929C24.847 14.4327 24.9422 14.6109 24.9808 14.8049C25.0194 14.9989 24.9996 15.2 24.9239 15.3827C24.8482 15.5654 24.72 15.7216 24.5556 15.8315C24.3911 15.9414 24.1978 16 24 16C23.7348 16 23.4804 15.8946 23.2929 15.7071C23.1054 15.5196 23 15.2652 23 15Z" fill="#2F2F31" id="id_125"></path>
<path d="M24.651 23.019C24.7539 22.7083 24.9303 22.4271 25.1651 22.1992C25.4 21.9713 25.6864 21.8035 26 21.71C27.5857 21.2357 28.952 20.2149 29.8564 18.8288C30.7609 17.4427 31.1449 15.781 30.9404 14.1386C30.7359 12.4962 29.956 10.9794 28.7393 9.85741C27.5225 8.73545 25.9476 8.08092 24.294 8.01C23.0094 7.99964 21.7453 8.33285 20.6327 8.97512C19.5202 9.61739 18.5995 10.5454 17.966 11.663C17.46 12.4813 17.1423 13.4018 17.036 14.358C17.0138 14.6362 16.9248 14.905 16.7765 15.1414C16.6281 15.3779 16.4249 15.575 16.184 15.716C15.1017 16.2933 14.2223 17.1884 13.6643 18.2808C13.1063 19.3731 12.8965 20.6103 13.0632 21.8256C13.2299 23.0408 13.7651 24.1758 14.5967 25.0776C15.4282 25.9793 16.5162 26.6045 17.714 26.869C18.137 26.9567 18.568 27.0006 19 27C20.2389 27.0062 21.4489 26.6261 22.4617 25.9126C23.4745 25.1991 24.2398 24.1877 24.651 23.019V23.019ZM18.122 24.908C17.3505 24.7333 16.648 24.3344 16.1026 23.7615C15.5572 23.1885 15.1935 22.4671 15.057 21.688C14.909 20.858 15.0293 20.0024 15.4005 19.2454C15.7716 18.4884 16.3742 17.8693 17.121 17.478C17.6527 17.185 18.1041 16.7656 18.4355 16.2569C18.7668 15.7482 18.9679 15.1658 19.021 14.561C19.0958 13.8968 19.3193 13.2579 19.675 12.692C20.1103 11.907 20.7401 11.247 21.504 10.7756C22.2679 10.3042 23.1401 10.0371 24.037 10C24.095 10 24.152 10 24.21 10C25.3929 10.0486 26.5201 10.5153 27.3912 11.317C28.2622 12.1188 28.8205 13.2036 28.9667 14.3784C29.1128 15.5532 28.8374 16.7418 28.1894 17.7326C27.5414 18.7233 26.5629 19.4521 25.428 19.789C24.8139 19.9729 24.2525 20.3003 23.7901 20.7443C23.3277 21.1882 22.9777 21.7359 22.769 22.342C22.4407 23.2629 21.7871 24.032 20.9312 24.5046C20.0753 24.9772 19.0763 25.1207 18.122 24.908V24.908Z" fill="#2F2F31" id="id_126"></path>
<path d="M19 22C19.5523 22 20 21.5523 20 21C20 20.4477 19.5523 20 19 20C18.4477 20 18 20.4477 18 21C18 21.5523 18.4477 22 19 22Z" fill="#2F2F31" id="id_127"></path>
<path d="M10.267 37.5999L10.067 37.2999C9.9983 37.1828 9.90648 37.081 9.79714 37.0005C9.68779 36.92 9.5632 36.8627 9.43097 36.8319C9.29874 36.8012 9.16163 36.7977 9.028 36.8216C8.89437 36.8456 8.76702 36.8965 8.65371 36.9713C8.54039 37.0461 8.44349 37.1431 8.36891 37.2566C8.29432 37.37 8.24361 37.4974 8.21988 37.6311C8.19614 37.7648 8.19987 37.9019 8.23083 38.0341C8.2618 38.1662 8.31936 38.2907 8.4 38.3999L8.605 38.7069C8.9886 39.288 9.50264 39.7714 10.1061 40.1186C10.7096 40.4659 11.3859 40.6673 12.081 40.7069C12.175 40.7129 12.268 40.7159 12.36 40.7159C13.0091 40.7172 13.6507 40.5772 14.2403 40.3056C14.8299 40.0339 15.3532 39.6372 15.774 39.1429L17.651 36.9499C18.2556 36.2486 18.6292 35.3777 18.7206 34.4562C18.8121 33.5347 18.6171 32.6074 18.1621 31.8009C17.7072 30.9943 17.0144 30.3478 16.1785 29.9494C15.3425 29.551 14.404 29.4203 13.491 29.5749L12.436 29.7519C11.7924 29.8578 11.1794 30.1023 10.6397 30.4685C10.0999 30.8348 9.6462 31.314 9.31 31.8729L8.283 33.5829C8.14641 33.8106 8.10587 34.0833 8.17029 34.3408C8.23471 34.5984 8.39881 34.8199 8.6265 34.9564C8.85419 35.093 9.12681 35.1336 9.38439 35.0692C9.64197 35.0047 9.86341 34.8406 10 34.6129L11.024 32.8999C11.2104 32.5887 11.4623 32.3217 11.7623 32.1176C12.0623 31.9135 12.403 31.7771 12.761 31.7179L13.817 31.5419C14.3249 31.4548 14.8473 31.5268 15.3127 31.748C15.7781 31.9692 16.1638 32.3288 16.417 32.7776C16.6702 33.2264 16.7785 33.7425 16.7272 34.2552C16.6758 34.768 16.4672 35.2523 16.13 35.6419L14.252 37.8339C14.0008 38.1284 13.6847 38.3605 13.3286 38.512C12.9725 38.6635 12.586 38.7302 12.1997 38.707C11.8134 38.6837 11.4377 38.5711 11.1024 38.3779C10.767 38.1848 10.481 37.9164 10.267 37.5939V37.5999Z" fill="#2F2F31" id="id_128"></path>
<path d="M13 36C13.5523 36 14 35.5523 14 35C14 34.4477 13.5523 34 13 34C12.4477 34 12 34.4477 12 35C12 35.5523 12.4477 36 13 36Z" fill="#2F2F31" id="id_129"></path>
<path d="M53.9 26.011C53.8584 25.5821 53.7218 25.1678 53.5 24.7983C53.2783 24.4288 52.977 24.1134 52.618 23.875C52.3973 23.7334 52.1299 23.6842 51.8732 23.7379C51.6166 23.7916 51.3913 23.9439 51.2459 24.1621C51.1005 24.3803 51.0466 24.6468 51.0958 24.9043C51.145 25.1619 51.2934 25.3898 51.509 25.539C51.6205 25.614 51.7141 25.7127 51.783 25.8281C51.852 25.9434 51.8946 26.0726 51.9079 26.2063C51.9211 26.34 51.9047 26.475 51.8598 26.6017C51.8149 26.7283 51.7426 26.8435 51.648 26.939C51.1029 27.4856 50.7968 28.226 50.7968 28.998C50.7968 29.7699 51.1029 30.5104 51.648 31.057C51.7402 31.1525 51.8506 31.2287 51.9726 31.2811C52.0946 31.3335 52.2258 31.3611 52.3586 31.3622C52.4914 31.3634 52.6231 31.3381 52.746 31.2878C52.8688 31.2375 52.9805 31.1633 53.0744 31.0694C53.1683 30.9755 53.2425 30.8638 53.2928 30.7409C53.3431 30.618 53.3684 30.4864 53.3673 30.3536C53.3661 30.2208 53.3385 30.0896 53.2861 29.9676C53.2337 29.8456 53.1575 29.7352 53.062 29.643C52.8914 29.4717 52.7956 29.2398 52.7956 28.998C52.7956 28.7562 52.8914 28.5243 53.062 28.353C53.3667 28.0492 53.5999 27.6815 53.7448 27.2764C53.8898 26.8713 53.9428 26.4391 53.9 26.011V26.011Z" fill="#2F2F31" id="id_130"></path>
<path d="M37.963 38.071C37.6492 37.9031 37.2956 37.8237 36.9401 37.8413C36.5847 37.8589 36.2407 37.9729 35.945 38.171L34.445 39.171C34.2243 39.3182 34.0712 39.547 34.0192 39.8071C33.9673 40.0673 34.0208 40.3373 34.168 40.558C34.3152 40.7787 34.544 40.9318 34.8041 40.9838C35.0642 41.0357 35.3343 40.9822 35.555 40.835L37 39.8V41.2C36.9996 41.5556 37.0958 41.9046 37.2785 42.2097C37.4612 42.5148 37.7234 42.7645 38.037 42.932C38.3417 43.1029 38.6896 43.1814 39.0381 43.1579C39.3867 43.1345 39.7209 43.0101 40 42.8C40 43.0652 40.1054 43.3196 40.2929 43.5071C40.4804 43.6946 40.7348 43.8 41 43.8C41.2652 43.8 41.5196 43.6946 41.7071 43.5071C41.8946 43.3196 42 43.0652 42 42.8C42.0004 42.4444 41.9042 42.0954 41.7215 41.7903C41.5388 41.4852 41.2766 41.2356 40.963 41.068C40.6583 40.8971 40.3104 40.8186 39.9619 40.8421C39.6133 40.8655 39.2791 40.9899 39 41.2V39.8C38.9999 39.4449 38.9034 39.0965 38.7207 38.792C38.5381 38.4875 38.2762 38.2383 37.963 38.071V38.071Z" fill="#2F2F31" id="id_131"></path>
<path d="M22 31C22.5523 31 23 30.5523 23 30C23 29.4477 22.5523 29 22 29C21.4477 29 21 29.4477 21 30C21 30.5523 21.4477 31 22 31Z" fill="#2F2F31" id="id_132"></path>
<path d="M42 38C42.5523 38 43 37.5523 43 37C43 36.4477 42.5523 36 42 36C41.4477 36 41 36.4477 41 37C41 37.5523 41.4477 38 42 38Z" fill="#2F2F31" id="id_133"></path>
<path d="M35 13C35 13.2652 35.1054 13.5196 35.2929 13.7071C35.4804 13.8946 35.7348 14 36 14C36.2652 14 36.5196 13.8946 36.7071 13.7071C36.8946 13.5196 37 13.2652 37 13C37 11.9391 36.5786 10.9217 35.8284 10.1716C35.0783 9.42143 34.0609 9 33 9C32.7348 9 32.4804 9.10536 32.2929 9.29289C32.1054 9.48043 32 9.73478 32 10C32 10.2652 32.1054 10.5196 32.2929 10.7071C32.4804 10.8946 32.7348 11 33 11C33.5304 11 34.0391 11.2107 34.4142 11.5858C34.7893 11.9609 35 12.4696 35 13Z" fill="#2F2F31" id="id_134"></path>
<path d="M34.293 46.707L36.293 48.707C36.4816 48.8892 36.7342 48.99 36.9964 48.9877C37.2586 48.9854 37.5094 48.8803 37.6948 48.6949C37.8802 48.5095 37.9854 48.2586 37.9877 47.9964C37.99 47.7342 37.8892 47.4816 37.707 47.293L35.707 45.293C35.5184 45.1109 35.2658 45.0101 35.0036 45.0124C34.7414 45.0146 34.4906 45.1198 34.3052 45.3052C34.1198 45.4906 34.0146 45.7414 34.0123 46.0036C34.01 46.2658 34.1108 46.5184 34.293 46.707Z" fill="#2F2F31" id="id_135"></path>
</svg>