<svg xmlns:dc="http://purl.org/dc/elements/1.1/" xmlns:cc="http://creativecommons.org/ns#" xmlns:rdf="http://www.w3.org/1999/02/22-rdf-syntax-ns#" xmlns:svg="http://www.w3.org/2000/svg" xmlns="http://www.w3.org/2000/svg" xmlns:sodipodi="http://sodipodi.sourceforge.net/DTD/sodipodi-0.dtd" xmlns:inkscape="http://www.inkscape.org/namespaces/inkscape" width="64" height="64" viewBox="0 0 16.933333 16.933333" version="1.1" id="svg8" inkscape:version="0.92.3 (2405546, 2018-03-11)" sodipodi:docname="05-Test tube.svg">
  <defs id="defs2"></defs>
  <sodipodi:namedview id="base" pagecolor="#ffffff" bordercolor="#666666" borderopacity="1.0" inkscape:pageopacity="0.0" inkscape:pageshadow="2" inkscape:zoom="5.656854" inkscape:cx="77.659109" inkscape:cy="-0.51372698" inkscape:document-units="px" inkscape:current-layer="layer2" showgrid="false" inkscape:snap-smooth-nodes="true" inkscape:snap-page="true" inkscape:snap-midpoints="false" inkscape:snap-intersection-paths="true" inkscape:object-paths="true" inkscape:object-nodes="true" units="px" inkscape:snap-bbox="true" inkscape:bbox-paths="false" inkscape:snap-bbox-midpoints="false" inkscape:window-width="1920" inkscape:window-height="1040" inkscape:window-x="0" inkscape:window-y="0" inkscape:window-maximized="1" inkscape:snap-grids="false" inkscape:snap-to-guides="true" inkscape:snap-bbox-edge-midpoints="false" inkscape:snap-nodes="true" inkscape:snap-others="false" inkscape:bbox-nodes="true" showguides="true" inkscape:guide-bbox="true" inkscape:measure-start="0,0" inkscape:measure-end="0,0" inkscape:snap-global="true">
    <inkscape:grid type="xygrid" id="grid815" enabled="true"></inkscape:grid>
  </sodipodi:namedview>
  <metadata id="metadata5">
    <rdf:rdf>
      <cc:work rdf:about="">
        <dc:format>image/svg+xml</dc:format>
        <dc:type rdf:resource="http://purl.org/dc/dcmitype/StillImage"></dc:type>
        <dc:title></dc:title>
      </cc:work>
    </rdf:rdf>
  </metadata>
  <g inkscape:groupmode="layer" id="layer2" inkscape:label="05-Test tube">
    <path style="opacity: 1; fill: rgb(219, 189, 79); fill-opacity: 1; stroke: none; stroke-width: 0.529167; stroke-linecap: round; stroke-linejoin: round; stroke-miterlimit: 4; stroke-dasharray: none; stroke-dashoffset: 0; stroke-opacity: 1;" d="m 14.022852,15.874846 v -3.704165 c 0,-0.293158 0.236,-0.529167 0.52916,-0.529167 h 0.52917 c 0.29316,0 0.52917,0.236009 0.52917,0.529167 v 3.704165 z" id="path7000" inkscape:connector-curvature="0" sodipodi:nodetypes="ccccccc"></path>
    <path sodipodi:nodetypes="cccccccc" inkscape:connector-curvature="0" style="opacity: 1; fill: rgb(224, 187, 54); fill-opacity: 1; stroke: none; stroke-width: 0.529167; stroke-linecap: round; stroke-linejoin: round; stroke-miterlimit: 4; stroke-dasharray: none; stroke-dashoffset: 0; stroke-opacity: 1;" d="m 14.552084,11.641665 c -0.04563,0 -0.08907,0.0073 -0.131259,0.01809 0.228846,0.05838 0.397909,0.263554 0.397909,0.51108 V 15.875 h 0.791683 v -3.704165 c 0,-0.293158 -0.236007,-0.529167 -0.529167,-0.529167 z" id="path7002"></path>
    <path sodipodi:nodetypes="ccccccc" inkscape:connector-curvature="0" style="opacity:1;fill:#f8f8f8;fill-opacity:1;stroke:none;stroke-width:0.52916664;stroke-linecap:round;stroke-linejoin:round;stroke-miterlimit:4;stroke-dasharray:none;stroke-dashoffset:0;stroke-opacity:1" d="m 14.552084,11.641665 c -0.293161,0 -0.529167,0.236009 -0.529167,0.529167 v 3.704165 h 0.531233 v -3.704165 c 0,-0.292456 0.234916,-0.528041 0.5271,-0.529167 z" id="path7004"></path>
    <path sodipodi:nodetypes="ccccccc" inkscape:connector-curvature="0" id="path6972" d="m 11.379085,15.861778 v -2.632764 c 0,-0.293158 0.236,-0.529167 0.52916,-0.529167 h 0.52917 c 0.29316,0 0.52917,0.236009 0.52917,0.529167 v 2.632764 z" style="opacity:1;fill:#e2e7fa;fill-opacity:1;stroke:none;stroke-width:0.52916664;stroke-linecap:round;stroke-linejoin:round;stroke-miterlimit:4;stroke-dasharray:none;stroke-dashoffset:0;stroke-opacity:1"></path>
    <path id="path6996" d="m 11.908317,12.699998 c -0.04563,0 -0.08907,0.0073 -0.131259,0.01809 0.228846,0.05838 0.397909,0.263554 0.397909,0.51108 v 2.632764 h 0.791683 v -2.632764 c 0,-0.293158 -0.236007,-0.529167 -0.529167,-0.529167 z" style="opacity:1;fill:#c4d2f0;fill-opacity:1;stroke:none;stroke-width:0.52916664;stroke-linecap:round;stroke-linejoin:round;stroke-miterlimit:4;stroke-dasharray:none;stroke-dashoffset:0;stroke-opacity:1" inkscape:connector-curvature="0" sodipodi:nodetypes="cccccccc"></path>
    <path id="path6998" d="m 11.908317,12.699998 c -0.293161,0 -0.529167,0.236009 -0.529167,0.529167 v 2.632764 h 0.531233 v -2.632764 c 0,-0.292456 0.234916,-0.528041 0.5271,-0.529167 z" style="opacity:1;fill:#f8f8f8;fill-opacity:1;stroke:none;stroke-width:0.52916664;stroke-linecap:round;stroke-linejoin:round;stroke-miterlimit:4;stroke-dasharray:none;stroke-dashoffset:0;stroke-opacity:1" inkscape:connector-curvature="0" sodipodi:nodetypes="ccccccc"></path>
    <path style="opacity: 1; fill: rgb(224, 193, 81); fill-opacity: 1; stroke: none; stroke-width: 0.529167; stroke-linecap: round; stroke-linejoin: round; stroke-miterlimit: 4; stroke-dasharray: none; stroke-dashoffset: 0; stroke-opacity: 1;" d="m 8.7311852,15.871231 v -1.852083 c 0,-0.293158 0.236,-0.529167 0.52916,-0.529167 h 0.52917 c 0.2931598,0 0.5291698,0.236009 0.5291698,0.529167 v 1.852083 z" id="path6956" inkscape:connector-curvature="0" sodipodi:nodetypes="ccccccc"></path>
    <path style="opacity: 1; fill: rgb(207, 171, 41); fill-opacity: 1; stroke: none; stroke-width: 0.529167; stroke-linecap: round; stroke-linejoin: round; stroke-miterlimit: 4; stroke-dasharray: none; stroke-dashoffset: 0; stroke-opacity: 1;" d="m 9.2604165,13.490132 c -0.045632,0 -0.08907,0.0073 -0.1312582,0.01809 0.228846,0.05838 0.3979084,0.263554 0.3979084,0.51108 v 1.852083 H 10.31875 v -1.852083 c 0,-0.293158 -0.236007,-0.529167 -0.5291669,-0.529167 z" id="path6962" inkscape:connector-curvature="0" sodipodi:nodetypes="cccccccc"></path>
    <path style="fill:#a8c5f7;fill-opacity:1;stroke:none;stroke-width:0.5291667;stroke-linecap:round;stroke-linejoin:round;stroke-miterlimit:4;stroke-dasharray:none;stroke-opacity:1" d="m 15.079115,4.497917 -2.11667,-2.116667 -2.11666,2.116667 h 1.32292 v 0.893265 c 0,4.04909 -4.34137,7.308818 -11.37709,7.308818 4.30547,0 12.96459,0 12.96459,-7.308818 V 4.497917 Z" id="path6937" inkscape:connector-curvature="0" sodipodi:nodetypes="ccccccccc"></path>
    <path style="fill:#91b8fb;fill-opacity:1;stroke:none;stroke-width:0.5291667;stroke-linecap:round;stroke-linejoin:round;stroke-miterlimit:4;stroke-dasharray:none;stroke-opacity:1" d="M 12.962516,2.38125 12.566675,2.7770915 14.2875,4.4979166 h 0.791683 z m 0.0021,2.3833163 v 0.6268358 c 0,6.5600669 -6.967437,7.2299319 -11.5098914,7.2987789 C 1.236398,12.696698 1.0154819,12.7 0.79168293,12.7 5.0971529,12.7 13.756266,12.70022 13.756266,5.3914021 V 4.2333333 c -0.527099,0 -0.791683,0.2645833 -0.791683,0.531233 z" id="path6942" inkscape:connector-curvature="0" sodipodi:nodetypes="ccccccccccccc"></path>
    <path inkscape:connector-curvature="0" style="fill:#f8f8f8;fill-opacity:1;stroke:none;stroke-width:0.5291667;stroke-linecap:round;stroke-linejoin:round;stroke-miterlimit:4;stroke-dasharray:none;stroke-opacity:1" d="M 12.962516,2.38125 10.84585,4.4979166 h 0.795817 l 1.718758,-1.7187582 z" id="path6954" sodipodi:nodetypes="ccccc"></path>
    <path style="fill:#f8f8f8;fill-opacity:1;stroke:none;stroke-width:0.5291667;stroke-linecap:round;stroke-linejoin:round;stroke-miterlimit:4;stroke-dasharray:none;stroke-opacity:1" d="M 12.168766,4.2333333 V 5.3914021 C 12.168766,9.4404922 7.8274031,12.7 0.79168293,12.7 0.98240481,12.7 1.1911706,12.699603 1.3978475,12.699 8.3877419,12.675016 12.697933,9.4255412 12.697933,5.3914021 V 4.4979166 c 0,-0.2645833 -0.262516,-0.2645833 -0.529167,-0.2645833 z" id="path6947" inkscape:connector-curvature="0" sodipodi:nodetypes="ccccccc"></path>
    <path style="opacity:1;fill:#e2e7fa;fill-opacity:1;stroke:none;stroke-width:0.52916664;stroke-linecap:round;stroke-linejoin:round;stroke-miterlimit:4;stroke-dasharray:none;stroke-dashoffset:0;stroke-opacity:1" d="m 4.495785,8.466665 h -1.85209 c -0.43973,0 -0.79375,-0.354012 -0.79375,-0.793749 0,-0.439738 0.35402,-0.79375 0.79375,-0.79375 h 5.29167 c 0.43974,0 0.79375,0.354012 0.79375,0.79375 0,0.439737 -0.35401,0.793749 -0.79375,0.793749 h -0.79375" id="path6878" inkscape:connector-curvature="0" sodipodi:nodetypes="cccccccc"></path>
    <path inkscape:connector-curvature="0" style="opacity:1;fill:#f8f8f8;fill-opacity:1;stroke:none;stroke-width:0.52916664;stroke-linecap:round;stroke-linejoin:round;stroke-miterlimit:4;stroke-dasharray:none;stroke-dashoffset:0;stroke-opacity:1" d="m 2.6437662,6.8791666 c -0.43973,0 -0.7937499,0.3540119 -0.7937499,0.79375 0,0.4397369 0.3540199,0.79375 0.7937499,0.79375 H 3.175 c -0.4397301,0 -0.79375,-0.3540131 -0.79375,-0.79375 0,-0.4397381 0.3540199,-0.79375 0.79375,-0.79375 z" id="path6907" sodipodi:nodetypes="ccccccc"></path>
    <path style="opacity:1;fill:#e2e7fa;fill-opacity:1;stroke:none;stroke-width:0.52916664;stroke-linecap:butt;stroke-linejoin:round;stroke-miterlimit:4;stroke-dasharray:none;stroke-dashoffset:0;stroke-opacity:1" d="m 7.935365,8.466669 v 5.02708 c 0,1.465792 -1.18004,2.645834 -2.64583,2.645834 -1.4658,0 -2.64584,-1.180042 -2.64584,-2.645834 v -5.02708 z" id="path6880" inkscape:connector-curvature="0" sodipodi:nodetypes="cccccc"></path>
    <path style="opacity:1;fill:#c4d2f0;fill-opacity:1;stroke:none;stroke-width:0.52916664;stroke-linecap:round;stroke-linejoin:round;stroke-miterlimit:4;stroke-dasharray:none;stroke-dashoffset:0;stroke-opacity:1" d="M 2.6437662,8.4666666 V 8.9958332 H 7.935433 V 8.4666666 Z" id="path6910" inkscape:connector-curvature="0" sodipodi:nodetypes="ccccc"></path>
    <path inkscape:connector-curvature="0" style="opacity:1;fill:#c4d2f0;fill-opacity:1;stroke:none;stroke-width:0.52916664;stroke-linecap:butt;stroke-linejoin:round;stroke-miterlimit:4;stroke-dasharray:none;stroke-dashoffset:0;stroke-opacity:1" d="M 7.1437499,8.4666666 V 13.49375 c 0,1.330802 -0.9738624,2.422831 -2.2499918,2.613277 0.1293691,0.01929 0.2609337,0.03256 0.3958416,0.03256 1.4657898,0 2.6458333,-1.180041 2.6458333,-2.645833 V 8.4666666 Z" id="path6919" sodipodi:nodetypes="ccccccc"></path>
    <path inkscape:connector-curvature="0" style="opacity:1;fill:#f8f8f8;fill-opacity:1;stroke:none;stroke-width:0.52916664;stroke-linecap:butt;stroke-linejoin:round;stroke-miterlimit:4;stroke-dasharray:none;stroke-dashoffset:0;stroke-opacity:1" d="M 2.6437662,8.4666666 V 13.49375 c 0,1.465792 1.1800334,2.645833 2.6458335,2.645833 0.08934,0 0.1775685,-0.0044 0.2645833,-0.01292 -1.3406284,-0.13196 -2.3812502,-1.256462 -2.38125,-2.632914 V 8.4666666 Z" id="path6902" sodipodi:nodetypes="ccccccc"></path>
    <path inkscape:connector-curvature="0" style="fill:#a8c5f7;fill-opacity:1;stroke:none;stroke-width:0.52916664;stroke-linecap:butt;stroke-linejoin:miter;stroke-miterlimit:4;stroke-dasharray:none;stroke-opacity:1" d="M 2.6437662,9.5249999 V 13.49375 c 0,1.465792 1.1800334,2.645833 2.6458335,2.645833 1.4657898,0 2.6458333,-1.180041 2.6458333,-2.645833 v -2.910417 c -3.1750002,0 -1.3229167,-1.0583331 -5.2916668,-1.0583331 z" id="path6882" sodipodi:nodetypes="cccccc"></path>
    <path inkscape:connector-curvature="0" style="fill: rgb(222, 184, 44); fill-opacity: 1; stroke: none; stroke-width: 0.529167; stroke-linecap: butt; stroke-linejoin: miter; stroke-miterlimit: 4; stroke-dasharray: none; stroke-opacity: 1;" d="m 2.6437662,9.5249999 v 0.5291671 c 3.9687501,0 2.1166666,1.058333 5.2916668,1.058333 v -0.529167 c -3.1750005,0 -1.3229167,-1.0583331 -5.2916668,-1.0583331 z" id="path7008" sodipodi:nodetypes="ccccc"></path>
    <path inkscape:connector-curvature="0" style="fill:#f8f8f8;fill-opacity:1;stroke:none;stroke-width:0.52916664;stroke-linecap:butt;stroke-linejoin:miter;stroke-miterlimit:4;stroke-dasharray:none;stroke-opacity:1" d="M 2.6437662,9.5249999 V 13.49375 c 0,1.465792 1.1800331,2.645833 2.6458335,2.645833 0.08934,0 0.1775685,-0.0044 0.2645833,-0.01292 C 4.2135554,15.994702 3.172933,14.8702 3.172933,13.493748 V 9.5343016 c -0.167047,-0.00478 -0.3357165,-0.0093 -0.5291668,-0.0093 z" id="path6895" sodipodi:nodetypes="cccccccc"></path>
    <path style="fill: rgb(230, 190, 43); fill-opacity: 1; stroke: none; stroke-width: 0.529167; stroke-linecap: butt; stroke-linejoin: miter; stroke-miterlimit: 4; stroke-dasharray: none; stroke-opacity: 1;" d="m 7.1437499,10.583333 v 2.910417 c 0,1.330802 -0.9738619,2.422831 -2.2499918,2.613277 0.1294451,0.01932 0.2608506,0.03256 0.3958416,0.03256 1.4657898,0 2.645833,-1.180041 2.6458333,-2.645833 v -2.910417 z" id="path6890" inkscape:connector-curvature="0" sodipodi:nodetypes="ccccccc"></path>
    <path sodipodi:nodetypes="ccccc" inkscape:connector-curvature="0" id="path6868" d="M 4.69033,1.39287 C 4.17335,0.87579 3.41988,0.67378 2.71315,0.86398 2.52435,1.57104 2.72645,2.32385 3.24299,2.84048 3.75996,3.35756 4.51343,3.55958 5.22016,3.36937 5.40896,2.66231 5.20686,1.9095 4.69033,1.39287 Z" style="opacity:1;fill:#a8c5f7;fill-opacity:1;stroke:none;stroke-width:0.52916664;stroke-linecap:round;stroke-linejoin:round;stroke-miterlimit:4;stroke-dasharray:none;stroke-dashoffset:0;stroke-opacity:1"></path>
    <path style="opacity:1;fill:#91b8fb;fill-opacity:1;stroke:none;stroke-width:0.52916664;stroke-linecap:round;stroke-linejoin:round;stroke-miterlimit:4;stroke-dasharray:none;stroke-dashoffset:0;stroke-opacity:1" d="m 3.24774,0.79386 c -0.13289,-2.1e-4 -0.26621,0.0172 -0.39894,0.0434 0.39014,0.0777 0.75662,0.26461 1.04748,0.55553 0.51653,0.51663 0.71849,1.26956 0.52969,1.97662 -0.0445,0.012 -0.0896,0.018 -0.13436,0.0269 0.30298,0.0602 0.61987,0.0562 0.92862,-0.0269 C 5.40903,2.66235 5.20713,1.90942 4.69055,1.39279 4.30282,1.00498 3.78204,0.79467 3.24774,0.79386 Z" id="path6870" inkscape:connector-curvature="0" sodipodi:nodetypes="cccccccc"></path>
    <path style="opacity:1;fill:#f8f8f8;fill-opacity:1;stroke:none;stroke-width:0.52916664;stroke-linecap:round;stroke-linejoin:round;stroke-miterlimit:4;stroke-dasharray:none;stroke-dashoffset:0;stroke-opacity:1" d="m 3.24774,0.79386 c -0.1781,-2.7e-4 -0.35765,0.0227 -0.53433,0.0703 -0.1888,0.70706 0.0132,1.45947 0.52968,1.9761 0.45236,0.45245 1.08575,0.66409 1.71049,0.5824 C 4.51335,3.36516 4.09638,3.16445 3.77226,2.84026 3.25573,2.32363 3.05378,1.57122 3.24258,0.86416 3.33058,0.84046 3.41928,0.82256 3.50819,0.81096 3.42199,0.79976 3.33523,0.79406 3.24774,0.79386 Z" id="path6872" inkscape:connector-curvature="0" sodipodi:nodetypes="cccccccc"></path>
    <path style="opacity:1;fill:#a8c5f7;fill-opacity:1;stroke:none;stroke-width:0.52916664;stroke-linecap:round;stroke-linejoin:round;stroke-miterlimit:4;stroke-dasharray:none;stroke-dashoffset:0;stroke-opacity:1" d="M 5.88878,3.50959 C 6.40575,2.99251 7.15922,2.7905 7.86595,2.9807 8.05475,3.68776 7.85265,4.44057 7.33612,4.9572 6.81914,5.47428 6.06567,5.6763 5.35894,5.48609 5.17014,4.77903 5.37224,4.02622 5.88878,3.50959 Z" id="path6849" inkscape:connector-curvature="0" sodipodi:nodetypes="ccccc"></path>
    <path inkscape:connector-curvature="0" style="opacity: 1; fill: rgb(219, 178, 31); fill-opacity: 1; stroke: none; stroke-width: 0.529167; stroke-linecap: round; stroke-linejoin: round; stroke-miterlimit: 4; stroke-dasharray: none; stroke-dashoffset: 0; stroke-opacity: 1;" d="m 7.3317824,2.9105765 c -0.1334894,2.027e-4 -0.265389,0.017523 -0.3953248,0.043408 0.04515,0.00893 0.090547,0.014803 0.1353923,0.026872 C 7.26065,3.6879165 7.0586922,4.4403312 6.5421665,4.9569632 6.2510463,5.2481414 5.8841819,5.4354185 5.4936516,5.5130018 6.1601788,5.6450156 6.8516248,5.4413513 7.3359165,4.9569632 7.8524435,4.4403312 8.0549167,3.6879165 7.8661166,2.9808565 7.6894335,2.9333045 7.5098819,2.9103061 7.3317824,2.9105765 Z" id="path6851" sodipodi:nodetypes="cccccccc"></path>
    <path inkscape:connector-curvature="0" style="opacity:1;fill:#f8f8f8;fill-opacity:1;stroke:none;stroke-width:0.52916664;stroke-linecap:round;stroke-linejoin:round;stroke-miterlimit:4;stroke-dasharray:none;stroke-dashoffset:0;stroke-opacity:1" d="M 7.3317824,2.9105765 C 6.7974836,2.9113967 6.2767085,3.1216979 5.8889764,3.5095064 5.3724394,4.0261384 5.1699752,4.7790719 5.3587763,5.4861299 5.6222497,5.5570411 5.8922874,5.5734733 6.1540765,5.5393566 6.0651617,5.5276859 5.976472,5.5098175 5.8884597,5.4861299 5.6996586,4.7790719 5.9016069,4.0261384 6.4181431,3.5095064 6.7422627,3.1853228 7.1592286,2.9851152 7.5994664,2.9276297 7.5102174,2.91596 7.4208322,2.9104413 7.3317824,2.9105765 Z" id="path6853" sodipodi:nodetypes="cccccccc"></path>
    <path inkscape:connector-curvature="0" style="opacity:1;fill:#c4d2f0;fill-opacity:1;stroke:none;stroke-width:0.52916664;stroke-linecap:round;stroke-linejoin:round;stroke-miterlimit:4;stroke-dasharray:none;stroke-dashoffset:0;stroke-opacity:1" d="m 7.1437499,6.8791666 c 0.4397399,0 0.79375,0.3540119 0.79375,0.79375 0,0.4397369 -0.3540101,0.79375 -0.79375,0.79375 H 7.935433 c 0.4397399,0 0.79375,-0.3540131 0.79375,-0.79375 -3e-7,-0.4397381 -0.3540101,-0.79375 -0.79375,-0.79375 z" id="path6924" sodipodi:nodetypes="ccccccc"></path>
    <path transform="scale(-1,1)" style="opacity:1;fill:#e2e7fa;fill-opacity:1;stroke:none;stroke-width:0.5291667;stroke-linecap:round;stroke-linejoin:round;stroke-miterlimit:4;stroke-dasharray:none;stroke-dashoffset:0;stroke-opacity:1" d="m -4.4957803,14.155208 c -1e-7,0.365313 -0.296145,0.661458 -0.6614582,0.661458 -0.3653132,0 -0.6614581,-0.296145 -0.6614582,-0.661458 -4e-7,-0.365314 0.2961446,-0.661459 0.6614582,-0.661459 0.3653136,0 0.6614586,0.296145 0.6614582,0.661459 z" id="circle6927" inkscape:connector-curvature="0" sodipodi:nodetypes="ccccc"></path>
    <path inkscape:connector-curvature="0" style="opacity:1;fill:#c4d2f0;fill-opacity:1;stroke:none;stroke-width:0.5291667;stroke-linecap:round;stroke-linejoin:round;stroke-miterlimit:4;stroke-dasharray:none;stroke-dashoffset:0;stroke-opacity:1" d="m 5.157308,13.49375 c -0.090886,9.3e-5 -0.1807777,0.01891 -0.2640666,0.05529 0.2416357,0.104724 0.3981278,0.342811 0.3984252,0.606164 -1.18e-4,0.263107 -0.1561602,0.501128 -0.3973917,0.606165 0.08297,0.03624 0.1724954,0.05506 0.2630331,0.05529 0.3653105,0 0.6614543,-0.29614 0.6614583,-0.661451 -1e-7,-0.365313 -0.2961451,-0.661458 -0.6614583,-0.661458 z" id="circle6934" sodipodi:nodetypes="ccccccc"></path>
    <path transform="scale(-1,1)" style="opacity:1;fill:#e2e7fa;fill-opacity:1;stroke:none;stroke-width:0.52916664;stroke-linecap:round;stroke-linejoin:round;stroke-miterlimit:4;stroke-dasharray:none;stroke-dashoffset:0;stroke-opacity:1" d="m -5.8186999,12.435416 c 2e-7,0.292251 -0.2369158,0.529167 -0.5291666,0.529167 -0.2922508,0 -0.5291669,-0.236916 -0.5291667,-0.529167 4e-7,-0.29225 0.2369163,-0.529166 0.5291667,-0.529166 0.2922504,0 0.5291662,0.236916 0.5291666,0.529166 z" id="circle6929" inkscape:connector-curvature="0" sodipodi:nodetypes="ccccc"></path>
    <path style="opacity:1;fill:#f8f8f8;fill-opacity:1;stroke:none;stroke-width:0.52916664;stroke-linecap:round;stroke-linejoin:round;stroke-miterlimit:4;stroke-dasharray:none;stroke-dashoffset:0;stroke-opacity:1" d="m 9.2604165,13.490132 c -0.2931602,0 -0.5291667,0.236009 -0.5291667,0.529167 v 1.852083 h 0.5312336 v -1.852083 c 0,-0.292456 0.2349151,-0.528041 0.5270997,-0.529167 z" id="path6967" inkscape:connector-curvature="0" sodipodi:nodetypes="ccccccc"></path>
    <path style="opacity: 1; fill: rgb(222, 184, 49); fill-opacity: 1; stroke: none; stroke-width: 0.529167; stroke-linecap: round; stroke-linejoin: round; stroke-miterlimit: 4; stroke-dasharray: none; stroke-dashoffset: 0; stroke-opacity: 1;" d="m 2.6473501,0.60823351 c -0.0916,0.02442 -0.16317,0.09602 -0.18759,0.187586 -0.21302,0.79775709 0.0144,1.64931409 0.59739,2.23242209 0.5189501,0.519037 1.2510601,0.755753 1.9678899,0.651123 v 2.9352208 c -0.79291,-6.98e-5 -1.5858098,1.551e-4 -2.3787199,0 -0.58175,0 -1.05836,0.4662551 -1.05836,1.059367 0,0.4992841 0.33936,0.9076582 0.79325,1.024227 -1.7e-4,1.2273999 0,2.4485216 0,3.6741946 -0.5141,0.03881 -1.04231,0.06305 -1.59116008,0.06305 -0.34658999,0.0145 -0.34895999,0.514573 0,0.529166 0.47741008,0 1.02155008,-0.0019 1.59116008,-0.01188 v 0.541569 c 0,1.606928 1.29457,2.908499 2.9104899,2.909899 1.61593,-0.0014 2.9104899,-1.302971 2.9104899,-2.909899 V 12.267988 C 9.7224701,11.856929 11.14764,11.202898 12.21239,10.139435 13.3201,9.0330657 14.02111,7.4978977 14.02111,5.3914038 V 4.7625029 h 1.05836 c 0.23566,-9.21e-5 0.35365,-0.284965 0.18708,-0.4516511 L 13.14982,2.1941856 c -0.0506,-0.05064 -0.1196,-0.07861 -0.1912,-0.07751 -0.0687,0.0011 -0.13435,0.0289 -0.18294,0.07751 l -2.11672,2.1166659 c -0.16658,0.1666862 -0.0486,0.4515601 0.18707,0.4516511 h 1.05836 v 0.6289019 c 0,2.1602451 -1.3049,4.1109238 -3.7022001,5.4146575 V 8.6971454 C 8.6562001,8.5805766 8.99596,8.1732365 8.99596,7.6739524 c 0,-0.5931119 -0.4771199,-1.059367 -1.0588699,-1.059367 -0.79395,3.44e-4 -1.5878899,2.01e-5 -2.3818302,0 l 0.003,-0.8180379 C 6.27627,5.9025366 7.0063099,5.6643174 7.52615,5.1443906 8.1091498,4.5612836 8.3365698,3.7097256 8.12354,2.9119696 8.09914,2.8203996 8.02754,2.7488036 7.9359499,2.7243836 7.1382298,2.5096925 6.2869798,2.7386736 5.7034699,3.3222806 5.6500699,3.3757206 5.6030798,3.4263195 5.55568,3.4840275 L 5.55367,2.9083515 C 5.5686801,2.2780785 5.3341201,1.6605336 4.8798001,1.2061305 4.44217,0.76842151 3.8537002,0.53028551 3.2504151,0.52917101 c -0.201085,-3.715e-4 -0.403635,0.0253925 -0.603065,0.0790625 z m 10.3143699,-0.07906 c -0.14613,0.0017 -0.2632,0.12156 -0.26149,0.267684 V 1.0588575 c -0.008,0.360664 0.53715,0.360664 0.52918,0 V 0.79685751 c 0.002,-0.148551 -0.11914,-0.26942 -0.26769,-0.267684 z m -1.50486,0.98081799 0.26562,0.2656171 c 0.2501,0.258944 0.63345,-0.126515 0.37312,-0.3751711 l -0.26408,-0.26355 c -0.0478,-0.0492 -0.11283,-0.07792 -0.18138,-0.080099 -0.24053,-0.0071 -0.36488,0.284527 -0.19328,0.453203 z m 2.64125,-0.373102 -0.26407,0.263551 c -0.26033,0.2486551 0.12301,0.634114 0.37311,0.37517 l 0.26563,-0.265618 c 0.1716,-0.168675 0.0472,-0.460273 -0.19328,-0.453202 -0.0686,0.0022 -0.13359,0.030899 -0.18139,0.080099 z M 4.5046501,1.5813556 c 0.3329299,0.332988 0.5418299,0.80765 0.52091,1.3363509 -0.004,0.08129 -0.0118,0.155399 -0.024799,0.2304771 -0.601951,0.1076059 -1.184931,-0.1109651 -1.568421,-0.494543 -0.38317,-0.3832311 -0.59471,-0.9403431 -0.49611,-1.5673471 0.0772,-0.0132 0.15359,-0.02138 0.22893,-0.024802 0.5273999,-0.023992 1.0039301,0.184232 1.33949,0.5198641 z m 8.4580999,1.1740869 1.47799,1.4779461 h -0.68422 c -0.14612,1.48e-5 -0.26457,0.118464 -0.26459,0.2645828 v 0.8934871 c 0,1.9633149 -0.64,3.3614351 -1.65369,4.3738918 C 10.89477,10.707683 9.61045,11.321316 8.2021899,11.718722 V 11.404528 C 10.88105,10.03671 12.43357,7.8674724 12.43357,5.3914585 V 4.4979225 C 12.43356,4.3518034 12.3151,4.2333534 12.16898,4.2333394 H 11.48477 Z M 7.64717,3.2024495 C 7.74577,3.8294524 7.53423,4.3860466 7.1510699,4.7692786 6.7675702,5.1528564 6.1845902,5.3719444 5.5826501,5.2643386 5.4763001,4.6511744 5.6955902,4.0807405 6.07875,3.6975084 6.4143101,3.3618787 6.8908501,3.1536525 7.4182401,3.177642 c 0.0753,0.0034 0.15177,0.011597 0.2289299,0.024808 z m -5.0008499,3.941356 c 1.7874201,-2.646e-4 3.56977,6.085e-4 5.29077,0 0.2977298,0 0.52969,0.239703 0.52969,0.5302001 0,0.2904969 -0.2319602,0.528133 -0.52969,0.528133 h -0.79326 c -0.35287,-2.52e-5 -0.35287,0.529142 0,0.5291669 H 7.67301 V 10.312605 C 7.05969,10.298935 6.6644901,10.241995 6.40226,10.164293 6.10265,10.075523 5.9495499,9.9654483 5.7268301,9.8283953 5.5041102,9.6913433 5.2211301,9.5374063 4.7578701,9.4315205 4.3393501,9.3358605 3.75646,9.2758534 2.9103901,9.2646055 v -0.5333 h 1.5875401 c 0.3528697,-2.49e-5 0.3528697,-0.5291921 0,-0.5291669 H 2.6463201 c -0.29774,0 -0.52918,-0.2376361 -0.52918,-0.528133 0,-0.2904971 0.23144,-0.5302001 0.52918,-0.5302001 z m 0.26407,2.6499668 c 0.8176899,0.01175 1.3634999,0.07221 1.7281,0.155546 0.4049299,0.09255 0.60359,0.2026827 0.8108299,0.3302137 0.2072402,0.12753 0.4324202,0.282558 0.80255,0.392224 0.3261201,0.09663 0.7702902,0.156457 1.42114,0.170015 v 2.652552 c 0,1.316721 -1.0587,2.379336 -2.38131,2.380733 -1.1396998,-0.0012 -2.0816199,-0.791315 -2.3208499,-1.852084 h 0.46665 c 0.35288,0 0.35288,-0.529166 0,-0.529166 h -0.52711 V 12.964639 H 3.70209 c 0.35287,0 0.35287,-0.529166 0,-0.529166 H 2.9103901 v -0.529167 h 0.52711 c 0.35288,0 0.35288,-0.529167 0,-0.529167 h -0.52711 V 10.847973 H 3.70209 c 0.35287,0 0.35287,-0.529167 0,-0.529167 H 2.9103901 Z M 4.76045,11.112556 c -0.1461299,0 -0.2645899,0.118458 -0.2645899,0.264583 0,0.146126 0.11846,0.264584 0.2645899,0.264584 0.1461302,0 0.26459,-0.118458 0.26459,-0.264584 0,-0.146124 -0.1184598,-0.264583 -0.26459,-0.264583 z m 8.99814,1.059367 v 3.438549 h -0.52918 l -10e-4,-2.380732 c 0,-0.435164 -0.35188,-0.794267 -0.79429,-0.794267 -0.17571,-8.73e-4 -0.35141,-3.44e-4 -0.52711,0 -0.44241,0 -0.79377,0.359103 -0.79377,0.794266 l -5.29e-4,2.380733 h -0.52866 l -5.29e-4,-1.586982 c -10e-6,-0.435164 -0.3524,-0.794267 -0.7948101,-0.794267 -0.1757,-8.73e-4 -0.3514,-3.43e-4 -0.5271101,0 -0.4424097,0 -0.7937698,0.359103 -0.7937698,0.794266 l -0.00101,1.832446 c 0,0.141878 0.0788,0.284043 0.2625201,0.283704 h 7.4085289 c 0.353531,6.62e-4 0.35645,-0.529824 0,-0.529167 h -0.26249 v -3.438549 c 0,-0.435163 -0.35343,-0.794267 -0.79584,-0.794267 -0.17571,-8.73e-4 -0.35141,-3.44e-4 -0.527151,0 -0.44244,0 -0.7938,0.359104 -0.7938,0.794267 z m -7.40853,-0.5302 c -0.4414498,0 -0.7942899,0.357473 -0.7942899,0.792716 0,0.435242 0.3528401,0.794784 0.7942899,0.794784 0.44146,0 0.79326,-0.359542 0.79326,-0.794784 0,-0.435243 -0.3518,-0.792716 -0.79326,-0.792716 z m 8.2023,0.2651 c 0.1757,-7.67e-4 0.35141,-3.44e-4 0.52711,0 0.15117,0 0.26666,0.120145 0.26666,0.2651 v 3.438549 h -1.05836 v -3.438549 c 0,-0.144955 0.11343,-0.2651 0.26459,-0.2651 z m -8.2023,0.264066 c 0.14306,0 0.2640801,0.11429 0.2640801,0.26355 0,0.149259 -0.11895,0.265617 -0.2640801,0.265617 -0.14513,0 -0.2651,-0.116358 -0.2651,-0.265617 0,-0.14926 0.1220401,-0.26355 0.2651,-0.26355 z m 6.34913,1.05885 10e-4,2.380733 h -1.05836 l 5.03e-4,-2.380733 c 10e-6,-0.144955 0.11344,-0.2651 0.2646,-0.2651 0.17571,-7.67e-4 0.35141,-3.44e-4 0.527133,0 0.151184,0 0.265124,0.120145 0.265124,0.2651 z m -7.5397801,-5.16e-4 c -0.5134898,0 -0.9270999,0.416703 -0.9270999,0.925008 0,0.508305 0.41051,0.927075 0.9270999,0.927075 0.5165802,0 0.9271003,-0.41877 0.9271003,-0.927075 0,-0.508305 -0.4136202,-0.925008 -0.9271003,-0.925008 z m 0,0.529166 c 0.2223201,0 0.3979201,0.179721 0.3979201,0.395842 0,0.219221 -0.1756,0.397908 -0.3979201,0.397908 -0.2223299,0 -0.3979198,-0.178687 -0.3979198,-0.397908 0,-0.216121 0.1755899,-0.395842 0.3979198,-0.395842 z m 4.8949101,0.2651 5.29e-4,1.583366 -1.0588898,0.0036 0.00101,-1.586983 c 0,-0.144955 0.1134298,-0.2651 0.2646,-0.2651 0.1757,-7.67e-4 0.3514,-3.44e-4 0.5271203,8e-6 0.1511705,9e-6 0.2656305,0.120154 0.2656305,0.265109 z" id="circle8685" inkscape:connector-curvature="0" sodipodi:nodetypes="ccccccccccccccccccccccccccccccccccccccccccccccccccccccccccccccccccccccccccccccccccccccccccccccccccccccccccccccccccccccccccccccccccccccccccccccccccccccccccccccccccccccccccccccccccccccccccccccccccccc"></path>
  </g>
</svg>