<?xml version="1.0" standalone="no"?>
<!DOCTYPE svg PUBLIC "-//W3C//DTD SVG 20010904//EN"
 "http://www.w3.org/TR/2001/REC-SVG-20010904/DTD/svg10.dtd">
<svg version="1.0" xmlns="http://www.w3.org/2000/svg"
 width="768.000000pt" height="432.000000pt" viewBox="0 0 768.000000 432.000000"
 preserveAspectRatio="xMidYMid meet">

<g transform="translate(0.000000,432.000000) scale(0.100000,-0.100000)"
fill="#000000" stroke="none">
<path d="M0 2160 l0 -2160 3840 0 3840 0 0 2160 0 2160 -3840 0 -3840 0 0
-2160z m4953 2055 c13 -46 -6 -85 -42 -85 -37 0 -55 23 -54 67 1 41 16 54 58
51 23 -2 31 -9 38 -33z m-183 -195 c-6 -12 -14 -19 -17 -17 -2 3 1 15 7 27 6
12 14 19 17 17 2 -3 -1 -15 -7 -27z m58 -4 c-13 -19 -24 -33 -26 -31 -5 4 37
65 44 65 2 0 -6 -15 -18 -34z m-510 -108 c16 -16 16 -90 0 -106 -17 -17 -54
-15 -72 4 -18 18 -21 66 -6 95 12 22 59 26 78 7z m334 -23 c28 -43 38 -44 38
-5 0 17 5 30 10 30 6 0 10 -25 10 -55 0 -63 -15 -72 -43 -25 -10 17 -22 30
-28 30 -5 0 -9 -13 -9 -30 0 -16 -4 -30 -10 -30 -6 0 -10 27 -10 60 0 33 4 60
10 60 5 0 20 -16 32 -35z m128 5 c0 -5 -7 -10 -15 -10 -8 0 -15 5 -15 10 0 6
7 10 15 10 8 0 15 -4 15 -10z m-235 -40 c-3 -5 -35 -10 -70 -10 -35 0 -67 5
-70 10 -4 6 22 10 70 10 48 0 74 -4 70 -10z m-1230 -21 c4 -6 5 -12 3 -14 -7
-7 -48 7 -48 16 0 13 37 11 45 -2z m1484 -140 c17 -28 31 -56 31 -62 0 -12
-69 92 -70 106 0 15 8 6 39 -44z m-1219 -77 c0 -13 -12 -22 -22 -16 -10 6 -1
24 13 24 5 0 9 -4 9 -8z m36 -30 c-9 -9 -37 8 -31 18 5 8 11 7 21 -1 8 -6 12
-14 10 -17z m64 3 c0 -8 -7 -15 -15 -15 -16 0 -20 12 -8 23 11 12 23 8 23 -8z
m1260 -35 c37 -37 16 -120 -30 -120 -50 0 -72 88 -31 122 29 23 36 23 61 -2z
m163 -20 c21 -34 37 -39 37 -11 0 11 5 23 10 26 6 4 10 -15 10 -49 0 -64 -15
-73 -42 -26 -22 38 -38 38 -38 0 0 -16 -4 -30 -10 -30 -6 0 -10 27 -10 60 0
68 15 79 43 30z m237 0 c0 -5 -4 -10 -10 -10 -5 0 -10 5 -10 10 0 6 5 10 10
10 6 0 10 -4 10 -10z m-70 -19 c24 -47 0 -88 -45 -77 -35 9 -33 43 3 58 26 11
26 12 4 16 -12 2 -20 8 -17 13 10 16 44 10 55 -10z m-2270 -475 c-18 -23 -9
-61 15 -61 24 0 34 52 13 67 -10 8 -10 9 2 5 18 -4 24 -29 16 -63 -5 -20 -12
-25 -34 -22 -21 2 -28 9 -30 31 -4 35 3 57 19 57 8 0 8 -4 -1 -14z m7 -208
c-2 -18 -4 -6 -4 27 0 33 2 48 4 33 2 -15 2 -42 0 -60z m30 -10 c-2 -13 -4 -3
-4 22 0 25 2 35 4 23 2 -13 2 -33 0 -45z m-33 -79 c-3 -6 6 -22 22 -34 24 -19
27 -26 16 -37 -11 -11 -12 -10 -7 4 5 12 1 20 -11 24 -35 13 -45 25 -33 40 14
17 23 19 13 3z m308 2 c-22 -13 -11 -66 13 -66 24 0 33 39 13 62 -11 14 -11
15 2 11 19 -6 25 -55 9 -74 -18 -22 -48 -17 -59 12 -11 28 2 64 23 64 9 0 8
-3 -1 -9z m109 -31 c11 0 24 10 29 23 7 18 9 13 8 -23 0 -25 -2 -37 -5 -27 -7
26 -51 22 -56 -5 -2 -13 -4 0 -4 27 0 28 2 40 4 28 3 -15 12 -23 24 -23z
m-792 -36 c34 -20 61 -38 61 -41 0 -5 -33 13 -82 44 -21 12 -43 23 -50 23 -7
0 -44 -20 -82 -45 -38 -25 -73 -42 -78 -39 -10 6 136 91 159 93 6 1 39 -15 72
-35z m574 29 c-18 -2 -48 -2 -65 0 -18 2 -4 4 32 4 36 0 50 -2 33 -4z m-198
-33 c3 -5 2 -10 -4 -10 -5 0 -13 5 -16 10 -3 6 -2 10 4 10 5 0 13 -4 16 -10z
m-75 -4 c0 -2 -7 -7 -16 -10 -8 -3 -12 -2 -9 4 6 10 25 14 25 6z m-42 -22 c-3
-3 -30 -20 -59 -39 l-53 -33 -38 25 c-50 33 -48 39 3 13 l40 -21 52 30 c51 30
66 37 55 25z m-746 -79 c0 -20 -3 -39 -6 -42 -3 -4 -6 15 -6 42 0 27 3 46 6
42 3 -3 6 -22 6 -42z m57 -2 c-1 -27 -4 -38 -6 -25 -2 12 -8 22 -13 22 -7 0
10 50 18 50 1 0 1 -21 1 -47z m101 40 c0 -5 10 -19 21 -33 l20 -25 -4 33 c-2
17 0 32 5 32 4 0 8 -21 8 -47 l-1 -48 -29 34 -29 34 -4 -34 c-3 -28 -4 -25 -5
14 -1 26 3 47 8 47 6 0 10 -3 10 -7z m697 -90 c-2 -16 -4 -3 -4 27 0 30 2 43
4 28 2 -16 2 -40 0 -55z m40 -5 c-2 -13 -4 -3 -4 22 0 25 2 35 4 23 2 -13 2
-33 0 -45z m1 -70 c28 -28 8 -88 -29 -88 -9 0 -20 7 -23 16 -8 22 -8 62 2 67
4 3 7 -11 7 -31 0 -30 4 -37 20 -37 27 0 34 54 9 72 -10 7 -13 13 -8 13 6 0
15 -5 22 -12z m3019 -231 c-1 -5 -6 -8 -10 -8 -4 1 -14 1 -22 1 -8 0 -15 4
-15 9 0 5 11 8 25 7 14 0 24 -5 22 -9z m-1687 -791 c0 -3 -4 -8 -10 -11 -5 -3
-10 -1 -10 4 0 6 5 11 10 11 6 0 10 -2 10 -4z m2112 -78 c-9 -9 -12 -7 -12 12
0 19 3 21 12 12 9 -9 9 -15 0 -24z m73 -68 c3 -5 2 -10 -4 -10 -5 0 -13 5 -16
10 -3 6 -2 10 4 10 5 0 13 -4 16 -10z m-3928 -206 c-3 -3 -12 -4 -19 -1 -8 3
-5 6 6 6 11 1 17 -2 13 -5z m-308 -76 c-1 -58 -3 -66 -8 -37 -7 34 -3 109 5
109 2 0 3 -33 3 -72z m85 56 c3 -8 2 -12 -3 -9 -5 3 -12 -3 -14 -12 -3 -11 -5
-8 -6 10 -1 29 13 37 23 11z m273 -76 c-2 -13 -4 -5 -4 17 -1 22 1 32 4 23 2
-10 2 -28 0 -40z m-1372 32 c-3 -5 3 -17 15 -27 11 -10 20 -22 20 -27 0 -5
-10 0 -23 12 -31 29 -35 28 -46 -10 l-9 -33 -1 42 c-1 32 2 41 13 37 8 -3 17
-1 21 5 3 6 8 11 11 11 3 0 2 -4 -1 -10z m908 -5 c4 -8 2 -17 -3 -20 -6 -4
-10 3 -10 14 0 25 6 27 13 6z m257 -49 c0 -4 7 -6 15 -2 10 4 15 -1 15 -14 0
-11 -4 -20 -8 -20 -10 0 -43 44 -61 80 -11 22 -10 21 13 -5 14 -16 25 -34 26
-39z m87 42 c-3 -8 -6 -5 -6 6 -1 11 2 17 5 13 3 -3 4 -12 1 -19z m-1417 -2
c0 -8 -4 -18 -10 -21 -5 -3 -10 3 -10 14 0 12 5 21 10 21 6 0 10 -6 10 -14z
m1247 -53 c-2 -16 -4 -5 -4 22 0 28 2 40 4 28 2 -13 2 -35 0 -50z m-2257 47
c0 -5 -2 -10 -4 -10 -3 0 -8 5 -11 10 -3 6 -1 10 4 10 6 0 11 -4 11 -10z
m1460 -17 c0 -19 -3 -24 -10 -17 -6 6 -8 18 -4 27 9 24 14 21 14 -10z m308 16
c-2 -6 -8 -10 -13 -10 -5 0 -11 4 -13 10 -2 6 4 11 13 11 9 0 15 -5 13 -11z
m-201 -21 c-3 -8 -6 -5 -6 6 -1 11 2 17 5 13 3 -3 4 -12 1 -19z m3013 -283 c7
-9 10 -18 6 -22 -3 -3 -6 -2 -6 4 0 20 -33 24 -51 7 -24 -21 -24 -61 -1 -88
17 -21 17 -21 -5 -2 -42 35 -23 116 26 116 10 0 24 -7 31 -15z m-120 -31 c0
-29 -3 -35 -16 -30 -9 3 -23 6 -32 7 -12 0 -10 3 6 9 12 6 22 18 22 30 0 11 5
20 10 20 6 0 10 -16 10 -36z m-88 -26 c-9 -9 -12 -7 -12 12 0 19 3 21 12 12 9
-9 9 -15 0 -24z m218 -32 c0 -2 -8 -10 -17 -17 -16 -13 -17 -12 -4 4 13 16 21
21 21 13z m460 -51 c0 -8 -61 -37 -67 -32 -3 3 8 12 24 21 29 16 43 19 43 11z
m-180 -105 c0 -5 -2 -10 -4 -10 -3 0 -8 5 -11 10 -3 6 -1 10 4 10 6 0 11 -4
11 -10z m600 -6 c0 -8 -4 -12 -10 -9 -5 3 -10 10 -10 16 0 5 5 9 10 9 6 0 10
-7 10 -16z m-2763 -106 c-3 -8 -6 -5 -6 6 -1 11 2 17 5 13 3 -3 4 -12 1 -19z
m-237 -18 c0 -5 -4 -10 -10 -10 -5 0 -10 5 -10 10 0 6 5 10 10 10 6 0 10 -4
10 -10z m237 -62 c-3 -8 -6 -5 -6 6 -1 11 2 17 5 13 3 -3 4 -12 1 -19z m3038
-207 c3 -5 1 -12 -4 -15 -5 -3 -11 1 -15 9 -6 16 9 21 19 6z"/>
<path d="M4882 4228 c-32 -32 1 -104 36 -81 20 12 26 36 18 69 -7 26 -34 32
-54 12z"/>
<path d="M4261 3896 c-7 -8 -11 -30 -9 -48 2 -28 7 -33 28 -33 21 0 26 5 28
33 3 31 -11 62 -28 62 -4 0 -13 -6 -19 -14z"/>
<path d="M4894 3542 c-33 -21 -22 -92 15 -92 30 0 44 63 19 88 -14 14 -19 14
-34 4z"/>
<path d="M5227 3474 c-8 -8 1 -24 14 -24 5 0 9 7 9 15 0 15 -12 20 -23 9z"/>
</g>
</svg>
